<svg width="47" height="47" viewBox="0 0 47 47" fill="none" xmlns="http://www.w3.org/2000/svg">
<g clip-path="url(#clip0_345_4840)">
<path d="M25.1209 41.0277C24.1299 41.0277 23.5388 40.0459 23.8444 39.2051L29.6633 23.2028C29.9198 22.4979 30.6993 22.1343 31.4042 22.3904C32.1091 22.6468 32.4727 23.4263 32.2163 24.1312L26.3974 40.1332C26.1965 40.685 25.6758 41.0277 25.1209 41.0277Z" fill="#B071F6"/>
<path d="M39.6685 41.0277C39.1153 41.0277 38.5954 40.6871 38.3935 40.1374L32.5162 24.1351C32.2576 23.4309 32.6191 22.6507 33.323 22.3921C34.0268 22.1332 34.8074 22.4947 35.0659 23.1985L40.9432 39.2009C41.2743 40.1021 40.5952 41.0277 39.6685 41.0277Z" fill="#9C4DF4"/>
<path d="M42.5784 0.487305H22.2111C19.8545 0.487305 17.9438 2.39794 17.9438 4.75458V20.7576C17.9438 23.1143 19.8545 25.0249 22.2111 25.0249H42.5784C44.935 25.0249 46.8456 23.1143 46.8456 20.7576V4.75458C46.8456 2.39794 44.935 0.487305 42.5784 0.487305Z" fill="#EFF6FE"/>
<path d="M42.5784 0.487305H32.2163V25.0249H42.5784C44.935 25.0249 46.8456 23.1143 46.8456 20.7576V4.75458C46.8456 2.39794 44.935 0.487305 42.5784 0.487305Z" fill="#D9E4EF"/>
<path d="M15.0341 9.11943C15.0341 12.3865 12.3856 15.0349 9.11859 15.0349C5.85156 15.0349 3.20312 12.3865 3.20312 9.11943C3.20312 5.85205 5.85156 3.20361 9.11859 3.20361C12.3856 3.20361 15.0341 5.85205 15.0341 9.11943Z" fill="#FFCFBE"/>
<path d="M22.3315 23.427C21.6605 23.0913 21.3889 22.2757 21.7242 21.6048L25.3612 14.3308C25.6969 13.6598 26.5128 13.3882 27.1834 13.7235C27.8544 14.0591 28.126 14.8747 27.7907 15.5457L24.1537 22.8193C23.8177 23.4913 23.0014 23.7619 22.3315 23.427Z" fill="#FF8575"/>
<path d="M15.0347 9.11954C15.0347 12.3866 12.3863 15.035 9.11816 15.035V3.20337C12.3863 3.20337 15.0347 5.8518 15.0347 9.11954Z" fill="#F9BCAA"/>
<path d="M39.6685 8.29569H25.1209C24.3707 8.29569 23.7627 7.68734 23.7627 6.93752C23.7627 6.18734 24.3707 5.57935 25.1209 5.57935H39.6685C40.4183 5.57935 41.0267 6.18734 41.0267 6.93752C41.0267 7.68734 40.4187 8.29569 39.6685 8.29569Z" fill="#B071F6"/>
<path d="M39.6686 14.1143H33.5745C32.8243 14.1143 32.2163 13.5063 32.2163 12.7561C32.2163 12.0059 32.8243 11.3979 33.5745 11.3979H39.6686C40.4187 11.3979 41.0267 12.0059 41.0267 12.7561C41.0267 13.5063 40.4187 14.1143 39.6686 14.1143Z" fill="#9C4DF4"/>
<path d="M39.6686 19.9331H33.5745C32.8243 19.9331 32.2163 19.3248 32.2163 18.575C32.2163 17.8248 32.8243 17.2168 33.5745 17.2168H39.6686C40.4187 17.2168 41.0267 17.8248 41.0267 18.575C41.0267 19.3248 40.4187 19.9331 39.6686 19.9331Z" fill="#9C4DF4"/>
<path d="M39.6686 5.57935H32.2163V8.29569H39.6686C40.4187 8.29569 41.0267 7.68734 41.0267 6.93752C41.0267 6.18734 40.4187 5.57935 39.6686 5.57935Z" fill="#9C4DF4"/>
<path d="M13.4828 41.0273H4.75444C4.00427 41.0273 3.39627 40.4193 3.39627 39.6691V32.0771C1.70669 31.5087 0.486816 29.9097 0.486816 28.0309V23.6667C0.486816 21.3575 1.38554 19.1894 3.01712 17.562C4.61792 15.957 6.84263 15.0349 9.11898 15.0349H10.319C12.7015 15.0349 14.0979 15.9075 16.0548 16.8805C18.2099 17.9521 20.8986 19.2891 22.6133 20.1433C24.1954 20.9295 24.953 22.7733 24.3835 24.4424C24.3818 24.4477 24.38 24.453 24.3782 24.4583C24.0355 25.472 23.2673 26.2886 22.2702 26.6989C21.27 27.106 20.1492 27.0629 19.1892 26.5829C17.8205 25.8982 16.1288 25.0525 14.8413 24.4091V39.6691C14.841 40.4193 14.233 41.0273 13.4828 41.0273Z" fill="#FF7579"/>
<path d="M22.6132 20.1433C20.8985 19.2891 18.2098 17.9521 16.0544 16.8805C14.0978 15.9075 12.7014 15.0349 10.3189 15.0349H9.11852C9.11852 15.0349 9.11852 15.0349 9.11816 15.0349V41.0273H13.4827C14.2329 41.0273 14.8409 40.4193 14.8409 39.6691V24.4091C16.1287 25.0525 17.8204 25.8982 19.1891 26.5829C20.1487 27.0629 21.2699 27.1057 22.2698 26.6989C23.2668 26.2886 24.0354 25.472 24.3781 24.4579C24.3799 24.4526 24.3817 24.4473 24.3834 24.442C24.9529 22.7733 24.1953 20.9295 22.6132 20.1433Z" fill="#FF6652"/>
</g>
<defs>
<clipPath id="clip0_345_4840">
<rect width="46.3589" height="46.3589" fill="white" transform="translate(0.486816 0.487305)"/>
</clipPath>
</defs>
</svg>
