<svg width="32" height="32" viewBox="0 0 32 32" fill="none" xmlns="http://www.w3.org/2000/svg">
<path d="M4.89491 3.77612C4.89405 3.77612 4.89308 3.77612 4.89222 3.77612C4.58957 3.77612 4.3049 3.8941 4.08995 4.10851C3.87263 4.3253 3.75293 4.61394 3.75293 4.92123V22.0919C3.75293 22.7216 4.26719 23.2351 4.89944 23.2367C7.56482 23.2431 12.0304 23.7986 15.111 27.0224V9.0528C15.111 8.83936 15.0565 8.63885 14.9536 8.47292C12.4252 4.40104 7.56633 3.78237 4.89491 3.77612Z" fill="url(#paint0_linear_345_4818)"/>
<path d="M28.2471 22.092V4.92123C28.2471 4.61394 28.1274 4.3253 27.9101 4.10851C27.6952 3.8941 27.4103 3.77612 27.108 3.77612C27.107 3.77612 27.106 3.77612 27.1052 3.77612C24.4339 3.78248 19.575 4.40115 17.0465 8.47303C16.9436 8.63895 16.8892 8.83947 16.8892 9.05291V27.0224C19.9698 23.7986 24.4354 23.2431 27.1007 23.2367C27.7329 23.2351 28.2471 22.7216 28.2471 22.092Z" fill="url(#paint1_linear_345_4818)"/>
<path d="M30.8549 7.73608H30.0247V22.0921C30.0247 23.6997 28.7148 25.0106 27.1047 25.0146C24.8439 25.02 21.1161 25.4621 18.4761 27.9608C23.0421 26.8428 27.8554 27.5696 30.5986 28.1947C30.9411 28.2727 31.2951 28.1921 31.5695 27.9734C31.843 27.7552 31.9998 27.4291 31.9998 27.079V8.88098C31.9999 8.2497 31.4862 7.73608 30.8549 7.73608Z" fill="url(#paint2_linear_345_4818)"/>
<path d="M1.97517 22.0921V7.73608H1.14489C0.513726 7.73608 0 8.2497 0 8.88098V27.0787C0 27.4289 0.156876 27.7549 0.430331 27.9731C0.704541 28.1917 1.05816 28.2726 1.40122 28.1944C4.14439 27.5691 8.95788 26.8425 13.5237 27.9605C10.8837 25.4619 7.15596 25.0199 4.89515 25.0145C3.28513 25.0106 1.97517 23.6997 1.97517 22.0921Z" fill="url(#paint3_linear_345_4818)"/>
<defs>
<linearGradient id="paint0_linear_345_4818" x1="7.08824" y1="3.77612" x2="21.1492" y2="18.701" gradientUnits="userSpaceOnUse">
<stop stop-color="#FFA093"/>
<stop offset="1" stop-color="#FF6652"/>
</linearGradient>
<linearGradient id="paint1_linear_345_4818" x1="20.2244" y1="3.77612" x2="34.2855" y2="18.7009" gradientUnits="userSpaceOnUse">
<stop stop-color="#FFA093"/>
<stop offset="1" stop-color="#FF6652"/>
</linearGradient>
<linearGradient id="paint2_linear_345_4818" x1="22.4473" y1="7.73608" x2="34.0967" y2="24.4412" gradientUnits="userSpaceOnUse">
<stop stop-color="#FFA093"/>
<stop offset="1" stop-color="#FF6652"/>
</linearGradient>
<linearGradient id="paint3_linear_345_4818" x1="3.97123" y1="7.73608" x2="15.6205" y2="24.4411" gradientUnits="userSpaceOnUse">
<stop stop-color="#FFA093"/>
<stop offset="1" stop-color="#FF6652"/>
</linearGradient>
</defs>
</svg>
