<svg width="56" height="56" viewBox="0 0 56 56" fill="none" xmlns="http://www.w3.org/2000/svg">
<path d="M28.0001 49L27.7666 48.6498C26.1458 46.2186 25.3354 45.0029 24.2647 44.1229C23.3167 43.3438 22.2245 42.7593 21.0505 42.4027C19.7243 42 18.2633 42 15.3413 42H12.1334C9.51984 42 8.21305 42 7.21479 41.4914C6.3367 41.044 5.62279 40.33 5.17538 39.452C4.66675 38.4537 4.66675 37.1469 4.66675 34.5333V14.4667C4.66675 11.8531 4.66675 10.5463 5.17538 9.54804C5.62279 8.66995 6.3367 7.95605 7.21479 7.50864C8.21305 7 9.51984 7 12.1334 7H13.0667C18.2939 7 20.9075 7 22.904 8.01727C24.6602 8.91209 26.088 10.3399 26.9828 12.0961C28.0001 14.0926 28.0001 16.7062 28.0001 21.9333M28.0001 49V21.9333M28.0001 49L28.2335 48.6498C29.8544 46.2186 30.6648 45.0029 31.7355 44.1229C32.6834 43.3438 33.7756 42.7593 34.9497 42.4027C36.2758 42 37.7368 42 40.6588 42H43.8667C46.4803 42 47.7871 42 48.7854 41.4914C49.6635 41.044 50.3774 40.33 50.8248 39.452C51.3334 38.4537 51.3334 37.1469 51.3334 34.5333V14.4667C51.3334 11.8531 51.3334 10.5463 50.8248 9.54804C50.3774 8.66995 49.6635 7.95605 48.7854 7.50864C47.7871 7 46.4803 7 43.8667 7H42.9334C37.7063 7 35.0927 7 33.0962 8.01727C31.34 8.91209 29.9122 10.3399 29.0174 12.0961C28.0001 14.0926 28.0001 16.7062 28.0001 21.9333" stroke="#FF6652" stroke-width="3" stroke-linecap="round" stroke-linejoin="round"/>
</svg>
