<svg width="57" height="56" viewBox="0 0 57 56" fill="none" xmlns="http://www.w3.org/2000/svg">
<path d="M15.6667 46.6667H12.1667C9.58934 46.6667 7.5 44.5774 7.5 42.0001V9.33341C7.5 6.75609 9.58934 4.66675 12.1667 4.66675H44.8333C47.4107 4.66675 49.5 6.75609 49.5 9.33341V42.0001C49.5 44.5774 47.4107 46.6667 44.8333 46.6667H41.3333M28.5 44.3334C32.366 44.3334 35.5 41.1994 35.5 37.3334C35.5 33.4674 32.366 30.3334 28.5 30.3334C24.634 30.3334 21.5 33.4674 21.5 37.3334C21.5 41.1994 24.634 44.3334 28.5 44.3334ZM28.5 44.3334L28.55 44.3329L21.1002 51.7827L14.5006 45.1831L21.5459 38.1378M28.5 44.3334L35.9499 51.7827L42.5496 45.1831L35.5043 38.1378M21.5 14.0001H35.5M16.8333 22.1667H40.1667" stroke="#FF6652" stroke-width="3" stroke-linecap="round" stroke-linejoin="round"/>
</svg>
