<svg width="56" height="56" viewBox="0 0 56 56" fill="none" xmlns="http://www.w3.org/2000/svg">
<path d="M39.6665 33.8334V26.8204C39.6665 26.4016 39.6665 26.1922 39.6027 26.0074C39.5464 25.8439 39.4543 25.695 39.3333 25.5714C39.1965 25.4317 39.0092 25.3381 38.6346 25.1508L27.9998 19.8334M9.33317 22.1667V38.0488C9.33317 38.9166 9.33317 39.3505 9.46855 39.7304C9.58822 40.0663 9.78327 40.3702 10.0387 40.619C10.3277 40.9003 10.7221 41.0811 11.511 41.4427L26.4443 48.2871C27.0165 48.5494 27.3026 48.6805 27.6007 48.7323C27.8648 48.7781 28.1349 48.7781 28.399 48.7323C28.697 48.6805 28.9831 48.5494 29.5553 48.2871L44.4887 41.4427C45.2775 41.0811 45.672 40.9003 45.961 40.619C46.2164 40.3702 46.4115 40.0663 46.5311 39.7304C46.6665 39.3505 46.6665 38.9166 46.6665 38.0488V22.1667M4.6665 19.8334L27.165 8.58414C27.4711 8.43109 27.6242 8.35457 27.7847 8.32445C27.9269 8.29777 28.0728 8.29777 28.215 8.32445C28.3755 8.35457 28.5285 8.43109 28.8346 8.58414L51.3332 19.8334L28.8346 31.0827C28.5285 31.2357 28.3755 31.3122 28.215 31.3424C28.0728 31.369 27.9269 31.369 27.7847 31.3424C27.6242 31.3122 27.4711 31.2357 27.165 31.0827L4.6665 19.8334Z" stroke="#FF6652" stroke-width="3" stroke-linecap="round" stroke-linejoin="round"/>
</svg>
