<svg width="56" height="56" viewBox="0 0 56 56" fill="none" xmlns="http://www.w3.org/2000/svg">
<path d="M21.0001 39.6667L9.33341 51.3334M35.0001 39.6667L46.6667 51.3334M28.0001 4.66675V9.33341M28.0001 51.3334V39.6667M12.1334 39.6667H43.8667C46.4803 39.6667 47.7871 39.6667 48.7854 39.1581C49.6635 38.7107 50.3774 37.9968 50.8248 37.1187C51.3334 36.1204 51.3334 34.8137 51.3334 32.2001V16.8001C51.3334 14.1865 51.3334 12.8797 50.8248 11.8815C50.3774 11.0034 49.6635 10.2895 48.7854 9.84205C47.7871 9.33341 46.4803 9.33341 43.8667 9.33341H12.1334C9.51984 9.33341 8.21305 9.33341 7.21479 9.84205C6.3367 10.2895 5.62279 11.0034 5.17538 11.8815C4.66675 12.8797 4.66675 14.1865 4.66675 16.8001V32.2001C4.66675 34.8137 4.66675 36.1204 5.17538 37.1187C5.62279 37.9968 6.3367 38.7107 7.21479 39.1581C8.21305 39.6667 9.51984 39.6667 12.1334 39.6667Z" stroke="#FF6652" stroke-width="3" stroke-linecap="round" stroke-linejoin="round"/>
</svg>
