<svg width="32" height="32" viewBox="0 0 32 32" fill="none" xmlns="http://www.w3.org/2000/svg">
<g clip-path="url(#clip0_181_10617)">
<path d="M6.04707 10.9633C6.42382 10.492 6.67944 9.85933 6.61207 9.21277C6.06057 9.24021 5.38757 9.57664 4.99794 10.0482C4.64807 10.4521 4.33844 11.1113 4.41919 11.7307C5.03819 11.7844 5.65676 11.4213 6.04707 10.9633Z" fill="black"/>
<path d="M6.60584 11.8516C5.70677 11.798 4.94234 12.3619 4.51296 12.3619C4.0834 12.3619 3.4259 11.8786 2.71477 11.8916C1.78921 11.9052 0.9304 12.4285 0.460712 13.2609C-0.50535 14.9259 0.205775 17.3958 1.14521 18.7519C1.6014 19.4227 2.15127 20.1615 2.87571 20.1349C3.56021 20.108 3.82852 19.6917 4.66052 19.6917C5.49196 19.6917 5.73365 20.1349 6.45821 20.1215C7.20965 20.108 7.6794 19.4502 8.13559 18.7787C8.65896 18.0139 8.87321 17.2754 8.88665 17.2349C8.87315 17.2214 7.43771 16.6707 7.4244 15.0195C7.41084 13.637 8.5514 12.9793 8.60509 12.9385C7.96109 11.986 6.95471 11.8786 6.60584 11.8516Z" fill="black"/>
<path d="M14.4359 9.98047C16.39 9.98047 17.7507 11.3275 17.7507 13.2886C17.7507 15.2567 16.362 16.6107 14.3869 16.6107H12.2233V20.0514H10.6602V9.98047H14.4359ZM12.2233 15.2986H14.0169C15.3779 15.2986 16.1525 14.5658 16.1525 13.2956C16.1525 12.0255 15.3779 11.2996 14.0239 11.2996H12.2233V15.2986Z" fill="black"/>
<path d="M18.1602 17.9647C18.1602 16.6805 19.1442 15.8918 20.8892 15.7942L22.899 15.6755V15.1103C22.899 14.2937 22.3477 13.8052 21.4266 13.8052C20.554 13.8052 20.0096 14.2238 19.8772 14.88H18.4534C18.5372 13.5538 19.6677 12.5768 21.4823 12.5768C23.262 12.5768 24.3995 13.519 24.3995 14.9915V20.0514H22.9548V18.844H22.92C22.4943 19.6607 21.566 20.177 20.603 20.177C19.1652 20.177 18.1602 19.2837 18.1602 17.9647ZM22.899 17.3017V16.7225L21.0913 16.8341C20.191 16.897 19.6816 17.2948 19.6816 17.9229C19.6816 18.5649 20.212 18.9837 21.0216 18.9837C22.0754 18.9836 22.899 18.2578 22.899 17.3017Z" fill="black"/>
<path d="M25.761 22.7524V21.531C25.8725 21.5589 26.1237 21.5589 26.2494 21.5589C26.9473 21.5589 27.3242 21.2659 27.5544 20.5121C27.5544 20.4981 27.6872 20.0654 27.6872 20.0584L25.0352 12.7094H26.6681L28.5248 18.6835H28.5525L30.4092 12.7094H32.0003L29.2503 20.4352C28.6224 22.215 27.8965 22.7873 26.3751 22.7873C26.2494 22.7873 25.8725 22.7733 25.761 22.7524Z" fill="black"/>
</g>
<defs>
<clipPath id="clip0_181_10617">
<rect width="32" height="32" fill="white"/>
</clipPath>
</defs>
</svg>
