<svg width="42" height="42" viewBox="0 0 42 42" fill="none" xmlns="http://www.w3.org/2000/svg">
<path opacity="0.4" d="M3.5 19.3874C3.5875 23.4789 3.8325 30.4771 3.8675 31.2489C3.99175 32.8991 4.6235 34.5669 5.607 35.7429C6.9755 37.3931 8.66075 38.1299 11.011 38.1299C14.259 38.1474 17.8395 38.1474 21.3167 38.1474C24.808 38.1474 28.196 38.1474 31.0572 38.1299C33.3742 38.1299 35.112 37.3739 36.463 35.7429C37.4465 34.5669 38.0782 32.8816 38.1675 31.2489C38.2025 30.5996 38.3775 23.0029 38.4825 19.3874H3.5Z" fill="#9C4DF4"/>
<path d="M19.6797 26.9224V29.1869C19.6797 29.9114 20.2677 30.4994 20.9922 30.4994C21.7167 30.4994 22.3047 29.9114 22.3047 29.1869V26.9224C22.3047 26.1979 21.7167 25.6099 20.9922 25.6099C20.2677 25.6099 19.6797 26.1979 19.6797 26.9224Z" fill="#9C4DF4"/>
<path fill-rule="evenodd" clip-rule="evenodd" d="M17.8692 25.4737C17.6943 26.109 17.0835 26.515 16.422 26.4275C11.9577 25.8045 7.69125 24.2207 4.08975 21.8425C3.7205 21.601 3.5 21.188 3.5 20.747V14.6815C3.5 11.0065 6.496 8.01745 10.1797 8.01745H13.622C13.951 5.47645 16.1035 3.5007 18.732 3.5007H23.2505C25.8772 3.5007 28.0315 5.47645 28.3605 8.01745H31.8202C35.4935 8.01745 38.4825 11.0065 38.4825 14.6815V20.747C38.4825 21.188 38.2602 21.5992 37.8945 21.8425C34.286 24.2312 30.002 25.822 25.508 26.4432C25.4467 26.452 25.3872 26.4555 25.3277 26.4555C24.7345 26.4555 24.2042 26.0547 24.0555 25.4667C23.702 24.0737 22.4367 23.099 20.9825 23.099C19.509 23.099 18.2577 24.0527 17.8692 25.4737ZM23.2505 6.1257H18.732C17.5543 6.1257 16.5708 6.9307 16.2768 8.01745H25.704C25.41 6.9307 24.4265 6.1257 23.2505 6.1257Z" fill="#9C4DF4"/>
</svg>
