<svg width="36" height="36" viewBox="0 0 36 36" fill="none" xmlns="http://www.w3.org/2000/svg">
<path d="M18 29.6719C21.3008 29.6719 23.9766 26.9961 23.9766 23.6953C23.9766 20.3945 21.3008 17.7188 18 17.7188C14.6992 17.7188 12.0234 20.3945 12.0234 23.6953C12.0234 26.9961 14.6992 29.6719 18 29.6719Z" fill="url(#paint0_linear_341_8316)"/>
<path d="M18 11.3906C11.2152 11.3906 5.69531 16.9105 5.69531 23.6953C5.69531 30.4801 11.2152 36 18 36C24.7848 36 30.3047 30.4801 30.3047 23.6953C30.3047 16.9105 24.7848 11.3906 18 11.3906ZM18 31.7812C13.5414 31.7812 9.91406 28.1539 9.91406 23.6953C9.91406 19.2367 13.5414 15.6094 18 15.6094C22.4586 15.6094 26.0859 19.2367 26.0859 23.6953C26.0859 28.1539 22.4586 31.7812 18 31.7812Z" fill="url(#paint1_linear_341_8316)"/>
<path d="M11.2725 4.02722C11.5073 4.96624 12.351 5.625 13.3189 5.625H22.6812C23.6491 5.625 24.4929 4.96624 24.7276 4.02722L25.0792 2.62097C25.4121 1.28967 24.4051 0 23.0329 0H12.9673C11.595 0 10.5881 1.28967 10.921 2.62097L11.2725 4.02722Z" fill="url(#paint2_linear_341_8316)"/>
<path d="M32.1328 11.3906H25.5C29.6432 13.9254 32.414 18.4927 32.414 23.6953C32.414 28.0439 30.4784 31.9487 27.4235 34.5938H32.1328C34.2652 34.5938 36 32.8589 36 30.7266V15.2578C36 13.1254 34.2652 11.3906 32.1328 11.3906Z" fill="url(#paint3_linear_341_8316)"/>
<path d="M8.85938 8.57812C8.85938 7.80145 8.2298 7.17188 7.45312 7.17188H6.04688C5.2702 7.17188 4.64062 7.80145 4.64062 8.57812V9.28125H8.85938V8.57812Z" fill="url(#paint4_linear_341_8316)"/>
<path d="M18 9.28125C19.5968 9.28125 21.1335 9.54274 22.5703 10.0243V7.73438H13.4297V10.0243C14.8665 9.54274 16.4032 9.28125 18 9.28125Z" fill="url(#paint5_linear_341_8316)"/>
<path d="M3.58594 23.6953C3.58594 18.4927 6.35674 13.9254 10.5 11.3906H3.86719C1.73482 11.3906 0 13.1254 0 15.2578V30.7266C0 32.8589 1.73482 34.5938 3.86719 34.5938H8.57644C5.52157 31.9487 3.58594 28.0439 3.58594 23.6953ZM3.23438 14.9062C3.23438 14.3238 3.70659 13.8516 4.28906 13.8516C4.87153 13.8516 5.34375 14.3238 5.34375 14.9062C5.34375 15.4887 4.87153 15.9609 4.28906 15.9609C3.70659 15.9609 3.23438 15.4887 3.23438 14.9062Z" fill="url(#paint6_linear_341_8316)"/>
<defs>
<linearGradient id="paint0_linear_341_8316" x1="15.5335" y1="17.7187" x2="21.0357" y2="29.6719" gradientUnits="userSpaceOnUse">
<stop stop-color="#FFA093"/>
<stop offset="1" stop-color="#FF6652"/>
</linearGradient>
<linearGradient id="paint1_linear_341_8316" x1="12.9219" y1="11.3906" x2="24.25" y2="36" gradientUnits="userSpaceOnUse">
<stop stop-color="#FFA093"/>
<stop offset="1" stop-color="#FF6652"/>
</linearGradient>
<linearGradient id="paint2_linear_341_8316" x1="15.0521" y1="-1.1291e-07" x2="16.2483" y2="6.60009" gradientUnits="userSpaceOnUse">
<stop stop-color="#FFA093"/>
<stop offset="1" stop-color="#FF6652"/>
</linearGradient>
<linearGradient id="paint3_linear_341_8316" x1="28.5833" y1="11.3906" x2="42.6411" y2="25.2104" gradientUnits="userSpaceOnUse">
<stop stop-color="#FFA093"/>
<stop offset="1" stop-color="#FF6652"/>
</linearGradient>
<linearGradient id="paint4_linear_341_8316" x1="5.87946" y1="7.17187" x2="6.43823" y2="9.59961" gradientUnits="userSpaceOnUse">
<stop stop-color="#FFA093"/>
<stop offset="1" stop-color="#FF6652"/>
</linearGradient>
<linearGradient id="paint5_linear_341_8316" x1="16.1138" y1="7.73437" x2="16.4297" y2="10.4731" gradientUnits="userSpaceOnUse">
<stop stop-color="#FFA093"/>
<stop offset="1" stop-color="#FF6652"/>
</linearGradient>
<linearGradient id="paint6_linear_341_8316" x1="3.08333" y1="11.3906" x2="17.1411" y2="25.2104" gradientUnits="userSpaceOnUse">
<stop stop-color="#FFA093"/>
<stop offset="1" stop-color="#FF6652"/>
</linearGradient>
</defs>
</svg>
