<svg width="36" height="36" viewBox="0 0 36 36" fill="none" xmlns="http://www.w3.org/2000/svg">
<path d="M24.3984 12.7969C18.0013 12.7969 12.7969 18.0013 12.7969 24.3984C12.7969 30.7955 18.0013 36 24.3984 36C30.7955 36 36 30.7955 36 24.3984C36 18.0013 30.7955 12.7969 24.3984 12.7969ZM24.3984 23.3438C26.1432 23.3438 27.5625 24.7631 27.5625 26.5078C27.5625 27.881 26.6781 29.0408 25.4531 29.4776V31.7812H23.3438V29.4776C22.1188 29.0408 21.2344 27.881 21.2344 26.5078H23.3438C23.3438 27.0897 23.8165 27.5625 24.3984 27.5625C24.9803 27.5625 25.4531 27.0897 25.4531 26.5078C25.4531 25.9259 24.9803 25.4531 24.3984 25.4531C22.6537 25.4531 21.2344 24.0338 21.2344 22.2891C21.2344 20.9159 22.1188 19.7561 23.3438 19.3193V17.0156H25.4531V19.3193C26.6781 19.7561 27.5625 20.9159 27.5625 22.2891H25.4531C25.4531 21.7072 24.9803 21.2344 24.3984 21.2344C23.8165 21.2344 23.3438 21.7072 23.3438 22.2891C23.3438 22.871 23.8165 23.3438 24.3984 23.3438Z" fill="url(#paint0_linear_341_8341)"/>
<path d="M11.7422 12.7969C18.2475 12.7969 23.3438 10.017 23.3438 6.46875C23.3438 2.9205 18.2475 0 11.7422 0C5.23688 0 0 2.9205 0 6.46875C0 10.017 5.23688 12.7969 11.7422 12.7969Z" fill="url(#paint1_linear_341_8341)"/>
<path d="M0 23.7346V25.4531C0 29.0014 5.23688 31.7813 11.7422 31.7813C12.1112 31.7813 12.4687 31.7473 12.832 31.7295C12.023 30.4575 11.4197 29.046 11.0644 27.5371C6.36012 27.4073 2.27545 25.9617 0 23.7346Z" fill="url(#paint2_linear_341_8341)"/>
<path d="M10.7382 25.3994C10.714 25.0677 10.6875 24.7363 10.6875 24.3984C10.6875 23.299 10.8316 22.2349 11.0772 21.2096C6.36715 21.0819 2.27749 19.6356 0 17.4065V19.125C0 22.485 4.72936 25.1256 10.7382 25.3994Z" fill="url(#paint3_linear_341_8341)"/>
<path d="M11.7422 19.125C11.7433 19.125 11.7442 19.1249 11.7454 19.1249C12.441 17.4624 13.4522 15.9638 14.7079 14.7081C13.7554 14.8285 12.771 14.9063 11.7422 14.9063C6.73474 14.9063 2.38542 13.413 0 11.0784V12.7969C0 16.3451 5.23688 19.125 11.7422 19.125Z" fill="url(#paint4_linear_341_8341)"/>
<defs>
<linearGradient id="paint0_linear_341_8341" x1="19.6105" y1="12.7969" x2="30.2913" y2="36" gradientUnits="userSpaceOnUse">
<stop stop-color="#FFA093"/>
<stop offset="1" stop-color="#FF6652"/>
</linearGradient>
<linearGradient id="paint1_linear_341_8341" x1="6.85491" y1="-2.56869e-07" x2="10.5341" y2="14.58" gradientUnits="userSpaceOnUse">
<stop stop-color="#FFA093"/>
<stop offset="1" stop-color="#FF6652"/>
</linearGradient>
<linearGradient id="paint2_linear_341_8341" x1="3.76814" y1="23.7346" x2="6.36649" y2="32.7362" gradientUnits="userSpaceOnUse">
<stop stop-color="#FFA093"/>
<stop offset="1" stop-color="#FF6652"/>
</linearGradient>
<linearGradient id="paint3_linear_341_8341" x1="3.25284" y1="17.4065" x2="6.15053" y2="26.1306" gradientUnits="userSpaceOnUse">
<stop stop-color="#FFA093"/>
<stop offset="1" stop-color="#FF6652"/>
</linearGradient>
<linearGradient id="paint4_linear_341_8341" x1="4.31899" y1="11.0784" x2="6.62836" y2="20.2484" gradientUnits="userSpaceOnUse">
<stop stop-color="#FFA093"/>
<stop offset="1" stop-color="#FF6652"/>
</linearGradient>
</defs>
</svg>
