<svg width="38" height="36" viewBox="0 0 38 36" fill="none" xmlns="http://www.w3.org/2000/svg">
<path d="M34.2222 19.7252C33.8208 20.1089 33.4135 20.4749 33.0062 20.835V29.5598C33.0062 31.2362 31.6485 32.5881 29.9779 32.5881H22.7212L17.4976 24.2179C17.0879 23.5692 16.1491 23.5692 15.7394 24.2179L14.1571 26.7477C13.9454 27.0861 13.4518 27.0836 13.2435 26.743L10.2141 21.7881C9.80446 21.1337 8.84846 21.1337 8.45017 21.7881L3.44328 29.9528C3.42575 29.8237 3.41394 29.6889 3.41394 29.5598V14.926C3.41394 13.2554 4.76575 11.8977 6.44223 11.8977H29.9779C30.4619 11.8977 30.9165 12.0098 31.3179 12.2105C32.894 10.8174 34.7476 9.58957 36.3946 9.58957H36.4182V8.53882H0.00195312V30.4747C0.00195312 33.5266 2.47535 36 5.53316 36H30.887C33.9389 36 36.4182 33.5266 36.4182 30.4747V17.3758C36.247 17.5883 36.0581 17.8067 35.8574 18.031L34.2222 19.7252Z" fill="url(#paint0_linear_341_8325)"/>
<path d="M26.3291 7.35692H36.4178V5.53032C36.4178 2.476 33.9418 0 30.8874 0H5.53032C2.47606 0 0 2.47594 0 5.53032V7.35686H21.8014H26.3291V7.35692ZM5.52766 5.20346C4.68553 5.20346 4.00266 4.52065 4.00266 3.67846C4.00266 2.83632 4.68547 2.15345 5.52766 2.15345C6.36986 2.15345 7.05267 2.83632 7.05267 3.67846C7.05261 4.52065 6.36986 5.20346 5.52766 5.20346ZM10.9217 5.20346C10.0796 5.20346 9.39679 4.52065 9.39679 3.67846C9.39679 2.83632 10.0796 2.15345 10.9217 2.15345C11.7639 2.15345 12.4467 2.83632 12.4467 3.67846C12.4467 4.52065 11.7639 5.20346 10.9217 5.20346ZM16.3159 5.20346C15.4737 5.20346 14.7909 4.52065 14.7909 3.67846C14.7909 2.83632 15.4737 2.15345 16.3159 2.15345C17.1581 2.15345 17.8409 2.83632 17.8409 3.67846C17.8409 4.52065 17.1581 5.20346 16.3159 5.20346Z" fill="url(#paint1_linear_341_8325)"/>
<path d="M27.8408 17.8834C26.9495 19.1231 26.2352 20.3273 25.8279 21.2954L25.8338 21.3013C24.6532 20.953 23.2837 21.502 22.717 23.7334C22.4454 24.8078 21.8728 25.3449 21.3297 25.6106C20.9283 25.8054 20.9047 26.3721 21.3061 26.5669C22.717 27.2635 25.0841 27.9836 26.9141 26.2953C27.8113 25.4748 27.9471 23.9105 27.6992 23.0899C28.6555 22.6472 29.8243 21.8798 31.0226 20.9412L27.8408 17.8834Z" fill="url(#paint2_linear_341_8325)"/>
<path d="M30.6685 14.4832C29.9247 15.2565 29.2046 16.0947 28.5493 16.933L31.9495 20.1915C32.4277 19.7783 32.9058 19.3474 33.3721 18.9046L34.9778 17.2459C37.6578 14.2412 38.313 12.0157 37.3804 11.1243C36.3768 10.1621 33.9034 11.1066 30.6685 14.4832Z" fill="url(#paint3_linear_341_8325)"/>
<path d="M13.4072 18.2849C13.4072 19.2827 14.2136 20.089 15.2114 20.089C16.2091 20.089 17.0156 19.2827 17.0156 18.2849C17.0156 17.2871 16.2092 16.4807 15.2114 16.4807C14.2136 16.4807 13.4072 17.2871 13.4072 18.2849Z" fill="url(#paint4_linear_341_8325)"/>
<defs>
<linearGradient id="paint0_linear_341_8325" x1="10.6956" y1="8.53882" x2="21.0056" y2="38.24" gradientUnits="userSpaceOnUse">
<stop stop-color="#FFA093"/>
<stop offset="1" stop-color="#FF6652"/>
</linearGradient>
<linearGradient id="paint1_linear_341_8325" x1="10.6941" y1="-1.47674e-07" x2="11.5161" y2="8.83935" gradientUnits="userSpaceOnUse">
<stop stop-color="#FFA093"/>
<stop offset="1" stop-color="#FF6652"/>
</linearGradient>
<linearGradient id="paint2_linear_341_8325" x1="23.9549" y1="17.8834" x2="28.142" y2="27.5152" gradientUnits="userSpaceOnUse">
<stop stop-color="#FFA093"/>
<stop offset="1" stop-color="#FF6652"/>
</linearGradient>
<linearGradient id="paint3_linear_341_8325" x1="31.2601" y1="10.7682" x2="35.6557" y2="20.1228" gradientUnits="userSpaceOnUse">
<stop stop-color="#FFA093"/>
<stop offset="1" stop-color="#FF6652"/>
</linearGradient>
<linearGradient id="paint4_linear_341_8325" x1="14.4668" y1="16.4807" x2="16.1278" y2="20.089" gradientUnits="userSpaceOnUse">
<stop stop-color="#FFA093"/>
<stop offset="1" stop-color="#FF6652"/>
</linearGradient>
</defs>
</svg>
