<svg width="36" height="36" viewBox="0 0 36 36" fill="none" xmlns="http://www.w3.org/2000/svg">
<path d="M30.8574 10.2857H28.9C28.7644 9.90339 28.6087 9.5286 28.4354 9.16323L29.8191 7.77895C30.0601 7.53788 30.1957 7.2108 30.1957 6.86991C30.1957 6.52902 30.0601 6.20194 29.8191 5.96087L26.1829 2.32408C25.6807 1.82185 24.867 1.82185 24.3648 2.32408L22.9799 3.70773C22.6145 3.53383 22.2404 3.37877 21.8574 3.24316V1.28571C21.8574 0.575684 21.2824 0 20.5717 0H15.4289C14.7188 0 14.1431 0.575684 14.1431 1.28571V3.24316C13.7602 3.37877 13.386 3.53383 13.0206 3.70773L11.6364 2.32408C11.1341 1.82185 10.3205 1.82185 9.81829 2.32408L6.1815 5.96087C5.67927 6.4631 5.67927 7.27672 6.1815 7.77895L7.56515 9.16323C7.39125 9.5286 7.23619 9.90276 7.10059 10.2857H5.14314C4.43311 10.2857 3.85742 10.8614 3.85742 11.5714V15.4286H11.7013C11.6169 15.0131 11.5717 14.5833 11.5717 14.1429C11.5717 10.5925 14.4499 7.71429 18.0003 7.71429C21.5507 7.71429 24.4289 10.5925 24.4289 14.1429C24.4289 14.5833 24.3836 15.0131 24.2993 15.4286H32.1431V11.5714C32.1431 10.8614 31.5681 10.2857 30.8574 10.2857Z" fill="url(#paint0_linear_341_8169)"/>
<path d="M23.1431 14.1429C23.1431 11.3025 20.8406 9 18.0003 9C15.1599 9 12.8574 11.3025 12.8574 14.1429C12.8574 14.5895 12.9322 15.0153 13.0392 15.4286H22.9613C23.0684 15.0153 23.1431 14.5895 23.1431 14.1429Z" fill="url(#paint1_linear_341_8169)"/>
<path d="M14.1429 27V32.1429C14.1429 32.8529 13.5673 33.4286 12.8571 33.4286H5.14286C4.43275 33.4286 3.85714 32.8529 3.85714 32.1429V27H0V33.4286C0 34.8487 1.15129 36 2.57143 36H33.4286C34.8487 36 36 34.8487 36 33.4286V27H14.1429ZM21.2143 33.4286C20.1492 33.4286 19.2857 32.5651 19.2857 31.5C19.2857 30.4349 20.1492 29.5714 21.2143 29.5714C22.2794 29.5714 23.1429 30.4349 23.1429 31.5C23.1429 32.5651 22.2794 33.4286 21.2143 33.4286ZM26.3571 33.4286C25.292 33.4286 24.4286 32.5651 24.4286 31.5C24.4286 30.4349 25.292 29.5714 26.3571 29.5714C27.4223 29.5714 28.2857 30.4349 28.2857 31.5C28.2857 32.5651 27.4223 33.4286 26.3571 33.4286ZM31.5 33.4286C30.4349 33.4286 29.5714 32.5651 29.5714 31.5C29.5714 30.4349 30.4349 29.5714 31.5 29.5714C32.5651 29.5714 33.4286 30.4349 33.4286 31.5C33.4286 32.5651 32.5651 33.4286 31.5 33.4286Z" fill="url(#paint2_linear_341_8169)"/>
<path d="M33.4286 16.7144H2.57143C1.15129 16.7144 0 17.8656 0 19.2858V25.7144H3.85714V23.1429H6.42857C7.13868 23.1429 7.71429 22.5672 7.71429 21.8572V19.2858H12.8571C13.5673 19.2858 14.1429 19.8614 14.1429 20.5715V25.7144H36V19.2858C36 17.8656 34.8487 16.7144 33.4286 16.7144ZM6.42857 21.8572H3.85714L6.42857 19.2858V21.8572ZM21.2143 23.1429C20.1492 23.1429 19.2857 22.2795 19.2857 21.2144C19.2857 20.1492 20.1492 19.2858 21.2143 19.2858C22.2794 19.2858 23.1429 20.1492 23.1429 21.2144C23.1429 22.2795 22.2794 23.1429 21.2143 23.1429ZM26.3571 23.1429C25.292 23.1429 24.4286 22.2795 24.4286 21.2144C24.4286 20.1492 25.292 19.2858 26.3571 19.2858C27.4223 19.2858 28.2857 20.1492 28.2857 21.2144C28.2857 22.2795 27.4223 23.1429 26.3571 23.1429ZM31.5 23.1429C30.4349 23.1429 29.5714 22.2795 29.5714 21.2144C29.5714 20.1492 30.4349 19.2858 31.5 19.2858C32.5651 19.2858 33.4286 20.1492 33.4286 21.2144C33.4286 22.2795 32.5651 23.1429 31.5 23.1429Z" fill="url(#paint3_linear_341_8169)"/>
<path d="M12.214 25.7143H5.78544C5.43011 25.7143 5.14258 25.4268 5.14258 25.0714C5.14258 24.7161 5.43011 24.4286 5.78544 24.4286H12.214C12.5693 24.4286 12.8569 24.7161 12.8569 25.0714C12.8569 25.4268 12.5693 25.7143 12.214 25.7143Z" fill="url(#paint4_linear_341_8169)"/>
<path d="M12.214 28.2857H5.78544C5.43011 28.2857 5.14258 27.9982 5.14258 27.6429C5.14258 27.2875 5.43011 27 5.78544 27H12.214C12.5693 27 12.8569 27.2875 12.8569 27.6429C12.8569 27.9982 12.5693 28.2857 12.214 28.2857Z" fill="url(#paint5_linear_341_8169)"/>
<path d="M12.214 30.8571H5.78544C5.43011 30.8571 5.14258 30.5696 5.14258 30.2143C5.14258 29.8589 5.43011 29.5714 5.78544 29.5714H12.214C12.5693 29.5714 12.8569 29.8589 12.8569 30.2143C12.8569 30.5696 12.5693 30.8571 12.214 30.8571Z" fill="url(#paint6_linear_341_8169)"/>
<defs>
<linearGradient id="paint0_linear_341_8169" x1="12.1635" y1="-3.09695e-07" x2="16.5798" y2="17.5889" gradientUnits="userSpaceOnUse">
<stop stop-color="#FFA093"/>
<stop offset="1" stop-color="#FF6652"/>
</linearGradient>
<linearGradient id="paint1_linear_341_8169" x1="15.8778" y1="9" x2="17.9479" y2="16.1952" gradientUnits="userSpaceOnUse">
<stop stop-color="#FFA093"/>
<stop offset="1" stop-color="#FF6652"/>
</linearGradient>
<linearGradient id="paint2_linear_341_8169" x1="10.5714" y1="27" x2="11.8102" y2="37.7645" gradientUnits="userSpaceOnUse">
<stop stop-color="#FFA093"/>
<stop offset="1" stop-color="#FF6652"/>
</linearGradient>
<linearGradient id="paint3_linear_341_8169" x1="10.5714" y1="16.7144" x2="11.8102" y2="27.4788" gradientUnits="userSpaceOnUse">
<stop stop-color="#FFA093"/>
<stop offset="1" stop-color="#FF6652"/>
</linearGradient>
<linearGradient id="paint4_linear_341_8169" x1="7.40788" y1="24.4286" x2="7.52673" y2="25.9776" gradientUnits="userSpaceOnUse">
<stop stop-color="#FFA093"/>
<stop offset="1" stop-color="#FF6652"/>
</linearGradient>
<linearGradient id="paint5_linear_341_8169" x1="7.40788" y1="27" x2="7.52673" y2="28.549" gradientUnits="userSpaceOnUse">
<stop stop-color="#FFA093"/>
<stop offset="1" stop-color="#FF6652"/>
</linearGradient>
<linearGradient id="paint6_linear_341_8169" x1="7.40788" y1="29.5714" x2="7.52673" y2="31.1204" gradientUnits="userSpaceOnUse">
<stop stop-color="#FFA093"/>
<stop offset="1" stop-color="#FF6652"/>
</linearGradient>
</defs>
</svg>
