<svg width="36" height="36" viewBox="0 0 36 36" fill="none" xmlns="http://www.w3.org/2000/svg">
<path d="M9.74478 12.4137C9.5257 12.4132 9.31188 12.4808 9.133 12.6073C8.95411 12.7338 8.81903 12.9128 8.74651 13.1196C8.67398 13.3263 8.6676 13.5505 8.72826 13.761C8.78891 13.9715 8.91359 14.1579 9.08499 14.2944L10.2097 15.1944C10.0464 14.2761 9.95635 13.3463 9.9403 12.4137H9.74478Z" fill="url(#paint0_linear_341_8303)"/>
<path d="M0 33.5173V36H3.72414V27.4382C2.60444 28.0111 1.6644 28.8817 1.00737 29.9541C0.350346 31.0266 0.00177981 32.2595 0 33.5173Z" fill="url(#paint1_linear_341_8303)"/>
<path d="M8.95391 3.88924C9.11815 4.23905 9.20843 4.61899 9.21911 5.00529C9.22979 5.39158 9.16064 5.77593 9.01598 6.13428C8.93273 6.3431 8.89451 6.56715 8.90381 6.79177C8.91312 7.01638 8.96974 7.2365 9.06998 7.43772L10.1034 9.504C10.1349 9.46956 10.1703 9.43894 10.2089 9.41276L14.3595 6.64572C15.3966 5.95364 16.6158 5.5849 17.8627 5.58621C19.0155 5.58454 20.1338 5.19224 21.035 4.47331L22.5774 3.23876C22.6448 3.18531 22.7224 3.14632 22.8055 3.12422C22.8886 3.10211 22.9753 3.09736 23.0603 3.11028C23.1453 3.12349 23.2265 3.15421 23.299 3.20047C23.3714 3.24674 23.4334 3.30754 23.4811 3.37904L24.9218 5.53966C25.5011 6.40957 25.8723 7.40118 26.0067 8.43766L26.5467 6.95359C26.8315 6.17072 26.9233 5.33074 26.8145 4.50484C26.7056 3.67893 26.3992 2.89145 25.9213 2.20913C25.4434 1.52681 24.808 0.969766 24.069 0.585206C23.33 0.200645 22.5092 -9.40343e-05 21.6762 8.56307e-07H16.4071C13.157 -0.000955467 9.95669 0.799119 7.08936 2.32945L7.27556 2.39152C7.64341 2.51206 7.98237 2.70733 8.27119 2.96506C8.56 3.22279 8.79244 3.53743 8.95391 3.88924Z" fill="url(#paint2_linear_341_8303)"/>
<path d="M15.5169 14.8965C15.6815 14.8965 15.8393 14.8311 15.9557 14.7147C16.0722 14.5983 16.1375 14.4404 16.1375 14.2758V12.4137H13.6548V14.2758C13.6548 14.4404 13.7202 14.5983 13.8366 14.7147C13.953 14.8311 14.1109 14.8965 14.2755 14.8965H15.5169Z" fill="url(#paint3_linear_341_8303)"/>
<path d="M21.7244 14.8965C21.889 14.8965 22.0469 14.8311 22.1633 14.7147C22.2797 14.5983 22.3451 14.4404 22.3451 14.2758V12.4137H19.8623V14.2758C19.8623 14.4404 19.9277 14.5983 20.0441 14.7147C20.1605 14.8311 20.3184 14.8965 20.483 14.8965H21.7244Z" fill="url(#paint4_linear_341_8303)"/>
<path d="M24.8275 9.32712C24.8288 8.22419 24.5024 7.14574 23.8897 6.22864L22.8246 4.63098L21.811 5.44284C20.6895 6.33779 19.2976 6.82596 17.8628 6.8276C16.8604 6.82654 15.8803 7.12314 15.0467 7.67981L11.1724 10.2631V11.1724H16.7586C16.9232 11.1724 17.0811 11.2378 17.1975 11.3542C17.3139 11.4706 17.3793 11.6285 17.3793 11.7931V12.4138H18.6206V11.7931C18.6206 11.6285 18.686 11.4706 18.8024 11.3542C18.9188 11.2378 19.0767 11.1724 19.2413 11.1724H24.8275V9.32712Z" fill="url(#paint5_linear_341_8303)"/>
<path d="M11.1816 12.4137C11.2303 15.2585 12.0246 18.0408 13.485 20.4827H22.5142C23.9744 18.0408 24.7685 15.2585 24.817 12.4137H23.5861V14.2758C23.5861 14.7696 23.3899 15.2432 23.0407 15.5924C22.6915 15.9417 22.2179 16.1378 21.7241 16.1378H20.4827C19.9888 16.1378 19.5152 15.9417 19.166 15.5924C18.8168 15.2432 18.6206 14.7696 18.6206 14.2758V13.6551H17.3792V14.2758C17.3792 14.7696 17.183 15.2432 16.8338 15.5924C16.4846 15.9417 16.011 16.1378 15.5172 16.1378H14.2758C13.7819 16.1378 13.3083 15.9417 12.9591 15.5924C12.6099 15.2432 12.4137 14.7696 12.4137 14.2758V12.4137H11.1816Z" fill="url(#paint6_linear_341_8303)"/>
<path d="M32.2764 27.4382V36H36.0005V33.5173C35.9987 32.2595 35.6501 31.0267 34.993 29.9542C34.336 28.8817 33.396 28.0112 32.2764 27.4382Z" fill="url(#paint7_linear_341_8303)"/>
<path d="M29.1722 21.7241H6.8274C6.33355 21.7241 5.85992 21.9203 5.51072 22.2695C5.16151 22.6187 4.96533 23.0923 4.96533 23.5862V36H31.0343V23.5862C31.0343 23.0923 30.8381 22.6187 30.4889 22.2695C30.1397 21.9203 29.6661 21.7241 29.1722 21.7241ZM19.3653 22.5931L20.3584 23.3379L16.6343 28.3034L15.6412 27.5586L19.3653 22.5931ZM14.7151 27.4922L13.8368 28.3705L11.3541 25.8877C11.2964 25.8301 11.2506 25.7616 11.2194 25.6863C11.1881 25.6109 11.1721 25.5301 11.1721 25.4486C11.1721 25.367 11.1881 25.2862 11.2194 25.2109C11.2506 25.1355 11.2964 25.0671 11.3541 25.0094L13.8368 22.5267L14.7151 23.4049L12.6706 25.4483L14.7151 27.4922ZM17.9998 34.1379C17.5088 34.1379 17.0288 33.9923 16.6205 33.7195C16.2122 33.4467 15.894 33.0589 15.706 32.6053C15.5181 32.1516 15.469 31.6524 15.5648 31.1708C15.6606 30.6892 15.897 30.2468 16.2442 29.8996C16.5915 29.5524 17.0338 29.3159 17.5155 29.2201C17.9971 29.1243 18.4963 29.1735 18.9499 29.3614C19.4036 29.5493 19.7913 29.8675 20.0642 30.2758C20.337 30.6841 20.4826 31.1641 20.4826 31.6552C20.4826 32.3136 20.221 32.9451 19.7554 33.4107C19.2898 33.8763 18.6583 34.1379 17.9998 34.1379ZM24.6455 25.8871L22.1628 28.3698L21.2845 27.4916L23.3284 25.4483L21.2845 23.4043L22.1628 22.5261L24.6455 25.0088C24.7032 25.0665 24.749 25.1349 24.7803 25.2103C24.8115 25.2856 24.8276 25.3664 24.8276 25.4479C24.8276 25.5295 24.8115 25.6103 24.7803 25.6856C24.749 25.761 24.7032 25.8294 24.6455 25.8871Z" fill="url(#paint8_linear_341_8303)"/>
<path d="M18.0002 30.4137C17.7546 30.4137 17.5146 30.4865 17.3105 30.6229C17.1064 30.7593 16.9472 30.9532 16.8533 31.18C16.7593 31.4069 16.7347 31.6565 16.7826 31.8973C16.8305 32.1381 16.9488 32.3593 17.1224 32.5329C17.296 32.7065 17.5172 32.8247 17.758 32.8726C17.9988 32.9205 18.2484 32.8959 18.4752 32.802C18.7021 32.708 18.8959 32.5489 19.0323 32.3447C19.1687 32.1406 19.2415 31.9006 19.2415 31.6551C19.2415 31.3258 19.1108 31.0101 18.878 30.7773C18.6452 30.5445 18.3294 30.4137 18.0002 30.4137Z" fill="url(#paint9_linear_341_8303)"/>
<path d="M26.0581 12.4137C26.0424 13.3463 25.9522 14.2762 25.7881 15.1944L26.9134 14.2944C27.0847 14.158 27.2094 13.9717 27.27 13.7613C27.3307 13.5509 27.3245 13.3268 27.2521 13.1201C27.1797 12.9135 27.0448 12.7344 26.8661 12.6079C26.6875 12.4813 26.4738 12.4134 26.2548 12.4137H26.0581Z" fill="url(#paint10_linear_341_8303)"/>
<defs>
<linearGradient id="paint0_linear_341_8303" x1="9.13414" y1="12.4137" x2="10.794" y2="14.3883" gradientUnits="userSpaceOnUse">
<stop stop-color="#FFA093"/>
<stop offset="1" stop-color="#FF6652"/>
</linearGradient>
<linearGradient id="paint1_linear_341_8303" x1="1.0936" y1="27.4382" x2="6.27327" y2="32.3327" gradientUnits="userSpaceOnUse">
<stop stop-color="#FFA093"/>
<stop offset="1" stop-color="#FF6652"/>
</linearGradient>
<linearGradient id="paint2_linear_341_8303" x1="12.8947" y1="-1.90772e-07" x2="15.3245" y2="10.9801" gradientUnits="userSpaceOnUse">
<stop stop-color="#FFA093"/>
<stop offset="1" stop-color="#FF6652"/>
</linearGradient>
<linearGradient id="paint3_linear_341_8303" x1="14.3838" y1="12.4137" x2="15.5267" y2="14.8965" gradientUnits="userSpaceOnUse">
<stop stop-color="#FFA093"/>
<stop offset="1" stop-color="#FF6652"/>
</linearGradient>
<linearGradient id="paint4_linear_341_8303" x1="20.5914" y1="12.4137" x2="21.7342" y2="14.8965" gradientUnits="userSpaceOnUse">
<stop stop-color="#FFA093"/>
<stop offset="1" stop-color="#FF6652"/>
</linearGradient>
<linearGradient id="paint5_linear_341_8303" x1="15.1822" y1="4.63098" x2="17.4974" y2="13.4555" gradientUnits="userSpaceOnUse">
<stop stop-color="#FFA093"/>
<stop offset="1" stop-color="#FF6652"/>
</linearGradient>
<linearGradient id="paint6_linear_341_8303" x1="15.1857" y1="12.4137" x2="17.6654" y2="21.5169" gradientUnits="userSpaceOnUse">
<stop stop-color="#FFA093"/>
<stop offset="1" stop-color="#FF6652"/>
</linearGradient>
<linearGradient id="paint7_linear_341_8303" x1="33.37" y1="27.4382" x2="38.5496" y2="32.3327" gradientUnits="userSpaceOnUse">
<stop stop-color="#FFA093"/>
<stop offset="1" stop-color="#FF6652"/>
</linearGradient>
<linearGradient id="paint8_linear_341_8303" x1="12.6205" y1="21.7241" x2="16.7211" y2="37.9913" gradientUnits="userSpaceOnUse">
<stop stop-color="#FFA093"/>
<stop offset="1" stop-color="#FF6652"/>
</linearGradient>
<linearGradient id="paint9_linear_341_8303" x1="17.4879" y1="30.4137" x2="18.6307" y2="32.8965" gradientUnits="userSpaceOnUse">
<stop stop-color="#FFA093"/>
<stop offset="1" stop-color="#FF6652"/>
</linearGradient>
<linearGradient id="paint10_linear_341_8303" x1="26.2354" y1="12.4137" x2="27.8952" y2="14.3889" gradientUnits="userSpaceOnUse">
<stop stop-color="#FFA093"/>
<stop offset="1" stop-color="#FF6652"/>
</linearGradient>
</defs>
</svg>
