<svg width="38" height="36" viewBox="0 0 38 36" fill="none" xmlns="http://www.w3.org/2000/svg">
<path d="M25.0538 34.4345C25.0538 34.1249 25.1456 33.8222 25.3176 33.5648C25.4896 33.3073 25.7341 33.1067 26.0202 32.9882C26.3063 32.8697 26.621 32.8387 26.9247 32.8991C27.2284 32.9595 27.5073 33.1086 27.7263 33.3275C27.9452 33.5465 28.0943 33.8254 28.1547 34.1291C28.2151 34.4328 28.1841 34.7475 28.0656 35.0336C27.9471 35.3196 27.7465 35.5641 27.489 35.7362C27.2316 35.9082 26.9289 36 26.6193 36C26.2041 36 25.8059 35.8351 25.5123 35.5415C25.2187 35.2479 25.0538 34.8497 25.0538 34.4345ZM32.1533 31.1125C32.4468 30.8189 32.6117 30.4208 32.6117 30.0057C32.6117 29.5906 32.4468 29.1925 32.1533 28.8989C30.6855 27.4315 28.6949 26.6071 26.6193 26.6071C24.5437 26.6071 22.5531 27.4315 21.0853 28.8989C20.8001 29.1942 20.6423 29.5896 20.6459 30.0001C20.6494 30.4105 20.8141 30.8032 21.1043 31.0934C21.3946 31.3837 21.7872 31.5483 22.1977 31.5519C22.6082 31.5555 23.0036 31.3977 23.2989 31.1125C24.1938 30.2594 25.3828 29.7835 26.6193 29.7835C27.8557 29.7835 29.0447 30.2594 29.9397 31.1125C30.2333 31.406 30.6314 31.5709 31.0465 31.5709C31.4616 31.5709 31.8598 31.406 32.1533 31.1125ZM36.5821 26.6853C36.8756 26.3917 37.0405 25.9936 37.0405 25.5785C37.0405 25.1634 36.8756 24.7652 36.5821 24.4717C33.9378 21.8332 30.3548 20.3514 26.6193 20.3514C22.8838 20.3514 19.3008 21.8332 16.6565 24.4717C16.3713 24.7669 16.2135 25.1624 16.2171 25.5728C16.2206 25.9833 16.3853 26.376 16.6755 26.6662C16.9658 26.9565 17.3584 27.1211 17.7689 27.1247C18.1794 27.1282 18.5748 26.9705 18.8701 26.6853C20.9275 24.6341 23.7141 23.4823 26.6193 23.4823C29.5245 23.4823 32.3111 24.6341 34.3685 26.6853C34.6621 26.9788 35.0602 27.1436 35.4753 27.1436C35.8904 27.1436 36.2885 26.9788 36.5821 26.6853ZM14.4428 28.8989C14.0067 28.4628 13.6606 27.945 13.4246 27.3752C13.1885 26.8053 13.067 26.1945 13.067 25.5777C13.067 24.9609 13.1885 24.3501 13.4246 23.7802C13.6606 23.2104 14.0067 22.6926 14.4428 22.2565C17.469 19.2388 21.508 17.4525 25.7765 17.2439C30.0451 17.0354 34.239 18.4195 37.5449 21.1278C37.397 18.5882 36.474 16.155 34.9002 14.1563C33.3265 12.1577 31.1777 10.6896 28.7437 9.95012C28.4752 9.86706 28.2314 9.7188 28.0342 9.51856C27.8369 9.31832 27.6924 9.07234 27.6134 8.80261C26.785 6.14066 25.0921 3.83122 22.8029 2.2401C20.5137 0.648976 17.759 -0.132848 14.9753 0.0184698C12.1915 0.169788 9.53786 1.2456 7.43461 3.07548C5.33136 4.90537 3.89878 7.38471 3.36382 10.1208C2.81347 12.8865 3.25698 15.7577 4.61622 18.2285C3.03264 19.046 1.74495 20.3392 0.934037 21.9262C0.123125 23.5132 -0.170271 25.3143 0.0950612 27.0767C0.503377 29.1239 1.59956 30.9699 3.20163 32.3083C4.80371 33.6467 6.81532 34.3969 8.90255 34.4345H20.0176C17.4079 31.8467 14.8577 29.3138 14.4428 28.8989Z" fill="url(#paint0_linear_341_8339)"/>
<defs>
<linearGradient id="paint0_linear_341_8339" x1="11.0251" y1="-7.22622e-07" x2="27.1418" y2="36.5146" gradientUnits="userSpaceOnUse">
<stop stop-color="#FFA093"/>
<stop offset="1" stop-color="#FF6652"/>
</linearGradient>
</defs>
</svg>
