<svg width="32" height="36" viewBox="0 0 32 36" fill="none" xmlns="http://www.w3.org/2000/svg">
<path d="M30.7219 14.9469L16.6813 0.904325C15.8533 0.0782932 14.5137 0.0880667 13.6965 0.90327C12.8746 1.72726 12.8746 3.06517 13.6965 3.88811L27.7391 17.9297C28.5618 18.7524 29.8992 18.7524 30.7219 17.9297C31.5468 17.1048 31.5468 15.7717 30.7219 14.9469Z" fill="url(#paint0_linear_341_8186)"/>
<path d="M12.6548 5.82935L12.5491 6.35908C11.8047 10.0827 9.99553 13.6202 7.54858 16.4873L15.1878 24.1266C18.0546 21.6801 21.5434 19.8224 25.2671 19.0771L25.7979 18.9714L12.6548 5.82935Z" fill="url(#paint1_linear_341_8186)"/>
<path d="M6.14807 18.0696L0.927151 23.2894C-0.306483 24.5231 -0.311615 26.5259 0.927151 27.7646L3.90995 30.7474C5.14358 31.9811 7.14637 31.9861 8.38513 30.7474L13.6056 25.527L6.14807 18.0696ZM6.89381 26.2733C6.48184 26.6853 5.81437 26.6853 5.40241 26.2733C4.99044 25.8613 4.99044 25.1939 5.40241 24.7819L6.89381 23.2905C7.30577 22.8785 7.97324 22.8785 8.3852 23.2905C8.79717 23.7025 8.79717 24.3699 8.3852 24.7819L6.89381 26.2733Z" fill="url(#paint2_linear_341_8186)"/>
<path d="M18.0092 31.3087L19.4439 29.874C20.6827 28.6354 20.6786 26.6326 19.4439 25.3999L18.3783 24.3335C17.7893 24.7291 17.2268 25.159 16.6799 25.6178L17.9525 26.8923C18.3635 27.3012 18.3664 27.9666 17.9525 28.3827L16.4941 29.8411L14.3509 27.7645L11.3679 30.7475L16.1532 35.3844C16.9698 36.2031 18.3106 36.2077 19.1349 35.3833C19.9579 34.5604 19.9579 33.2225 19.1349 32.3995L18.0092 31.3087Z" fill="url(#paint3_linear_341_8186)"/>
<path d="M22.27 0C21.6871 0 21.2153 0.471727 21.2153 1.05469V3.16407C21.2153 3.74703 21.6871 4.21875 22.27 4.21875C22.853 4.21875 23.3247 3.74703 23.3247 3.16407V1.05469C23.3247 0.471727 22.853 0 22.27 0Z" fill="url(#paint4_linear_341_8186)"/>
<path d="M30.7075 8.4375H28.5981C28.0152 8.4375 27.5435 8.90923 27.5435 9.49219C27.5435 10.0752 28.0152 10.5469 28.5981 10.5469H30.7075C31.2905 10.5469 31.7622 10.0752 31.7622 9.49219C31.7622 8.90923 31.2905 8.4375 30.7075 8.4375Z" fill="url(#paint5_linear_341_8186)"/>
<path d="M29.3438 2.41835C28.9319 2.00638 28.2644 2.00638 27.8524 2.41835L25.7431 4.52772C25.3311 4.93968 25.3311 5.60716 25.7431 6.01912C26.155 6.43108 26.8225 6.43115 27.2345 6.01912L29.3438 3.90975C29.7558 3.49778 29.7558 2.83031 29.3438 2.41835Z" fill="url(#paint6_linear_341_8186)"/>
<defs>
<linearGradient id="paint0_linear_341_8186" x1="18.4423" y1="0.28833" x2="26.8463" y2="18.5475" gradientUnits="userSpaceOnUse">
<stop stop-color="#FFA093"/>
<stop offset="1" stop-color="#FF6652"/>
</linearGradient>
<linearGradient id="paint1_linear_341_8186" x1="12.9075" y1="5.82935" x2="21.3444" y2="24.1098" gradientUnits="userSpaceOnUse">
<stop stop-color="#FFA093"/>
<stop offset="1" stop-color="#FF6652"/>
</linearGradient>
<linearGradient id="paint2_linear_341_8186" x1="3.99528" y1="18.0696" x2="10.2577" y2="31.6748" gradientUnits="userSpaceOnUse">
<stop stop-color="#FFA093"/>
<stop offset="1" stop-color="#FF6652"/>
</linearGradient>
<linearGradient id="paint3_linear_341_8186" x1="14.0118" y1="24.3335" x2="20.232" y2="34.7619" gradientUnits="userSpaceOnUse">
<stop stop-color="#FFA093"/>
<stop offset="1" stop-color="#FF6652"/>
</linearGradient>
<linearGradient id="paint4_linear_341_8186" x1="21.8348" y1="-8.46823e-08" x2="24.3824" y2="2.76724" gradientUnits="userSpaceOnUse">
<stop stop-color="#FFA093"/>
<stop offset="1" stop-color="#FF6652"/>
</linearGradient>
<linearGradient id="paint5_linear_341_8186" x1="28.7823" y1="8.4375" x2="29.3411" y2="10.8652" gradientUnits="userSpaceOnUse">
<stop stop-color="#FFA093"/>
<stop offset="1" stop-color="#FF6652"/>
</linearGradient>
<linearGradient id="paint6_linear_341_8186" x1="26.6729" y1="2.10937" x2="28.6149" y2="6.32811" gradientUnits="userSpaceOnUse">
<stop stop-color="#FFA093"/>
<stop offset="1" stop-color="#FF6652"/>
</linearGradient>
</defs>
</svg>
