<svg width="41" height="34" viewBox="0 0 41 34" fill="none" xmlns="http://www.w3.org/2000/svg">
<path fill-rule="evenodd" clip-rule="evenodd" d="M36.2179 0H4.51695C3.31941 0.00143179 2.17132 0.477794 1.32454 1.32459C0.477753 2.1714 0.0014107 3.31949 0 4.51703L0 10.4302H40.7349V4.51703C40.7332 3.31957 40.2568 2.17163 39.4101 1.32491C38.5633 0.478181 37.4154 0.00177977 36.2179 0.000159033V0ZM0 12.5655V29.483C0.00143175 30.6806 0.477784 31.8286 1.32457 32.6754C2.17135 33.5222 3.31942 33.9986 4.51695 34H36.2179C37.4154 33.9984 38.5633 33.5219 39.4101 32.6752C40.2568 31.8285 40.7332 30.6805 40.7349 29.483V12.5655H0ZM29.8523 19.5162L27.1539 22.2151L29.852 24.9139C29.9512 25.013 30.0299 25.1307 30.0835 25.2602C30.1372 25.3897 30.1649 25.5285 30.1649 25.6686C30.1649 25.8088 30.1374 25.9476 30.0838 26.0772C30.0301 26.2067 29.9515 26.3244 29.8524 26.4236C29.7533 26.5227 29.6357 26.6014 29.5062 26.655C29.3767 26.7087 29.2379 26.7364 29.0977 26.7364C28.9575 26.7365 28.8187 26.7089 28.6892 26.6553C28.5596 26.6017 28.4419 26.5231 28.3428 26.424L25.6439 23.7251L22.9444 26.4239C22.7442 26.6241 22.4726 26.7366 22.1894 26.7367C21.9063 26.7367 21.6347 26.6242 21.4344 26.424C21.2342 26.2238 21.1216 25.9523 21.1216 25.6691C21.1216 25.3859 21.234 25.1143 21.4343 24.9141L24.134 22.2151L21.4343 19.5161C21.3351 19.4169 21.2565 19.2992 21.2028 19.1696C21.1492 19.0401 21.1216 18.9012 21.1216 18.761C21.1216 18.6208 21.1493 18.482 21.2029 18.3524C21.2566 18.2229 21.3353 18.1052 21.4344 18.0061C21.5336 17.9069 21.6513 17.8283 21.7808 17.7747C21.9104 17.721 22.0492 17.6934 22.1894 17.6934C22.3296 17.6934 22.4685 17.7211 22.598 17.7748C22.7276 17.8284 22.8452 17.9071 22.9444 18.0062L25.6439 20.705L28.3428 18.0062C28.4419 17.9071 28.5596 17.8285 28.6892 17.7748C28.8187 17.7212 28.9575 17.6937 29.0977 17.6937C29.2379 17.6937 29.3767 17.7214 29.5062 17.7751C29.6357 17.8287 29.7533 17.9074 29.8524 18.0066C29.9515 18.1057 30.0301 18.2234 30.0838 18.3529C30.1374 18.4825 30.1649 18.6213 30.1649 18.7615C30.1649 18.9017 30.1372 19.0405 30.0835 19.17C30.0299 19.2995 29.9512 19.4171 29.852 19.5162H29.8523ZM18.6918 18.7574V22.678C18.6942 23.2129 18.5909 23.7429 18.3878 24.2378C18.1848 24.7326 17.886 25.1824 17.5086 25.5615C17.1313 25.9405 16.6828 26.2413 16.1888 26.4465C15.6949 26.6517 15.1653 26.7574 14.6305 26.7574C14.0956 26.7574 13.566 26.6517 13.0721 26.4465C12.5782 26.2413 12.1296 25.9405 11.7523 25.5615C11.3749 25.1824 11.0761 24.7326 10.8731 24.2378C10.67 23.7429 10.5667 23.2129 10.5691 22.678V18.7574C10.5691 18.4743 10.6816 18.2027 10.8818 18.0026C11.0819 17.8024 11.3535 17.6899 11.6366 17.6899C11.9197 17.6899 12.1912 17.8024 12.3914 18.0026C12.5916 18.2027 12.704 18.4743 12.704 18.7574V22.678C12.704 23.1889 12.907 23.6788 13.2682 24.04C13.6294 24.4012 14.1193 24.6042 14.6302 24.6042C15.141 24.6042 15.6309 24.4012 15.9922 24.04C16.3534 23.6788 16.5563 23.1889 16.5563 22.678V18.7574C16.5588 18.4758 16.6723 18.2066 16.8723 18.0083C17.0723 17.81 17.3425 17.6988 17.6241 17.6988C17.9057 17.6988 18.1759 17.81 18.3758 18.0083C18.5758 18.2066 18.6894 18.4758 18.6918 18.7574ZM22.7383 6.28248C22.7383 6.14229 22.7659 6.00347 22.8195 5.87395C22.8732 5.74443 22.9518 5.62675 23.0509 5.52762C23.1501 5.42849 23.2677 5.34987 23.3973 5.29623C23.5268 5.24259 23.6656 5.215 23.8058 5.21502H34.24C34.5215 5.21745 34.7908 5.33101 34.989 5.53099C35.1873 5.73096 35.2985 6.00116 35.2985 6.28276C35.2985 6.56435 35.1873 6.83455 34.989 7.03452C34.7908 7.2345 34.5215 7.34806 34.24 7.35049H23.8058C23.6656 7.35049 23.5267 7.32286 23.3972 7.26918C23.2676 7.2155 23.1499 7.13683 23.0508 7.03765C22.9516 6.93846 22.873 6.82072 22.8194 6.69115C22.7658 6.56157 22.7382 6.4227 22.7383 6.28248ZM5.428 6.28248C5.42782 6.14229 5.45529 6.00345 5.50884 5.8739C5.56239 5.74434 5.64096 5.62662 5.74006 5.52747C5.83916 5.42832 5.95684 5.34968 6.08636 5.29607C6.21589 5.24245 6.35472 5.21491 6.4949 5.21502H6.4961C6.70728 5.21508 6.91371 5.27777 7.08927 5.39515C7.26483 5.51253 7.40164 5.67933 7.4824 5.87447C7.56316 6.0696 7.58424 6.2843 7.54298 6.49142C7.50171 6.69854 7.39996 6.88877 7.25059 7.03805C7.10121 7.18734 6.91092 7.28898 6.70378 7.33012C6.49664 7.37126 6.28195 7.35005 6.08686 7.26917C5.89178 7.1883 5.72505 7.05139 5.60778 6.87576C5.4905 6.70013 5.42794 6.49366 5.428 6.28248ZM10.0499 6.28248C10.0497 6.1423 10.0772 6.00346 10.1307 5.87391C10.1843 5.74436 10.2628 5.62665 10.3619 5.5275C10.461 5.42835 10.5787 5.34971 10.7082 5.29609C10.8377 5.24247 10.9765 5.21492 11.1167 5.21502H11.1185C11.3296 5.21517 11.536 5.27794 11.7115 5.39538C11.887 5.51282 12.0237 5.67965 12.1044 5.8748C12.1851 6.06994 12.2061 6.28463 12.1648 6.49171C12.1235 6.6988 12.0217 6.88898 11.8723 7.03822C11.7229 7.18746 11.5326 7.28905 11.3255 7.33015C11.1184 7.37125 10.9037 7.35002 10.7086 7.26913C10.5136 7.18824 10.3469 7.05133 10.2296 6.87571C10.1124 6.70009 10.0498 6.49364 10.0499 6.28248ZM14.6711 6.28248C14.671 5.99944 14.7834 5.72798 14.9835 5.52779C15.1835 5.32761 15.4549 5.2151 15.738 5.21502H15.7403C15.9514 5.21533 16.1577 5.27823 16.3331 5.39576C16.5085 5.5133 16.6451 5.68019 16.7257 5.87535C16.8062 6.07051 16.8271 6.28517 16.7857 6.4922C16.7443 6.69923 16.6425 6.88934 16.493 7.0385C16.3436 7.18766 16.1533 7.28917 15.9462 7.33021C15.7391 7.37124 15.5245 7.34996 15.3295 7.26905C15.1345 7.18814 14.9678 7.05123 14.8506 6.87562C14.7334 6.70002 14.6708 6.49361 14.6709 6.28248H14.6711Z" fill="url(#paint0_linear_341_8160)"/>
<defs>
<linearGradient id="paint0_linear_341_8160" x1="11.9618" y1="-6.82476e-07" x2="25.7566" y2="35.9042" gradientUnits="userSpaceOnUse">
<stop stop-color="#FFA093"/>
<stop offset="1" stop-color="#FF6652"/>
</linearGradient>
</defs>
</svg>
