<svg width="48" height="48" viewBox="0 0 48 48" fill="none" xmlns="http://www.w3.org/2000/svg">
<path fill-rule="evenodd" clip-rule="evenodd" d="M33.154 44.7374H15.506C8.624 44.7374 4 39.9074 4 32.7194V16.0914C4 8.90339 8.624 4.07339 15.506 4.07339H22.984C23.812 4.07339 24.484 4.74539 24.484 5.57339C24.484 6.40139 23.812 7.07339 22.984 7.07339H15.506C10.338 7.07339 7 10.6134 7 16.0914V32.7194C7 38.1974 10.338 41.7374 15.506 41.7374H33.154C38.322 41.7374 41.662 38.1974 41.662 32.7194V24.6634C41.662 23.8354 42.334 23.1634 43.162 23.1634C43.99 23.1634 44.662 23.8354 44.662 24.6634V32.7194C44.662 39.9074 40.036 44.7374 33.154 44.7374Z" fill="#0A033C"/>
<path fill-rule="evenodd" clip-rule="evenodd" d="M17.7338 30.8566H23.6878C24.4478 30.8566 25.1598 30.5626 25.6978 30.0246L40.7158 15.0066C41.3318 14.3906 41.6718 13.5706 41.6718 12.6986C41.6718 11.8246 41.3318 11.0026 40.7158 10.3866L38.2818 7.9526C37.0078 6.6826 34.9358 6.6826 33.6598 7.9526L18.7138 22.8986C18.1958 23.4166 17.9018 24.1046 17.8838 24.8346L17.7338 30.8566ZM23.6878 33.8566H16.1958C15.7918 33.8566 15.4038 33.6926 15.1218 33.4026C14.8398 33.1146 14.6858 32.7246 14.6958 32.3186L14.8838 24.7606C14.9218 23.2566 15.5278 21.8426 16.5918 20.7766H16.5938L31.5398 5.8306C33.9838 3.3906 37.9578 3.3906 40.4018 5.8306L42.8358 8.2646C44.0218 9.4486 44.6738 11.0226 44.6718 12.6986C44.6718 14.3746 44.0198 15.9466 42.8358 17.1286L27.8178 32.1466C26.7158 33.2486 25.2478 33.8566 23.6878 33.8566Z" fill="#0A033C"/>
<path fill-rule="evenodd" clip-rule="evenodd" d="M39.4596 19.8332C39.0756 19.8332 38.6916 19.6872 38.3996 19.3932L29.2676 10.2612C28.6816 9.67519 28.6816 8.72519 29.2676 8.13919C29.8536 7.55319 30.8016 7.55319 31.3876 8.13919L40.5196 17.2732C41.1056 17.8592 41.1056 18.8072 40.5196 19.3932C40.2276 19.6872 39.8436 19.8332 39.4596 19.8332Z" fill="#0A033C"/>
</svg>
