<svg width="80" height="75" viewBox="0 0 80 75" fill="none" xmlns="http://www.w3.org/2000/svg">
<path d="M47.746 18.9969C61.1299 18.9969 70.8281 29.916 70.8281 42.033C70.8281 45.9031 69.6994 49.8883 67.7183 53.528C67.3497 54.127 67.3036 54.8872 67.557 55.6013L69.1004 60.7614C69.446 62.0053 68.3863 62.9268 67.2115 62.5582L62.5582 61.176C61.2912 60.7614 60.3006 61.2912 59.1235 62.0053C55.7602 63.9864 51.57 65 47.792 65C36.3661 65 24.7559 56.1772 24.7559 41.9639C24.7559 29.7087 34.6615 18.9969 47.746 18.9969Z" fill="url(#paint0_linear_220_18631)"/>
<g opacity="0.5" filter="url(#filter0_f_220_18631)">
<path d="M62.4581 42.2627C62.4581 50.481 55.7974 57.1401 47.5806 57.1401C39.3638 57.1401 32.7031 50.481 32.7031 42.2627C32.7031 34.0473 39.3638 27.3852 47.5806 27.3852C55.7974 27.3852 62.4581 34.0473 62.4581 42.2627Z" fill="#8237FF"/>
</g>
<g filter="url(#filter1_b_220_18631)">
<mask id="path-3-outside-1_220_18631" maskUnits="userSpaceOnUse" x="0" y="0" width="61" height="61" fill="black">
<rect fill="white" width="61" height="61"/>
<path d="M30.4538 1C13.3753 1 1 14.9332 1 30.395C1 35.3333 2.44035 40.4187 4.96832 45.0631C5.43864 45.8273 5.49743 46.7974 5.17409 47.7086L3.20462 54.2931C2.7637 55.8804 4.11587 57.0562 5.61501 56.5859L11.5528 54.8222C13.1695 54.2931 14.4335 54.9692 15.9356 55.8804C20.2273 58.4084 25.5742 59.7018 30.395 59.7018C44.9749 59.7018 59.79 48.4435 59.79 30.3068C59.79 14.6687 47.1501 1 30.4538 1Z"/>
</mask>
<path d="M30.4538 1C13.3753 1 1 14.9332 1 30.395C1 35.3333 2.44035 40.4187 4.96832 45.0631C5.43864 45.8273 5.49743 46.7974 5.17409 47.7086L3.20462 54.2931C2.7637 55.8804 4.11587 57.0562 5.61501 56.5859L11.5528 54.8222C13.1695 54.2931 14.4335 54.9692 15.9356 55.8804C20.2273 58.4084 25.5742 59.7018 30.395 59.7018C44.9749 59.7018 59.79 48.4435 59.79 30.3068C59.79 14.6687 47.1501 1 30.4538 1Z" fill="#BA90FF" fill-opacity="0.35"/>
<path d="M30.4538 2C31.0061 2 31.4538 1.55228 31.4538 1C31.4538 0.447715 31.0061 0 30.4538 0V2ZM4.96832 45.0631L4.09 45.5411C4.09848 45.5567 4.10737 45.5721 4.11666 45.5872L4.96832 45.0631ZM5.17409 47.7086L4.23166 47.3742C4.22605 47.39 4.22083 47.406 4.21603 47.4221L5.17409 47.7086ZM3.20462 54.2931L2.24656 54.0065C2.24468 54.0128 2.24286 54.0191 2.24111 54.0255L3.20462 54.2931ZM5.61501 56.5859L5.33028 55.6273C5.3254 55.6288 5.32053 55.6302 5.31567 55.6318L5.61501 56.5859ZM11.5528 54.8222L11.8375 55.7808C11.8463 55.7782 11.8551 55.7755 11.8638 55.7726L11.5528 54.8222ZM15.9356 55.8804L15.4169 56.7355L15.4281 56.7421L15.9356 55.8804ZM30.4538 0C29.9015 0 29.4538 0.447715 29.4538 1C29.4538 1.55228 29.9015 2 30.4538 2V0ZM30.4538 0C12.7901 0 0 14.4144 0 30.395H2C2 15.452 13.9605 2 30.4538 2V0ZM0 30.395C0 35.5243 1.49447 40.7726 4.09 45.5411L5.84664 44.585C3.38624 40.0647 2 35.1424 2 30.395H0ZM4.11666 45.5872C4.40423 46.0545 4.47032 46.7016 4.23166 47.3742L6.11651 48.043C6.52455 46.8931 6.47306 45.6002 5.81998 44.539L4.11666 45.5872ZM4.21603 47.4221L2.24656 54.0065L4.16268 54.5797L6.13215 47.9952L4.21603 47.4221ZM2.24111 54.0255C1.92593 55.1601 2.24311 56.2445 3.00449 56.9464C3.75465 57.6379 4.84567 57.8753 5.91435 57.5401L5.31567 55.6318C4.88521 55.7668 4.55057 55.6515 4.3601 55.4759C4.18084 55.3106 4.04239 55.0134 4.16814 54.5607L2.24111 54.0255ZM5.89975 57.5445L11.8375 55.7808L11.2681 53.8636L5.33028 55.6273L5.89975 57.5445ZM11.8638 55.7726C12.9998 55.4008 13.8895 55.8088 15.4169 56.7354L16.4543 55.0255C14.9775 54.1296 13.3392 53.1854 11.2418 53.8718L11.8638 55.7726ZM15.4281 56.7421C19.8891 59.3698 25.4147 60.7018 30.395 60.7018V58.7018C25.7337 58.7018 20.5654 57.447 16.4431 55.0188L15.4281 56.7421ZM30.395 60.7018C45.4466 60.7018 60.79 49.0731 60.79 30.3068H58.79C58.79 47.8139 44.5032 58.7018 30.395 58.7018V60.7018ZM60.79 30.3068C60.79 14.1387 47.7245 0 30.4538 0V2C46.5758 2 58.79 15.1986 58.79 30.3068H60.79Z" fill="url(#paint1_linear_220_18631)" mask="url(#path-3-outside-1_220_18631)"/>
</g>
<g filter="url(#filter2_bd_220_18631)">
<mask id="path-5-inside-2_220_18631" fill="white">
<path fill-rule="evenodd" clip-rule="evenodd" d="M30.3368 34.1866C28.2497 34.1572 26.5742 32.4817 26.5742 30.3946C26.5742 28.337 28.2791 26.6321 30.3368 26.6615C32.4238 26.6615 34.0993 28.337 34.0993 30.424C34.0993 32.4817 32.4238 34.1866 30.3368 34.1866ZM16.786 34.1865C14.7283 34.1865 13.0234 32.4816 13.0234 30.424C13.0234 28.3369 14.699 26.6614 16.786 26.6614C18.873 26.6614 20.5486 28.3369 20.5486 30.424C20.5486 32.4816 18.873 34.1571 16.786 34.1865ZM40.125 30.424C40.125 32.4817 41.8005 34.1866 43.8876 34.1866C45.9746 34.1866 47.6501 32.4817 47.6501 30.424C47.6501 28.337 45.9746 26.6615 43.8876 26.6615C41.8005 26.6615 40.125 28.337 40.125 30.424Z"/>
</mask>
<path fill-rule="evenodd" clip-rule="evenodd" d="M30.3368 34.1866C28.2497 34.1572 26.5742 32.4817 26.5742 30.3946C26.5742 28.337 28.2791 26.6321 30.3368 26.6615C32.4238 26.6615 34.0993 28.337 34.0993 30.424C34.0993 32.4817 32.4238 34.1866 30.3368 34.1866ZM16.786 34.1865C14.7283 34.1865 13.0234 32.4816 13.0234 30.424C13.0234 28.3369 14.699 26.6614 16.786 26.6614C18.873 26.6614 20.5486 28.3369 20.5486 30.424C20.5486 32.4816 18.873 34.1571 16.786 34.1865ZM40.125 30.424C40.125 32.4817 41.8005 34.1866 43.8876 34.1866C45.9746 34.1866 47.6501 32.4817 47.6501 30.424C47.6501 28.337 45.9746 26.6615 43.8876 26.6615C41.8005 26.6615 40.125 28.337 40.125 30.424Z" fill="url(#paint2_linear_220_18631)"/>
<path d="M30.3368 34.1866L30.3311 34.5866H30.3368V34.1866ZM30.3368 26.6615L30.3311 27.0615H30.3368V26.6615ZM16.786 34.1865V34.5866L16.7916 34.5865L16.786 34.1865ZM26.1742 30.3946C26.1742 32.7036 28.0287 34.5541 30.3311 34.5865L30.3424 33.7866C28.4708 33.7603 26.9742 32.2597 26.9742 30.3946H26.1742ZM30.3425 26.2615C28.0583 26.2289 26.1742 28.1172 26.1742 30.3946H26.9742C26.9742 28.5567 28.4999 27.0353 30.3311 27.0614L30.3425 26.2615ZM34.4993 30.424C34.4993 28.1161 32.6447 26.2615 30.3368 26.2615V27.0615C32.2029 27.0615 33.6993 28.5579 33.6993 30.424H34.4993ZM30.3368 34.5866C32.6468 34.5866 34.4993 32.7005 34.4993 30.424H33.6993C33.6993 32.2628 32.2009 33.7866 30.3368 33.7866V34.5866ZM12.6234 30.424C12.6234 32.7025 14.5074 34.5865 16.786 34.5865V33.7865C14.9493 33.7865 13.4234 32.2607 13.4234 30.424H12.6234ZM16.786 26.2614C14.478 26.2614 12.6234 28.116 12.6234 30.424H13.4234C13.4234 28.5578 14.9199 27.0614 16.786 27.0614V26.2614ZM20.9486 30.424C20.9486 28.116 19.094 26.2614 16.786 26.2614V27.0614C18.6521 27.0614 20.1486 28.5578 20.1486 30.424H20.9486ZM16.7916 34.5865C19.0921 34.5541 20.9486 32.7056 20.9486 30.424H20.1486C20.1486 32.2576 18.654 33.7602 16.7804 33.7866L16.7916 34.5865ZM43.8876 33.7866C42.0235 33.7866 40.525 32.2628 40.525 30.424H39.725C39.725 32.7006 41.5776 34.5866 43.8876 34.5866V33.7866ZM47.2501 30.424C47.2501 32.2628 45.7517 33.7866 43.8876 33.7866V34.5866C46.1975 34.5866 48.0501 32.7006 48.0501 30.424H47.2501ZM43.8876 27.0615C45.7537 27.0615 47.2501 28.5579 47.2501 30.424H48.0501C48.0501 28.1161 46.1955 26.2615 43.8876 26.2615V27.0615ZM40.525 30.424C40.525 28.5579 42.0214 27.0615 43.8876 27.0615V26.2615C41.5796 26.2615 39.725 28.1161 39.725 30.424H40.525Z" fill="url(#paint3_linear_220_18631)" mask="url(#path-5-inside-2_220_18631)"/>
</g>
<defs>
<filter id="filter0_f_220_18631" x="15.7031" y="10.3852" width="63.7539" height="63.7549" filterUnits="userSpaceOnUse" color-interpolation-filters="sRGB">
<feFlood flood-opacity="0" result="BackgroundImageFix"/>
<feBlend mode="normal" in="SourceGraphic" in2="BackgroundImageFix" result="shape"/>
<feGaussianBlur stdDeviation="8.5" result="effect1_foregroundBlur_220_18631"/>
</filter>
<filter id="filter1_b_220_18631" x="-24" y="-24" width="108.789" height="108.702" filterUnits="userSpaceOnUse" color-interpolation-filters="sRGB">
<feFlood flood-opacity="0" result="BackgroundImageFix"/>
<feGaussianBlur in="BackgroundImageFix" stdDeviation="12"/>
<feComposite in2="SourceAlpha" operator="in" result="effect1_backgroundBlur_220_18631"/>
<feBlend mode="normal" in="SourceGraphic" in2="effect1_backgroundBlur_220_18631" result="shape"/>
</filter>
<filter id="filter2_bd_220_18631" x="-1.97656" y="11.6611" width="64.625" height="37.5255" filterUnits="userSpaceOnUse" color-interpolation-filters="sRGB">
<feFlood flood-opacity="0" result="BackgroundImageFix"/>
<feGaussianBlur in="BackgroundImageFix" stdDeviation="7.5"/>
<feComposite in2="SourceAlpha" operator="in" result="effect1_backgroundBlur_220_18631"/>
<feColorMatrix in="SourceAlpha" type="matrix" values="0 0 0 0 0 0 0 0 0 0 0 0 0 0 0 0 0 0 127 0" result="hardAlpha"/>
<feOffset dx="5" dy="5"/>
<feGaussianBlur stdDeviation="5"/>
<feColorMatrix type="matrix" values="0 0 0 0 0.577356 0 0 0 0 0.359375 0 0 0 0 0.9375 0 0 0 0.5 0"/>
<feBlend mode="normal" in2="effect1_backgroundBlur_220_18631" result="effect2_dropShadow_220_18631"/>
<feBlend mode="normal" in="SourceGraphic" in2="effect2_dropShadow_220_18631" result="shape"/>
</filter>
<linearGradient id="paint0_linear_220_18631" x1="47.792" y1="18.9969" x2="47.792" y2="65" gradientUnits="userSpaceOnUse">
<stop stop-color="#BC94FF"/>
<stop offset="1" stop-color="#9F66FF"/>
</linearGradient>
<linearGradient id="paint1_linear_220_18631" x1="10.3584" y1="7.83883" x2="47.792" y2="54.2709" gradientUnits="userSpaceOnUse">
<stop stop-color="white" stop-opacity="0.25"/>
<stop offset="1" stop-color="white" stop-opacity="0"/>
</linearGradient>
<linearGradient id="paint2_linear_220_18631" x1="45.1951" y1="28.02" x2="7.43316" y2="33.6851" gradientUnits="userSpaceOnUse">
<stop stop-color="white"/>
<stop offset="1" stop-color="white" stop-opacity="0.2"/>
</linearGradient>
<linearGradient id="paint3_linear_220_18631" x1="18.5354" y1="27.5378" x2="20.2074" y2="37.0659" gradientUnits="userSpaceOnUse">
<stop stop-color="white" stop-opacity="0.25"/>
<stop offset="1" stop-color="white" stop-opacity="0"/>
</linearGradient>
</defs>
</svg>
