<svg width="60" height="60" viewBox="0 0 60 60" fill="none" xmlns="http://www.w3.org/2000/svg">
<path fill-rule="evenodd" clip-rule="evenodd" d="M60 35V25C60 22.2422 57.7578 20 55 20H53.6387C51.7266 8.66797 41.8691 0 30 0C18.1309 0 8.27344 8.66797 6.36133 20H5C2.24219 20 0 22.2422 0 25V35C0 37.7578 2.24219 40 5 40H8C9.10547 40 10 39.1055 10 38V24C10 12.9727 18.9727 4 30 4C41.0273 4 50 12.9727 50 24V36C50 47.0273 41.0273 56 30 56C28.8945 56 28 56.8945 28 58C28 59.1055 28.8945 60 30 60C41.8691 60 51.7266 51.332 53.6387 40H55C57.7578 40 60 37.7578 60 35ZM14 24C14 15.1777 21.1777 8 30 8C38.8223 8 46 15.1777 46 24V34C46 42.8223 38.8223 50 30 50C21.1777 50 14 42.8223 14 34V24ZM24.5 18.375C23.8096 18.375 23.25 18.9346 23.25 19.625V25.75C23.25 26.4404 23.8096 27 24.5 27C25.1904 27 25.75 26.4404 25.75 25.75V19.625C25.75 18.9346 25.1904 18.375 24.5 18.375ZM28.75 19.625C28.75 18.9346 29.3096 18.375 30 18.375C30.6904 18.375 31.25 18.9346 31.25 19.625V25.75C31.25 26.4404 30.6904 27 30 27C29.3096 27 28.75 26.4404 28.75 25.75V19.625ZM35.5 18.375C34.8096 18.375 34.25 18.9346 34.25 19.625V25.75C34.25 26.4404 34.8096 27 35.5 27C36.1904 27 36.75 26.4404 36.75 25.75V19.625C36.75 18.9346 36.1904 18.375 35.5 18.375Z" fill="url(#paint0_linear_329_11852)"/>
<defs>
<linearGradient id="paint0_linear_329_11852" x1="17.619" y1="-1.20437e-06" x2="45.2381" y2="60" gradientUnits="userSpaceOnUse">
<stop stop-color="#FFA093"/>
<stop offset="1" stop-color="#FF6652"/>
</linearGradient>
</defs>
</svg>
