<svg width="60" height="56" viewBox="0 0 60 56" fill="none" xmlns="http://www.w3.org/2000/svg">
<path d="M0 20.502V43.002C0.00396964 46.3159 1.3222 49.4931 3.66555 51.8364C6.00889 54.1798 9.18601 55.498 12.5 55.502H47.5C50.814 55.498 53.9911 54.1798 56.3345 51.8364C58.6778 49.4931 59.996 46.3159 60 43.002V20.502H0ZM35 45.502H15C14.337 45.502 13.7011 45.2386 13.2322 44.7697C12.7634 44.3009 12.5 43.665 12.5 43.002C12.5 42.3389 12.7634 41.703 13.2322 41.2342C13.7011 40.7653 14.337 40.502 15 40.502H35C35.663 40.502 36.2989 40.7653 36.7678 41.2342C37.2366 41.703 37.5 42.3389 37.5 43.002C37.5 43.665 37.2366 44.3009 36.7678 44.7697C36.2989 45.2386 35.663 45.502 35 45.502ZM45 35.502H15C14.337 35.502 13.7011 35.2386 13.2322 34.7697C12.7634 34.3009 12.5 33.665 12.5 33.002C12.5 32.3389 12.7634 31.703 13.2322 31.2342C13.7011 30.7653 14.337 30.502 15 30.502H45C45.663 30.502 46.2989 30.7653 46.7678 31.2342C47.2366 31.703 47.5 32.3389 47.5 33.002C47.5 33.665 47.2366 34.3009 46.7678 34.7697C46.2989 35.2386 45.663 35.502 45 35.502ZM60 15.502V13.002C59.996 9.68797 58.6778 6.51085 56.3345 4.1675C53.9911 1.82416 50.814 0.505923 47.5 0.501953H12.5C9.18601 0.505923 6.00889 1.82416 3.66555 4.1675C1.3222 6.51085 0.00396964 9.68797 0 13.002L0 15.502H60ZM25 5.50195C25.4945 5.50195 25.9778 5.64858 26.3889 5.92328C26.8 6.19798 27.1205 6.58843 27.3097 7.04524C27.4989 7.50206 27.5484 8.00473 27.452 8.48968C27.3555 8.97463 27.1174 9.42009 26.7678 9.76972C26.4181 10.1194 25.9727 10.3575 25.4877 10.4539C25.0028 10.5504 24.5001 10.5009 24.0433 10.3117C23.5865 10.1224 23.196 9.802 22.9213 9.39088C22.6466 8.97976 22.5 8.49641 22.5 8.00195C22.5 7.33891 22.7634 6.70303 23.2322 6.23419C23.7011 5.76535 24.337 5.50195 25 5.50195V5.50195ZM17.5 5.50195C17.9945 5.50195 18.4778 5.64858 18.8889 5.92328C19.3 6.19798 19.6205 6.58843 19.8097 7.04524C19.9989 7.50206 20.0484 8.00473 19.952 8.48968C19.8555 8.97463 19.6174 9.42009 19.2678 9.76972C18.9181 10.1194 18.4727 10.3575 17.9877 10.4539C17.5028 10.5504 17.0001 10.5009 16.5433 10.3117C16.0865 10.1224 15.696 9.802 15.4213 9.39088C15.1466 8.97976 15 8.49641 15 8.00195C15 7.33891 15.2634 6.70303 15.7322 6.23419C16.2011 5.76535 16.837 5.50195 17.5 5.50195ZM10 5.50195C10.4945 5.50195 10.9778 5.64858 11.3889 5.92328C11.8 6.19798 12.1205 6.58843 12.3097 7.04524C12.4989 7.50206 12.5484 8.00473 12.452 8.48968C12.3555 8.97463 12.1174 9.42009 11.7678 9.76972C11.4181 10.1194 10.9727 10.3575 10.4877 10.4539C10.0028 10.5504 9.50011 10.5009 9.04329 10.3117C8.58648 10.1224 8.19603 9.802 7.92133 9.39088C7.64662 8.97976 7.5 8.49641 7.5 8.00195C7.5 7.33891 7.76339 6.70303 8.23223 6.23419C8.70107 5.76535 9.33696 5.50195 10 5.50195V5.50195Z" fill="url(#paint0_linear_843_4864)"/>
<defs>
<linearGradient id="paint0_linear_843_4864" x1="17.619" y1="0.501952" x2="41.4935" y2="57.082" gradientUnits="userSpaceOnUse">
<stop stop-color="#FFA093"/>
<stop offset="1" stop-color="#FF6652"/>
</linearGradient>
</defs>
</svg>
