<svg width="60" height="61" viewBox="0 0 60 61" fill="none" xmlns="http://www.w3.org/2000/svg">
<path d="M49.9997 0.503418H9.99966C4.4404 0.547363 -0.033585 5.08404 -0.000303785 10.6434V41.0683C-0.033585 46.6281 4.44005 51.1654 9.99966 51.2108H17.3071L26.6771 59.2108C28.5331 60.907 31.3691 60.9319 33.2546 59.2684L42.8671 51.2083H49.9996C55.5592 51.163 60.0329 46.6256 59.9996 41.0659V10.6434C60.033 5.08404 55.559 0.547363 49.9997 0.503418ZM29.9997 8.10842C41.5372 8.41346 41.5347 25.551 29.9997 25.8585C18.4622 25.5508 18.4647 8.42084 29.9997 8.10842ZM40.6222 43.5234C39.2843 43.8648 37.9231 43.0569 37.5817 41.7191C37.5802 41.713 37.5787 41.707 37.5772 41.7009C36.2976 37.5153 31.8671 35.1595 27.6815 36.4391C25.162 37.2094 23.1899 39.1814 22.4197 41.7009C22.0703 43.0374 20.7037 43.8377 19.3672 43.4884C18.0306 43.139 17.2304 41.7724 17.5797 40.4359C19.5128 33.5758 26.6411 29.5817 33.5011 31.5149C37.8248 32.7333 41.2038 36.1122 42.4222 40.4359C42.7702 41.7845 41.9672 43.1618 40.6222 43.5234Z" fill="url(#paint0_linear_843_15)"/>
<defs>
<linearGradient id="paint0_linear_843_15" x1="17.6186" y1="0.503417" x2="45.2348" y2="60.5011" gradientUnits="userSpaceOnUse">
<stop stop-color="#FFA093"/>
<stop offset="1" stop-color="#FF6652"/>
</linearGradient>
</defs>
</svg>
