<svg width="24" height="24" viewBox="0 0 24 24" fill="none" xmlns="http://www.w3.org/2000/svg">
<path d="M17.367 13.5C16.561 13.5 15.834 13.946 15.336 14.58C14.5597 15.5704 13.5853 16.3878 12.475 16.98C11.752 17.364 11.125 17.936 10.822 18.695C10.6092 19.2268 10.4999 19.7942 10.5 20.367L10.5 21C10.5 21.1989 10.421 21.3897 10.2803 21.5303C10.1397 21.671 9.94891 21.75 9.75 21.75C9.15326 21.75 8.58096 21.5129 8.15901 21.091C7.73705 20.669 7.5 20.0967 7.5 19.5C7.5 18.348 7.76 17.257 8.223 16.282C8.489 15.724 8.11599 15 7.49799 15L4.372 15C3.346 15 2.427 14.306 2.318 13.285C2.273 12.863 2.25 12.435 2.25 12C2.24586 9.26365 3.18095 6.60877 4.89899 4.479C5.28699 3.997 5.88599 3.75 6.50399 3.75L10.52 3.75C11.003 3.75 11.484 3.828 11.943 3.98L15.057 5.02C15.5159 5.17262 15.9964 5.25028 16.48 5.25L18.096 5.25M9.75 15L7.5 15M18.096 5.25C18.013 5.045 17.923 4.845 17.826 4.648C17.629 4.248 17.904 3.75 18.349 3.75L19.257 3.75C20.146 3.75 20.97 4.268 21.229 5.118C21.5754 6.25475 21.7509 7.43665 21.75 8.625C21.75 10.178 21.455 11.661 20.919 13.023C20.613 13.797 19.833 14.25 19 14.25L17.947 14.25C17.475 14.25 17.202 13.694 17.447 13.29C18.3011 11.884 18.7516 10.2701 18.749 8.625C18.749 7.431 18.517 6.292 18.095 5.25L18.096 5.25Z" stroke="#6C688A" stroke-width="1.5" stroke-linecap="round" stroke-linejoin="round"/>
</svg>
