<svg width="46" height="46" viewBox="0 0 46 46" fill="none" xmlns="http://www.w3.org/2000/svg">
<path d="M43.6875 7.875V29.4375H2V7.875C2 7.1125 2.3029 6.38123 2.84207 5.84207C3.38123 5.3029 4.1125 5 4.875 5H40.8125C41.575 5 42.3063 5.3029 42.8454 5.84207C43.3846 6.38123 43.6875 7.1125 43.6875 7.875Z" fill="#B071F6"/>
<path d="M43.8438 29.4688V32.3438C43.8438 33.1062 43.5408 33.8375 43.0017 34.3767C42.4625 34.9158 41.7312 35.2188 40.9688 35.2188H5.03125C4.26875 35.2188 3.53748 34.9158 2.99832 34.3767C2.45915 33.8375 2.15625 33.1062 2.15625 32.3438V29.4688H43.8438Z" fill="#C6C5CA"/>
<path d="M28.75 40.9688H17.25L17.9688 35.2188H28.0312L28.75 40.9688Z" fill="#ACABB1"/>
<path d="M30.1875 40.9688C30.5679 40.9716 30.9319 41.1239 31.2008 41.3929C31.4698 41.6619 31.6222 42.0259 31.625 42.4062C31.6239 42.7871 31.472 43.1521 31.2027 43.4215C30.9334 43.6908 30.5684 43.8426 30.1875 43.8438H15.8125C15.4321 43.8409 15.0681 43.6886 14.7992 43.4196C14.5302 43.1506 14.3778 42.7866 14.375 42.4062C14.3761 42.0254 14.528 41.6604 14.7973 41.391C15.0666 41.1217 15.4316 40.9699 15.8125 40.9688H30.1875Z" fill="#898890"/>
<path d="M28.2109 36.6562H17.7891L17.9688 35.2188H28.0312L28.2109 36.6562Z" fill="#898890"/>
<path d="M38.8125 31.625H40.25V33.0625H38.8125V31.625Z" fill="#898890"/>
<path d="M33 11.1562V23.375H25.8125C25.4348 23.3745 25.0608 23.4486 24.7117 23.5929C24.3627 23.7372 24.0456 23.949 23.7785 24.216C23.5115 24.4831 23.2997 24.8002 23.1554 25.1492C23.0111 25.4982 22.937 25.8723 22.9375 26.25V11.875C22.9375 11.1125 23.2404 10.3812 23.7796 9.84207C24.3187 9.3029 25.05 9 25.8125 9H33V11.1562Z" fill="#EBECED"/>
<path d="M20.0625 9C20.825 9 21.5563 9.3029 22.0954 9.84207C22.6346 10.3812 22.9375 11.1125 22.9375 11.875V26.25C22.938 25.8723 22.8639 25.4982 22.7196 25.1492C22.5753 24.8002 22.3635 24.4831 22.0965 24.216C21.8294 23.949 21.5123 23.7372 21.1633 23.5929C20.8143 23.4486 20.4402 23.3745 20.0625 23.375H12.875V9H20.0625Z" fill="#E6E7E8"/>
<path d="M12.875 23.375V26.25H10V11.1562H12.875V23.375Z" fill="#C494F8"/>
<path d="M35.875 11.1562V26.25H33V23.375V11.1562H35.875Z" fill="#C494F8"/>
<path d="M33 23.375V26.25H22.9375C22.937 25.8723 23.0111 25.4983 23.1554 25.1492C23.2997 24.8002 23.5115 24.4831 23.7785 24.216C24.0456 23.949 24.3627 23.7372 24.7117 23.5929C25.0608 23.4486 25.4348 23.3745 25.8125 23.375H33Z" fill="#ACABB1"/>
<path d="M22.0966 24.2159C22.6339 24.7567 22.9361 25.4877 22.9375 26.25H12.875V23.375H20.0625C20.8248 23.3764 21.5558 23.6786 22.0966 24.2159Z" fill="#ACABB1"/>
<path d="M15.0312 11.1562H20.7812V12.5938H15.0312V11.1562Z" fill="#BCBEC0"/>
<path d="M15.0312 14.0312H20.7812V15.4688H15.0312V14.0312Z" fill="#BCBEC0"/>
<path d="M25.0938 11.1562H30.8438V12.5938H25.0938V11.1562Z" fill="#BCBEC0"/>
<path d="M25.0938 14.0312H30.8438V15.4688H25.0938V14.0312Z" fill="#BCBEC0"/>
<path d="M15.0312 16.9062H20.7812V18.3438H15.0312V16.9062Z" fill="#BCBEC0"/>
<path d="M25.0938 16.9062H30.8438V18.3438H25.0938V16.9062Z" fill="#BCBEC0"/>
<path d="M15.0312 19.7812H20.7812V21.2188H15.0312V19.7812Z" fill="#BCBEC0"/>
<path d="M25.0938 19.7812H30.8438V21.2188H25.0938V19.7812Z" fill="#BCBEC0"/>
</svg>
