<svg width="625" height="329" viewBox="0 0 625 329" fill="none" xmlns="http://www.w3.org/2000/svg">
<rect y="0.00341797" width="625" height="328" rx="20" fill="url(#paint0_linear_351_6131)"/>
<path d="M417.022 122.769C417.17 122.511 417.299 122.253 417.502 121.921C417.133 121.94 416.838 121.958 416.432 121.995C416.617 121.627 416.746 121.368 416.856 121.166C417.336 120.834 418.036 121.147 418.331 120.521C418.258 120.097 417.797 120.318 417.631 120.097C417.483 119.894 417.391 119.654 417.244 119.36C417.52 119.231 417.815 118.991 418.11 118.991C418.571 118.991 418.921 118.733 419.272 118.53C419.991 118.106 420.654 117.572 421.392 117.056C421.281 116.798 421.171 116.54 421.06 116.282C421.373 116.134 421.705 115.968 422.037 115.802C422.148 115.747 422.277 115.618 422.369 115.636C423.291 115.784 423.604 115.139 423.973 114.512C424.084 114.328 424.213 114.162 424.25 114.107C425.393 113.498 426.517 113.849 427.587 113.683C427.771 113.646 427.974 113.775 428.177 113.849C429.025 114.162 429.836 114.033 430.573 113.535C431.348 113.019 432.159 112.614 433.136 112.54C433.671 112.503 434.205 112.3 434.574 111.821C434.814 111.877 435.017 111.913 435.219 111.95C435.717 111.121 436.399 110.55 437.358 110.328C437.856 110.218 438.335 110.033 438.833 109.941C439.884 109.72 440.806 109.186 441.746 108.725C443.092 108.043 444.438 107.324 445.821 106.697C446.687 106.31 447.48 105.702 448.31 105.223C449.287 104.652 450.319 104.154 451.444 103.951L451.407 103.914C451.407 104.449 450.946 104.633 450.614 104.836C449.6 105.444 448.549 105.979 447.517 106.55C447.037 106.808 446.595 107.121 446.134 107.435C445.433 107.951 444.604 108.301 443.793 108.67C442.465 109.259 441.285 110.07 440.087 110.863C439.976 110.937 439.921 111.047 439.829 111.139C439.829 111.434 440.013 111.545 440.234 111.508C440.732 111.453 441.248 111.582 441.691 111.25C441.728 111.231 441.764 111.195 441.801 111.195C442.852 111.231 443.571 110.513 444.438 110.089C445.728 109.462 447.001 108.817 448.162 107.951C448.328 107.822 448.531 107.748 448.734 107.674C450.043 107.214 451.038 106.292 452.071 105.426C452.495 105.076 452.863 104.67 453.287 104.338C453.877 103.914 454.172 103.343 454.283 102.643L454.265 102.68C454.467 102.698 454.67 102.735 454.855 102.698C455.131 102.661 455.279 102.495 455.279 102.219C455.279 101.869 455.02 101.887 454.762 101.887L454.744 101.905C454.891 101.758 455.02 101.574 455.186 101.463C456.182 100.836 457.085 100.044 458.21 99.6568C459.058 99.3804 459.685 98.68 460.588 98.4957C460.699 98.4772 460.773 98.3298 460.865 98.2376C461.381 97.611 462.026 97.2792 462.893 97.2977C463.262 96.2655 464.313 96.413 465.032 95.9891C465.29 96.1918 465.124 96.3024 465.013 96.4314C464.976 96.4683 464.939 96.4867 464.921 96.5051C464.313 97.6294 463.262 98.2192 462.174 98.7721C461.953 98.8827 461.805 99.1039 461.602 99.2698C461.307 99.4909 461.049 99.749 460.662 99.8964C460.293 100.025 459.998 100.394 459.703 100.671C459.427 100.929 459.15 101.187 459.187 101.703C459.298 101.758 459.445 101.85 459.593 101.85C460.349 101.85 461.012 101.537 461.547 101.039C462.487 100.173 463.63 99.6015 464.626 98.809C465.29 98.2929 466.046 97.9059 466.802 97.5557C466.82 97.6294 466.82 97.7584 466.875 97.7769C466.967 97.8137 467.078 97.8137 467.189 97.8137L467.207 97.7216C467.152 97.6663 467.097 97.6294 467.023 97.611C466.949 97.5926 466.857 97.611 466.783 97.611C466.931 97.4635 467.06 97.2424 467.226 97.2055C467.981 97.0212 468.479 96.5051 468.866 95.8969C469.18 95.3993 469.585 95.0491 470.065 94.7173C470.434 94.4593 470.765 94.146 471.097 93.8326C471.171 93.7589 471.171 93.6115 471.226 93.3903C471.024 93.3903 470.858 93.3534 470.729 93.3903C470.028 93.6852 469.327 93.9801 468.664 94.2934C468.406 94.4224 468.203 94.6436 467.981 94.8279C467.392 95.3071 466.746 95.6942 466.009 95.9153C465.953 95.9338 465.861 95.86 465.788 95.8232C465.935 95.2334 466.654 95.215 466.912 94.7173L466.875 94.7358C467.023 94.6252 467.336 94.4593 467.318 94.3856C467.17 93.8879 467.484 93.593 467.834 93.5009C468.701 93.2981 469.309 92.7268 469.973 92.2476C470.212 92.0817 470.489 91.9711 470.747 91.8052C470.876 91.7131 471.042 91.6209 471.134 91.4919C471.687 90.6994 472.425 90.2017 473.328 89.8884C473.752 89.741 474.102 89.4092 474.471 89.1327C474.711 88.9484 474.858 89.0775 475.024 89.188L474.951 89.2249L475.006 89.1696C475.264 89.0959 475.504 89.0037 475.762 88.93L475.743 88.8931C475.43 89.2249 475.135 89.5567 474.84 89.87C475.117 90.4598 475.301 90.5888 475.651 90.4045C476.131 90.1464 476.591 89.8515 477.052 89.5382C477.384 89.2986 477.661 88.93 478.122 88.8931C478.195 88.8931 478.288 88.8378 478.343 88.7826C478.878 88.1559 479.486 87.6583 480.223 87.3081C480.537 86.5893 481.201 86.6077 481.809 86.5708C481.957 86.1101 481.606 86.1654 481.403 86.0916L481.44 86.1101C481.92 85.7783 482.399 85.4466 482.897 85.1332C483.21 84.9305 483.561 84.7462 483.966 84.8936C484.187 84.9673 484.372 84.9305 484.519 84.7277C484.759 84.396 485.183 84.2301 485.367 83.8246C485.478 83.585 485.773 83.5297 486.031 83.6219L486.013 83.585C485.92 83.714 485.791 83.8431 485.718 83.9905C485.441 84.4881 485.607 84.8752 486.068 85.2254C486.695 84.7277 487.34 84.2854 487.93 83.7693C488.668 83.1058 489.46 82.7741 490.456 83.0505C490.843 83.1611 491.12 82.9952 491.304 82.6819C491.378 82.5529 491.322 82.3686 491.341 82.2211C491.156 82.2027 491.027 82.1843 490.898 82.1843C490.898 82.1105 490.861 82.0184 490.898 81.9815C491.101 81.8157 491.304 81.6866 491.507 81.5392C491.82 81.318 492.152 81.1337 492.429 80.9125C492.89 80.5439 493.332 80.2122 493.904 80.0278C494.401 79.8804 494.899 79.6592 495.378 79.4381C495.839 79.2169 496.134 78.6824 496.558 78.3322C496.872 78.0742 497.259 77.853 497.628 77.6871C498.31 77.4107 498.9 77.042 499.361 76.4707C500.025 77.1526 500.338 77.1342 500.836 76.3969C500.891 76.3048 500.983 76.2311 501.057 76.1389L501.039 76.1205C501.075 76.1758 501.112 76.2495 501.149 76.3048C501.204 76.2495 501.278 76.1758 501.334 76.1205L501.315 76.1389C501.665 75.844 502.034 75.5491 502.403 75.2911C502.901 74.9225 503.509 75.0146 504.081 74.9409C504.191 74.9225 504.376 75.1068 504.468 75.2174C504.671 75.4938 504.837 75.7887 505.021 76.0652C504.892 76.4522 504.744 76.8393 504.652 77.2448C504.597 77.5028 504.855 77.7424 505.132 77.6871C505.261 77.6687 505.39 77.6503 505.482 77.5765C505.998 77.2079 506.551 76.8762 506.975 76.4338C507.436 75.9546 507.879 75.6966 508.505 75.9362C509.206 75.4017 509.796 74.7566 510.663 74.5723C511.474 73.835 512.561 73.448 513.244 72.5633L513.207 72.5449C513.281 72.7292 513.317 72.9688 513.465 73.0609C513.649 73.2084 513.907 73.2637 514.129 73.3558C514.682 73.1162 515.198 72.8766 515.806 72.6186C515.899 72.7845 515.991 72.9504 516.12 73.0978C516.341 73.3743 516.599 73.4296 516.894 73.2821C517.226 73.1162 517.484 72.7845 517.908 72.8582L517.89 72.8213C517.318 73.6323 516.507 74.0746 515.604 74.3142C514.719 74.5539 513.981 75.0146 513.225 75.4938C512.986 75.6413 512.672 75.8809 512.635 76.1205C512.525 76.7656 512.064 76.9867 511.566 77.2448C510.755 77.6687 510.109 78.24 509.907 79.1985C509.833 79.5486 510.017 79.7514 510.386 79.6961C510.884 79.6224 511.363 79.5486 511.935 79.4565C512.101 79.2353 512.303 78.9589 512.506 78.6824C513.133 77.7608 514.073 77.4475 515.106 77.3554C515.364 77.3369 515.622 77.4107 515.788 77.171C515.935 76.9683 516.046 76.7471 516.138 76.526C516.194 76.4154 516.194 76.3048 516.212 76.1942C516.341 76.1758 516.433 76.1389 516.507 76.1758C517.318 76.5813 517.871 76.1573 518.369 75.5676C518.498 75.4017 518.609 75.2174 518.719 75.0331C518.812 74.904 518.885 74.7013 519.033 74.646C520.047 74.2405 520.231 73.0425 521.098 72.4896C521.171 72.4343 521.171 72.1394 521.098 72.0657C521.006 71.9735 520.784 71.9551 520.655 72.0104C520.25 72.1578 519.936 72.4343 519.697 72.8029C519.567 73.0057 519.383 73.1715 519.18 73.3927C518.812 73.0794 518.498 72.8213 518.185 72.5449L518.222 72.5633C518.996 72.0657 519.862 71.6971 520.489 70.9782C520.655 70.7939 520.932 70.7386 521.153 70.6096C521.688 70.2779 522.241 69.9461 522.775 69.6144C523.107 69.4116 523.365 68.9877 523.882 69.1904C523.974 69.2273 524.195 69.0614 524.269 68.9324C524.49 68.5269 524.656 68.103 524.859 67.6607C525.117 67.5685 525.486 67.5501 525.633 67.3473C525.91 66.9972 526.057 66.5548 526.26 66.1678C526.573 66.0756 526.924 65.9835 527.256 65.8913C527.292 66.2415 527.403 66.6285 527.329 66.9787C527.182 67.7897 527.569 68.361 528.03 68.914C528.436 69.3932 528.823 69.8908 529.21 70.3516C529.615 70.4069 529.874 70.2594 530.095 69.9645C530.482 69.4116 530.906 68.8955 531.312 68.3795C531.883 68.4532 531.809 69.0614 532.252 69.3195C532.621 69.3195 533.082 69.3195 533.598 69.3195C533.874 70.0198 534.151 70.6465 533.579 71.3284C533.469 71.4575 533.506 71.7155 533.469 71.9182C534.003 72.1947 534.52 72.0472 534.999 72.0841L534.981 72.0657C535.165 72.25 535.405 72.3974 535.515 72.6002C535.958 73.4664 536.732 73.5033 537.47 73.2821C538.096 73.0978 538.705 73.0425 539.35 73.0794C539.811 73.0978 540.18 72.9688 540.493 72.6555C540.991 72.1394 541.544 71.6971 541.821 70.9782C542.06 70.3516 542.65 69.9461 543.13 69.5406C544.144 69.5222 544.457 70.4069 545.121 70.9045C544.789 71.181 544.457 71.439 544.144 71.6971C544.125 72.0657 544.236 72.4527 543.849 72.7292C543.609 72.8951 543.664 73.19 543.812 73.4111C543.978 73.6876 544.217 73.835 544.549 73.7798C544.844 73.7245 545.139 73.6692 545.416 73.6139C546.098 73.4849 546.577 73.0978 546.817 72.4527C546.946 72.121 547.112 71.8998 547.352 71.6418C547.647 71.3284 547.794 70.8492 548.015 70.4069C548.384 70.2963 548.79 70.1673 549.251 70.0198C549.324 69.2457 549.767 68.7481 550.56 68.5638C550.855 68.4901 551.113 68.3795 551.408 68.2873C552.33 67.974 552.514 67.7344 552.661 66.6654C552.256 66.3889 551.85 66.094 551.426 65.7991C551.555 65.2646 551.666 64.7854 551.776 64.2878C551.463 63.9008 551.021 63.7349 550.596 63.569C550.172 63.4031 549.748 63.1819 549.287 63.0714C548.808 62.9423 548.31 62.8871 547.72 62.7765C547.61 62.6843 547.444 62.5 547.241 62.3526C547.038 62.2051 546.817 62.0945 546.596 61.9655C546.559 61.5969 546.522 61.2651 546.504 60.9334L546.485 60.9702C547.204 60.8596 547.923 60.8044 548.513 61.3757C548.605 61.4494 548.771 61.5232 548.863 61.4863C549.453 61.3204 549.785 61.6337 550.154 62.0392C550.32 62.242 550.67 62.3157 550.947 62.3526C551.481 62.4447 552.035 62.4631 552.588 62.5184C552.754 62.5369 552.938 62.5553 553.085 62.5C553.62 62.2788 554.173 62.4447 554.726 62.4078C555.113 62.3894 555.353 62.6106 555.611 62.8686C555.574 63.1819 555.427 63.5321 555.519 63.8086C555.593 64.0482 555.925 64.1957 556.127 64.3984C556.183 64.6196 555.98 64.6749 555.851 64.767C555.187 65.1356 555.113 65.3199 555.445 65.7807C555.703 66.1309 555.777 66.4442 555.722 66.8497C555.648 67.5132 555.574 68.1767 555.501 68.8955C555.74 69.1536 556.164 69.3379 556.257 69.8171C556.293 69.983 556.496 70.2226 556.662 70.2594C557.215 70.3885 557.547 70.7386 557.805 71.1994C557.934 71.4206 558.1 71.5127 558.321 71.4575C558.616 71.3837 558.69 71.1073 558.672 70.8492C558.653 70.5912 558.58 70.3516 558.543 70.0936C558.506 69.8908 558.469 69.6881 558.432 69.4485C559.28 69.1167 559.962 69.3932 560.589 69.8724C560.921 70.112 561.216 70.4253 561.548 70.7386C561.622 71.3653 561.622 71.3653 562.285 71.9551C563.373 71.3837 564.498 70.8124 565.678 70.2041C565.881 70.2594 566.157 70.3516 566.452 70.4069C567.134 70.5543 567.3 70.4806 567.65 69.8171C567.724 69.6696 567.798 69.5222 567.89 69.3379C568.499 69.2642 569.199 69.3563 569.476 68.3426C569.642 68.7481 569.734 68.8587 569.715 68.9508C569.531 69.7618 569.476 70.6281 569.033 71.3653C568.923 71.5496 568.867 71.7523 568.775 71.9367C568.314 72.8029 568.48 73.6876 568.72 74.5354C568.812 74.8856 569.107 75.1805 569.347 75.5307C569.144 76.3601 568.701 77.1526 568.277 77.9083C567.927 78.5349 567.577 79.1063 567.374 79.8251C567.189 80.4886 566.931 81.1706 566.452 81.7604C566.249 82.0184 566.065 82.3501 566.028 82.6635C565.936 83.4376 566.36 84.1195 566.452 84.8752C566.507 85.336 566.895 85.6862 567.319 85.9258C567.392 85.9626 567.429 86.0548 567.484 86.1101C567.761 86.9948 567.392 87.8426 567.319 88.6904C567.282 89.1143 566.987 89.4461 566.563 89.6304C566.139 89.8147 565.733 90.0543 565.327 90.2939C564.424 90.81 563.852 91.5472 563.816 92.6346C563.816 92.7636 563.76 92.8742 563.76 93.0032C563.76 93.0401 563.779 93.077 563.816 93.206C564.129 93.4456 564.479 93.7036 564.903 94.0169C564.553 94.4962 564.221 94.9385 563.926 95.3255C563.908 95.9522 564.442 95.9522 564.756 96.2102C564.701 96.3208 564.664 96.4498 564.608 96.5604L564.627 96.4498V96.5236C564.442 96.8 564.147 96.7263 563.871 96.7447L563.889 96.7632C563.797 96.7632 563.687 96.7632 563.594 96.7632L563.631 96.7263C563.631 96.8185 563.631 96.929 563.631 97.0212L563.613 97.0028C563.502 97.482 562.912 97.4451 562.728 97.869C562.746 98.1271 562.746 98.4957 563.078 98.5694C563.576 98.68 564.092 98.6431 564.516 98.2929C564.645 98.1823 564.756 98.0349 564.811 97.8875C565.125 97.1133 565.678 96.4867 566.102 95.7863C566.47 95.1781 566.968 94.791 567.521 94.404C567.909 94.146 568.314 94.1644 568.701 94.4409L568.757 94.4777L568.664 94.4593C568.775 94.404 568.867 94.3487 568.978 94.2934C569.052 94.3671 569.144 94.4409 569.144 94.4777C568.978 95.3255 569.439 96.0075 569.752 96.7079L569.789 96.6894C569.697 96.7816 569.586 96.8922 569.494 96.9843L569.513 96.9659C569.07 97.1871 569.402 97.5373 569.365 97.8506C569.052 98.0165 568.628 98.0902 568.517 98.5141C568.443 98.551 568.369 98.6063 568.296 98.6431C568.333 98.6431 568.388 98.68 568.388 98.6615C568.425 98.6063 568.462 98.5325 568.48 98.4772C568.628 98.551 568.757 98.6247 568.941 98.7168C568.757 98.938 568.609 99.1408 568.462 99.3066C568.259 99.5278 568.222 99.749 568.222 100.062C568.222 100.431 568.167 100.91 567.743 101.187C567.54 101.334 567.448 101.647 567.337 101.813C567.595 102.2 567.779 102.514 567.982 102.827C567.909 102.845 567.706 102.79 567.872 102.993C567.909 102.938 567.927 102.864 567.964 102.809C568.074 102.845 568.204 102.882 568.296 102.938C568.554 103.085 568.738 103.048 568.83 102.735C568.849 102.679 568.941 102.643 568.996 102.606L568.959 102.587C568.886 102.827 568.849 103.085 568.72 103.288C568.609 103.509 568.406 103.675 568.277 103.859C568.683 104.615 568.72 104.633 568.333 105.223C568.074 105.592 568.093 106.089 567.706 106.421C567.521 106.587 567.835 107.103 568.111 107.048C568.572 106.955 568.941 107.029 569.31 107.287C569.31 107.545 569.31 107.803 569.31 108.098C569.181 108.098 569.052 108.135 568.941 108.098C568.535 107.951 568.13 107.803 567.816 108.283C567.872 108.412 567.945 108.559 568.038 108.762C567.614 108.928 567.208 109.093 566.821 109.259C566.895 109.757 567.19 110.015 567.466 110.273L567.448 110.255C567.466 110.531 567.466 110.808 567.521 111.084C567.558 111.287 567.392 111.268 567.3 111.324C566.692 111.784 566.6 112.448 566.544 113.13C566.526 113.443 567.042 113.757 567.3 113.554C567.927 113.056 568.701 112.982 569.42 112.761C569.863 112.485 569.844 111.692 570.637 111.711C570.674 112.466 570.416 113.056 569.715 113.406C569.973 114.07 570.969 113.591 571.098 114.383C570.563 114.567 570.066 114.604 569.568 114.254C569.383 114.125 569.07 114.051 568.923 114.42C569.107 114.641 569.273 114.862 569.476 115.065C569.586 115.194 569.734 115.378 569.863 115.36C570.84 115.323 571.393 116.208 572.26 116.411C572.481 116.466 572.555 116.853 572.37 116.927C571.965 117.074 571.817 117.369 571.725 117.774C571.67 118.032 571.448 118.272 571.282 118.567C572.296 119.157 573.274 119.599 574.398 119.636C574.601 119.636 574.841 119.618 575.007 119.507C575.578 119.083 576.224 118.788 576.887 118.512C577.108 118.42 577.311 118.254 577.477 118.069C578.049 117.498 578.547 117.48 579.063 118.032C579.321 118.309 579.579 118.567 579.911 118.917C579.874 119.157 579.819 119.489 579.763 119.894C579.929 119.986 580.151 120.097 580.39 120.244C581.736 118.678 583.064 117.148 584.391 115.6C584.76 115.987 585.073 116.3 585.423 116.65C585.866 116.3 586.253 115.987 586.603 115.71C586.751 115.747 586.861 115.729 586.898 115.784C587.193 116.079 587.451 116.411 587.746 116.687C588.06 116.982 588.539 116.687 588.926 117C589.166 117.203 589.645 117.093 590.088 117.129C590.199 117.535 590.088 117.94 590.051 118.346C590.014 118.714 589.867 119.083 589.848 119.47C589.83 120.17 589.719 120.816 589.111 121.276C588.576 122.659 587.433 123.599 586.585 124.741C586.419 124.963 586.29 125.128 586.308 125.405C586.345 126.105 586.198 126.75 585.663 127.266C585.608 127.322 585.571 127.414 585.534 127.488C585.202 128.114 585.35 128.557 585.995 128.815C586.198 128.888 586.401 128.907 586.622 128.962L586.603 128.925C586.548 129.036 586.419 129.183 586.456 129.257C586.677 129.791 586.622 130.326 586.364 130.787C586.806 131.377 587.193 131.911 587.617 132.464C588.189 132.464 588.76 132.409 589.387 132.869C589.424 132.962 589.406 133.22 589.148 133.459C588.89 133.68 588.668 133.938 588.429 134.178C588.097 134.491 587.968 134.878 587.931 135.358C588.152 135.505 588.373 135.671 588.613 135.837C588.429 136.169 588.318 136.39 588.207 136.611C588.3 136.98 588.982 137.569 589.314 137.551C589.424 137.551 589.59 137.514 589.664 137.422C590.106 136.795 590.678 136.961 591.268 137.109C591.71 137.219 592.153 137.385 592.577 137.514C592.835 137.348 593.093 137.182 593.314 137.053C593.831 137.182 594.033 137.532 594.218 137.883C594.218 138.307 593.849 138.325 593.646 138.528C593.13 139.025 592.651 139.56 591.876 139.652C591.692 139.67 591.526 139.873 591.36 140.021C591.01 140.334 590.659 140.629 590.346 140.979C590.106 141.256 589.922 141.569 589.774 141.772C589.756 142.288 590.604 142.122 590.18 142.656C590.346 142.712 590.42 142.767 590.494 142.748C591.047 142.675 591.508 142.509 591.987 142.177C592.835 141.587 593.72 141.034 594.826 140.868C595.969 140.703 596.928 140.039 597.868 139.376C598.219 139.118 598.569 138.988 599.011 138.896C599.472 138.786 600.007 138.804 600.431 138.472C600.707 138.251 601.058 138.251 601.408 138.362L601.39 138.343C601.353 138.472 601.261 138.657 601.297 138.694C601.832 139.283 602.09 140.094 602.883 140.574C603.381 140.555 603.934 140.537 604.21 139.928C604.469 139.339 604.321 138.988 603.602 138.288C603.897 138.067 604.192 137.993 604.505 138.214C604.708 138.362 604.911 138.509 605.114 138.675C605.317 138.841 605.501 139.007 605.667 139.136C605.667 139.56 605.685 139.892 605.667 140.242C605.649 140.647 605.759 140.997 605.962 141.329C606.073 141.514 606.22 141.679 606.294 141.864C606.626 142.638 606.921 143.375 606.81 144.278C606.663 145.55 606.46 146.766 606.054 148.001C605.667 149.199 605.519 150.471 605.224 151.706C605.077 152.277 604.856 152.83 604.616 153.365C604.155 154.489 603.639 155.613 603.178 156.738C602.736 157.843 602.164 158.876 601.629 159.926C600.91 161.382 599.804 162.543 598.938 163.889C598.348 164.81 597.739 165.732 597.204 166.672C596.578 167.796 595.766 168.791 594.9 169.694C594.07 170.561 593.462 171.556 592.872 172.588C592.817 172.699 592.761 172.828 592.743 172.938C592.522 173.989 592.522 173.989 591.968 174.745C592.024 174.892 592.061 175.039 592.134 175.205C592.319 175.592 592.263 175.943 591.987 176.274C591.637 176.698 591.342 177.159 591.139 177.675C591.01 178.007 590.918 178.265 591.102 178.633C591.268 178.947 591.176 179.297 590.936 179.592C590.623 179.979 590.328 180.403 589.959 180.753C589.166 181.509 588.373 182.283 587.322 182.688C587.212 182.744 587.101 182.854 586.991 182.873C586.179 182.965 585.663 183.536 585.073 184.034C584.483 184.531 583.856 184.955 583.266 185.435C582.418 186.116 581.496 186.725 580.814 187.609C579.929 187.904 579.505 188.771 578.786 189.287C578.122 189.766 577.569 190.411 576.979 191.019C576.058 191.959 575.173 192.917 574.232 193.839C573.421 194.632 572.499 195.314 571.872 196.272C571.614 196.659 571.098 196.714 570.932 197.249C570.822 197.654 570.397 197.986 570.084 198.336C569.789 198.686 569.457 199.018 569.144 199.368C568.978 199.553 568.812 199.755 568.609 199.903C567.724 200.566 567.153 201.525 566.305 202.244C566.268 202.262 566.231 202.299 566.212 202.336C564.996 204.382 562.967 205.616 561.271 207.201C560.202 208.215 559.004 209.1 557.861 210.058C557.602 210.611 556.902 210.63 556.588 211.201C556.33 211.68 555.703 211.957 555.243 212.325C554.782 212.694 554.376 213.136 553.897 213.468C553.454 213.763 553.159 214.168 552.919 214.611C552.422 215.514 551.703 216.214 550.91 216.878C549.877 217.744 548.882 218.666 547.813 219.421C547.886 220.158 547.628 220.767 547.13 221.172C545.987 222.112 544.955 223.181 543.812 224.103C543.72 224.176 543.609 224.25 543.498 224.324L543.461 224.269L543.517 224.305C542.355 225.19 541.194 226.093 540.032 226.978C539.092 227.697 538.152 228.397 537.211 229.097C536.824 229.079 536.88 229.54 536.603 229.632L536.621 229.669C536.529 229.503 536.419 229.466 536.308 229.669L536.326 229.632C536.326 229.743 536.326 229.853 536.345 229.945L536.308 229.927C534.981 230.977 533.653 232.028 532.344 233.079C530.722 234.369 529.228 235.806 527.421 236.857C526.997 237.096 526.702 237.557 526.315 237.889C526.002 238.165 525.67 238.424 525.32 238.663C524.859 238.976 524.343 239.198 523.919 239.529C522.757 240.469 521.522 241.262 520.286 242.091C519.125 242.865 518.037 243.732 516.894 244.524C516.138 245.059 515.345 245.556 514.534 246.017C514.129 246.238 513.649 246.312 513.244 246.496C513.022 246.588 512.727 246.773 512.672 246.957C512.543 247.492 512.082 247.528 511.732 247.731C511.031 248.137 510.921 248.063 510.626 247.123C510.884 246.828 511.142 246.515 511.418 246.201C511.861 245.704 512.359 245.372 513.096 245.483C513.317 245.519 513.631 245.446 513.815 245.317C514.645 244.672 515.438 243.971 516.249 243.289C516.286 243.271 516.304 243.216 516.341 243.142C516.304 242.847 516.286 242.534 516.249 242.183C516.157 242.183 516.009 242.128 515.917 242.165C514.534 242.865 513.133 243.584 511.75 244.303C510.828 244.782 509.833 245.132 508.911 245.612C508.192 245.98 507.491 246.367 506.772 246.717C506.477 246.865 506.146 246.92 505.832 247.012C505.795 246.865 505.795 246.773 505.777 246.699C505.74 246.533 505.74 246.312 505.629 246.238C505.482 246.128 505.242 246.054 505.039 246.054C504.855 246.072 504.652 246.201 504.468 246.294C503.62 246.699 502.753 247.031 501.721 246.717C501.647 246.975 501.555 247.215 501.481 247.492C500.172 248.081 498.845 248.69 497.48 249.261C497.222 249.372 496.909 249.408 496.614 249.39C496.282 249.353 495.968 249.169 495.655 249.15C495.378 249.132 495.102 249.279 494.715 249.39C494.844 249.113 494.881 248.948 494.991 248.837C495.249 248.561 495.323 248.247 495.157 247.897C495.047 247.657 494.954 247.363 495.139 247.178C495.6 246.699 495.508 246.183 495.378 245.648C495.342 245.483 495.286 245.335 495.249 245.169C495.268 245.169 495.305 245.151 495.323 245.151C495.286 245.169 495.268 245.169 495.231 245.188C494.881 244.745 494.291 244.893 493.83 244.672C493.682 244.598 493.424 244.727 493.24 244.819C492.779 245.022 492.336 245.28 491.875 245.464C491.654 245.556 491.396 245.575 491.138 245.593C490.788 245.593 490.751 245.538 490.474 244.893C490.972 244.395 491.433 243.824 491.064 243.031C490.732 242.331 490.382 241.631 489.147 241.778C489.608 241.372 489.921 241.151 490.161 240.875C490.566 240.414 490.327 239.806 489.7 239.787C489.073 239.769 488.409 239.751 487.838 240.082C487.377 240.34 486.934 240.691 486.381 241.078C486.252 241.059 485.957 241.022 485.681 240.985C485.625 240.875 485.57 240.801 485.57 240.746C485.681 240.101 485.81 239.456 485.957 238.755C485.201 238.516 484.814 237.981 484.648 237.299C484.611 237.115 484.63 236.82 484.74 236.709C485.183 236.304 485.109 235.806 485.109 235.327C484.888 235.106 484.704 234.903 484.501 234.7C484.519 234.7 484.556 234.682 484.575 234.682C484.556 234.7 484.519 234.719 484.501 234.719C482.915 235.124 481.348 235.64 479.873 236.396C479.431 236.617 478.988 236.875 478.527 237.096C478.343 236.949 478.38 236.802 478.546 236.691C478.822 236.507 479.136 236.359 479.412 236.175C479.892 235.88 480.297 235.511 480.334 234.829C480.168 234.608 479.965 234.332 479.763 234.037C479.836 233.816 479.855 233.521 480.002 233.355C480.371 233.005 480.389 232.655 480.223 232.212C480.168 232.065 480.223 231.881 480.223 231.715C480.574 231.457 480.924 231.217 481.238 230.941C481.532 230.683 481.698 230.369 481.717 229.945C481.717 229.558 481.532 229.319 481.238 229.042C480.74 229.226 480.205 229.411 479.965 229.945C479.707 230.535 479.283 230.812 478.712 230.83C477.956 230.885 477.587 231.309 477.421 231.973C477.108 232.083 476.831 232.212 476.555 232.268C476.204 232.341 475.965 232.526 475.688 232.747C475.301 233.06 474.877 233.337 474.434 233.558C473.125 234.221 471.816 234.903 470.544 235.677C470.212 235.88 469.936 236.157 469.604 236.322C469.272 236.488 469.032 236.82 468.59 236.783C468.461 236.765 468.258 236.875 468.184 237.004C467.576 237.889 466.58 238.202 465.732 238.755C464.46 239.585 463.17 240.359 461.897 241.207C461.51 241.465 461.215 241.833 460.883 242.147C460.644 242.368 460.404 242.626 460.146 242.829C459.943 242.976 459.722 243.068 459.814 243.418C459.832 243.51 459.556 243.75 459.372 243.805C458.726 244.027 458.099 244.266 457.436 244.377C456.754 244.487 456.145 244.69 455.555 245.059C455.15 245.317 454.744 245.704 454.172 245.556V245.593C454.191 245.39 454.228 245.188 454.265 244.911C453.232 244.579 452.255 244.192 451.167 244.856C450.928 244.672 450.669 244.487 450.393 244.285C450.024 244.229 449.729 244.395 449.471 244.616C449.25 244.801 448.973 244.856 448.77 244.672C448.457 244.432 448.144 244.469 447.812 244.598C447.332 244.819 446.853 244.893 446.355 244.838C446.042 244.487 445.968 244.119 446.116 243.75C446.392 243.068 446.245 242.423 445.986 241.796C445.802 241.372 445.839 241.022 445.986 240.58C446.281 239.751 446.152 239.493 445.47 238.94C445.212 238.718 444.936 238.663 444.641 238.7C444.309 238.755 443.995 238.884 443.682 239.013C443.479 239.087 443.313 239.234 443.129 239.327C442.115 239.787 441.912 239.511 441.525 238.921C441.433 238.774 441.322 238.645 441.23 238.516C440.197 238.202 439.22 238.239 438.298 238.811C438.132 238.921 437.893 238.995 437.708 238.976C437.008 238.94 436.363 239.124 435.736 239.364C434.869 239.695 434.095 239.658 433.357 239.032C433.081 238.792 432.73 238.626 432.325 238.589C431.882 238.553 431.809 238.276 432.011 237.871C432.288 237.355 432.565 236.82 432.86 236.322C433.081 235.935 433.136 235.585 432.933 235.124C432.786 234.793 432.841 234.387 432.786 234C432.694 233.244 432.288 232.839 431.532 232.857C430.85 232.857 430.186 232.95 429.504 232.986C429.209 233.005 428.914 233.023 428.638 232.968C428.011 232.839 427.402 232.71 426.757 232.821C426.499 232.876 426.13 232.784 425.927 232.618C425.245 232.12 424.434 231.825 423.862 231.18C423.512 230.793 423.107 230.517 422.553 230.498C422.369 230.498 422.185 230.314 422 230.222C421.613 229.392 421.89 228.637 422.295 227.918C422.498 227.549 422.701 227.199 422.904 226.83C423.088 226.462 423.438 226.167 423.752 225.89C424.139 225.522 424.36 225.098 424.508 224.508C423.346 224.471 422.203 224.14 421.281 225.061C421.005 224.987 420.765 224.932 420.489 224.877C420.489 224.582 420.47 224.324 420.489 224.084C420.525 223.55 420.673 223.034 420.452 222.481C420.249 221.983 420.433 221.522 420.728 221.062C421.668 219.606 422.793 218.278 423.66 216.767C423.881 216.38 424.323 216.122 424.674 215.827C425.042 215.514 424.987 215.145 424.508 214.979C424.231 214.887 423.936 214.85 423.678 214.795C422.59 215.532 422.24 216.97 420.949 217.541C420.71 217.191 420.47 216.859 420.212 216.491C420.028 216.601 419.862 216.657 419.751 216.767C419.069 217.449 418.387 218.149 417.705 218.85C417.354 219.218 417.207 219.606 417.336 220.122C417.41 220.398 417.428 220.711 417.391 220.988C417.354 221.227 417.41 221.393 417.539 221.578C417.815 221.928 417.594 222.223 417.373 222.481C417.188 222.702 416.912 222.739 416.691 222.573C416.322 222.296 416.008 221.983 415.621 221.633C415.787 220.951 415.455 220.251 415.732 219.55C415.806 219.347 415.732 219.016 415.603 218.831C415.142 218.205 415.234 217.56 415.492 216.896C415.511 216.859 415.492 216.804 415.492 216.693C414.994 216.362 415.068 215.717 414.81 215.145C414.663 215.09 414.497 215.053 414.349 214.998C413.224 214.684 413.224 214.684 412.339 215.348C412.118 215.053 412.339 214.85 412.505 214.684C412.985 214.205 413.427 213.708 413.907 213.21C414.81 212.27 415.824 211.422 416.783 210.519C417.87 209.505 418.921 208.473 419.991 207.441C420.083 207.349 420.157 207.109 420.101 207.017C420.046 206.907 419.825 206.814 419.677 206.833C419.309 206.851 418.921 206.925 418.553 206.98C418.313 207.017 418.055 207.072 417.815 207.109C417.705 206.98 417.631 206.888 417.557 206.796C417.391 206.612 417.262 206.335 417.059 206.262C416.727 206.132 416.377 206.28 416.119 206.52C415.787 206.833 415.492 207.201 415.179 207.552C414.921 207.828 414.699 208.16 414.423 208.399C413.888 208.879 413.261 209.266 412.782 209.8C412.321 210.335 412.026 210.998 411.62 211.588C411.418 211.901 411.196 212.233 410.772 212.325C410.275 212.233 410.072 211.846 410.035 211.422C410.016 211.072 410.238 210.814 410.533 210.593C410.938 210.298 411.289 209.911 411.62 209.524C412.118 208.952 412.561 208.326 413.261 207.957C413.464 207.847 413.612 207.589 413.778 207.423C413.962 207.257 414.109 206.999 414.331 206.943C415.013 206.722 415.308 206.132 415.658 205.635C415.953 205.229 415.953 204.732 415.732 204.308C415.529 203.902 415.197 203.552 414.902 203.184C414.589 202.796 414.109 202.741 413.667 202.723C413.335 202.17 413.224 201.672 413.483 201.119C413.759 200.493 413.999 199.866 414.736 199.608C415.087 199.479 415.382 199.202 415.677 198.981C416.322 198.502 417.004 198.078 417.834 197.968C418.036 197.931 418.239 197.857 418.424 197.765C419.733 197.083 421.005 196.327 422.24 195.535C422.922 195.111 423.567 194.632 424.268 194.263C425.909 193.378 427.365 192.217 428.933 191.203C429.762 190.669 430.481 190.024 431.034 189.194C431.145 189.029 431.2 188.807 431.292 188.531C430.297 188.365 429.412 188.31 428.656 189.047C428.195 189.508 427.716 189.913 426.978 189.747L426.997 189.766C427.273 189.526 427.531 189.268 427.826 189.029C428.379 188.568 428.951 188.144 429.486 187.665C430.334 186.909 431.108 186.061 431.993 185.342C432.73 184.734 433.265 183.997 433.781 183.223C434.169 182.67 434.556 182.117 435.072 181.656C435.422 181.343 435.422 181.324 435.588 180.587C435.367 180.329 435.127 180.44 434.906 180.569C433.579 181.324 432.38 182.264 431.274 183.297C430.758 183.776 430.131 184.181 429.799 184.863C429.707 185.066 429.43 185.195 429.209 185.305C428.508 185.711 427.863 186.172 427.273 186.725C426.425 187.499 425.522 188.199 424.471 188.66C424.268 188.494 424.416 188.347 424.526 188.254C425.282 187.499 426.02 186.762 426.794 186.024C427.015 185.822 427.255 185.637 427.494 185.471C428.343 184.826 429.191 184.218 429.559 183.149C429.652 182.891 429.891 182.688 430.02 182.43C430.094 182.264 430.094 182.043 430.112 181.859C429.854 181.564 429.615 181.73 429.43 181.877C428.914 182.301 428.379 182.744 427.919 183.223C427.476 183.684 426.978 184.052 426.425 184.384C426.02 184.624 425.688 184.937 425.282 185.195C425.116 185.306 424.913 185.324 424.581 185.416C424.784 184.771 425.245 184.513 425.522 184.126C425.817 183.72 426.204 183.389 426.204 182.873C426.02 182.633 425.854 182.744 425.725 182.836C425.448 183.02 425.19 183.26 424.932 183.462C424.379 183.923 423.844 184.402 423.18 184.697C422.848 184.845 422.553 185.121 422.277 185.379C421.632 185.932 421.023 186.522 420.341 187.038C419.124 187.96 418.055 189.047 416.875 190.005C416.617 190.227 416.414 190.521 416.027 190.54C415.879 190.54 415.64 190.54 415.566 190.448C415.455 190.3 415.4 190.061 415.437 189.876C415.474 189.692 415.621 189.471 415.769 189.342C416.912 188.457 417.668 187.204 418.663 186.172C419.032 185.785 419.419 185.398 419.659 184.882C419.843 184.513 420.175 184.2 420.47 183.905C420.913 183.462 421.373 183.002 421.871 182.615C422.369 182.209 422.553 181.675 422.646 181.048C422.387 180.882 422.148 180.716 421.945 180.587C421.798 180.642 421.705 180.642 421.632 180.679C419.972 182.062 418.313 183.462 416.654 184.845C416.488 184.974 416.322 185.103 416.137 185.213C415.603 185.545 415.455 185.508 414.81 184.826C415.824 183.684 416.912 182.559 417.299 180.9C417.133 180.9 416.986 180.864 416.856 180.9C415.806 181.214 415.05 181.969 414.183 182.578C413.704 182.909 413.206 183.241 412.708 183.555L412.727 183.573C412.819 182.965 413.372 182.725 413.741 182.338C414.552 181.472 415.382 180.642 415.916 179.573C416.101 179.205 416.377 178.873 416.672 178.597C417.281 178.025 417.723 177.417 417.631 176.514C417.594 176.145 417.686 175.777 417.723 175.408C417.188 174.671 416.469 174.689 415.787 174.984C415.087 175.279 414.368 175.5 413.612 175.592C413.243 175.648 412.874 175.795 412.542 175.979C411.915 176.33 411.325 176.274 410.772 175.832C410.44 175.574 410.127 175.297 409.814 175.021C409.463 174.708 409.131 174.394 408.763 174.026C408.468 174.155 408.191 174.247 407.97 174.413C407.509 174.745 407.048 174.8 406.55 174.579V174.616C406.643 174.284 406.735 173.97 406.864 173.583C406.458 173.086 406.126 172.533 406.182 171.796C406.2 171.501 405.923 171.187 405.813 170.874C405.61 170.34 405.573 169.823 406.016 169.344C406.255 169.068 406.403 168.699 406.532 168.349C406.698 167.907 406.384 167.446 405.923 167.464C405.592 167.483 405.26 167.593 404.965 167.741C404.467 167.98 403.988 168.257 403.527 168.57C403.01 168.92 402.457 169.031 401.849 169.086C401.296 169.123 400.817 169.105 400.522 168.607C400.282 168.202 399.803 168.404 399.471 168.128C399.6 167.575 399.839 167.059 400.245 166.635C400.706 166.137 401.093 165.584 401.056 164.755C400.724 164.534 400.356 164.276 400.005 164.036C399.194 163.926 398.862 164.681 398.051 164.995C398.364 164.552 398.567 164.257 398.807 163.926C398.807 163.889 398.844 163.815 398.825 163.741C398.641 162.783 398.475 162.654 397.609 162.691C397.443 162.691 397.277 162.691 397.092 162.728C396.834 162.764 396.595 162.801 396.318 162.857C396.041 162.58 395.912 162.267 395.986 161.843C396.041 161.511 396.152 161.143 396.041 160.866C395.875 160.405 395.931 160.092 396.3 159.76C396.429 159.65 396.41 159.373 396.465 159.17C396.613 158.654 396.797 158.23 397.35 157.917C398.033 157.53 398.586 156.903 399.176 156.369C399.213 156.387 399.231 156.406 399.268 156.424C399.231 156.406 399.194 156.406 399.157 156.387C399.766 156.092 400.337 155.779 400.817 155.281C401.296 154.784 401.923 154.434 402.457 153.991C402.826 153.678 403.195 153.346 403.305 152.775C403.398 152.277 403.951 152.001 404.375 151.78C404.633 151.651 404.873 151.522 405.094 151.337C405.426 151.079 405.739 150.803 406.218 150.803C406.329 150.803 406.458 150.729 406.569 150.674C407.583 150.066 408.597 149.476 409.592 148.849C409.851 148.683 410.053 148.499 410.367 148.48C410.477 148.48 410.606 148.407 410.717 148.333C412.266 147.098 414.073 146.232 415.584 144.96C415.787 144.794 415.953 144.592 416.193 144.499C416.727 144.278 417.096 143.891 417.391 143.412C417.705 142.896 418.165 142.564 418.774 142.38C419.235 142.251 419.64 141.956 420.028 141.587C420.636 140.961 421.41 140.481 422.129 139.947C422.59 139.597 422.922 139.21 422.959 138.638C422.738 138.399 422.535 138.491 422.351 138.583C421.613 139.007 420.876 139.412 420.157 139.873C419.567 140.26 418.903 140.537 418.368 141.053C418.129 141.292 417.668 141.458 417.336 141.421C416.801 141.366 416.432 141.569 416.045 141.827C415.769 142.011 415.474 142.214 415.179 142.343C414.994 142.417 414.755 142.454 414.57 142.417C414.146 142.325 413.87 142.509 413.778 142.841C413.556 143.559 412.911 143.725 412.376 144.039C411.491 143.707 410.957 144.647 410.164 144.665C410.053 144.665 409.924 144.757 409.832 144.85C408.431 146.158 406.753 147.08 405.241 148.241C405.075 148.37 404.873 148.48 404.67 148.48C403.195 148.499 402.162 149.384 401.13 150.25C401.001 150.36 400.872 150.508 400.724 150.526C400.024 150.637 399.489 151.061 398.936 151.448C398.106 152.019 397.277 152.627 396.41 153.162C395.82 153.531 395.286 153.899 394.935 154.526C394.861 154.655 394.659 154.71 394.456 154.839C394.308 154.618 394.198 154.415 394.05 154.231C393.718 153.789 393.368 153.309 392.704 153.236C392.225 153.18 392.133 152.793 392.428 152.425C393.516 150.987 393.7 150.821 395.322 149.697C396.281 148.997 397.24 148.333 398.235 147.725C398.807 147.375 399.415 147.061 399.968 146.693C400.134 146.582 400.356 146.545 400.558 146.471C400.798 146.379 401.093 146.361 401.241 146.195C401.867 145.513 402.734 145.255 403.527 144.868C403.822 144.721 404.117 144.536 404.375 144.333C405.002 143.836 405.665 143.393 406.421 143.08C406.882 142.877 407.306 142.583 407.73 142.324C407.878 142.232 407.988 142.066 408.136 142.03C409.445 141.808 410.256 140.703 411.399 140.205C411.971 139.947 412.432 139.468 412.948 139.118C413.925 138.454 414.865 137.735 415.898 137.182C417.244 136.463 418.442 135.542 419.733 134.749C419.991 134.602 420.212 134.399 420.433 134.215C421.466 133.349 422.517 132.501 423.733 131.874C424.342 131.561 424.729 130.971 424.895 130.289C424.932 130.123 424.876 129.847 424.747 129.718C424.563 129.497 424.305 129.349 424.121 129.202C421.668 130.584 419.272 131.929 416.875 133.275C416.58 133.441 416.266 133.607 416.008 133.791C415.179 134.381 414.294 134.897 413.409 135.376C412.524 135.855 411.694 136.463 410.846 137.016C410.606 137.182 410.348 137.33 410.072 137.459C408.283 138.343 406.513 139.228 404.854 140.352C404.154 140.832 403.379 141.182 402.66 141.624C401.794 142.159 400.964 142.73 400.116 143.301C399.249 143.891 398.364 144.481 397.498 145.089C396.982 145.439 396.484 145.826 395.968 146.195C395.249 145.366 394.991 145.218 394.161 145.237C393.884 145.237 393.516 145.292 393.331 145.458C392.538 146.121 391.543 146.416 390.732 147.006C390.271 147.338 389.902 147.688 389.644 148.222C389.441 148.628 389.128 148.978 388.87 149.347C387.911 148.867 387.745 148.222 388.372 147.54C388.538 147.356 388.777 147.209 388.888 146.988C389.035 146.693 389.257 146.545 389.552 146.471C390.031 146.361 390.381 146.084 390.732 145.771C391.063 145.476 391.358 145.126 391.856 144.997C392.17 144.905 392.409 144.499 392.667 144.223C392.926 143.946 393.147 143.633 393.571 143.578C393.718 143.559 393.903 143.467 393.995 143.338C394.401 142.804 394.991 142.564 395.562 142.288C396.465 141.845 397.295 141.256 398.014 140.574C398.457 140.15 398.788 139.56 399.083 139.007C399.176 138.823 399.231 138.657 399.415 138.546C400.171 138.03 401.038 137.864 401.904 137.698C402.236 137.643 402.568 137.606 402.881 137.477C403.508 137.219 404.19 137.016 404.707 136.611C405.499 135.966 406.44 135.597 407.306 135.081C407.859 134.768 408.431 134.473 408.892 134.067C409.39 133.644 409.98 133.422 410.551 133.146C411.141 132.869 411.639 132.482 411.971 131.929C412.1 131.727 412.118 131.469 412.192 131.192C411.16 130.989 410.44 131.542 409.685 131.948C409.426 132.095 409.205 132.28 408.873 132.224C408.873 132.206 408.855 132.169 408.855 132.151C408.873 132.187 408.892 132.206 408.892 132.243C408.763 132.482 408.56 132.501 408.339 132.464L408.376 132.501C408.357 132.169 408.339 131.837 408.339 131.598C408.929 131.192 409.463 130.879 409.924 130.455C410.348 130.086 410.994 130.252 411.344 129.773C412.1 129.533 412.524 128.833 413.169 128.483C413.833 128.133 414.589 127.985 415.252 127.653C415.842 127.34 416.359 126.898 416.912 126.511C417.115 126.363 417.317 126.161 417.539 126.105C418.295 125.921 418.645 125.405 418.848 124.649C418.719 124.446 418.59 124.188 418.424 123.93C418.608 123.47 418.995 123.138 419.419 122.861C419.622 122.732 419.825 122.567 420.028 122.419C420.396 122.143 420.433 121.811 420.267 121.424C418.977 121.129 418.94 121.037 418.147 122.327C417.815 122.437 417.428 122.603 417.022 122.769ZM429.025 209.929L429.08 209.911L429.062 209.966C429.043 209.985 429.006 209.985 428.988 210.003C429.006 209.966 429.006 209.948 429.025 209.929ZM432.601 115.102C432.62 115.065 432.638 115.047 432.657 115.01C432.638 115.047 432.638 115.084 432.601 115.102C432.583 115.12 432.565 115.139 432.528 115.139C432.565 115.12 432.583 115.12 432.601 115.102ZM585.331 134.252C585.313 134.307 585.294 134.381 585.276 134.436C585.294 134.362 585.294 134.289 585.313 134.215C585.387 134.196 585.442 134.196 585.516 134.178C585.497 134.141 585.46 134.086 585.442 134.049C585.405 134.123 585.368 134.196 585.331 134.252ZM549.343 70.7386C549.048 70.7386 548.753 70.7018 548.476 70.7386C548.347 70.7571 548.2 70.923 548.163 71.052C548.107 71.2731 548.329 71.31 548.476 71.31C548.863 71.31 549.214 71.181 549.417 70.8124C549.472 70.7386 549.509 70.6834 549.564 70.6096C549.49 70.6465 549.417 70.6834 549.343 70.7386ZM417.022 217.597C417.188 217.486 417.391 217.412 417.539 217.265C418.202 216.601 418.829 215.919 419.493 215.274C420.433 214.371 421.226 213.302 422.443 212.694C422.885 212.473 423.199 212.03 423.457 211.57C423.586 211.33 423.807 211.109 424.01 210.906C424.969 210.058 425.927 209.247 426.886 208.399C427.052 208.252 427.126 207.994 427.31 207.662C427.034 207.662 426.849 207.607 426.739 207.681C426.536 207.81 426.315 207.994 426.222 208.197C426.075 208.547 425.854 208.75 425.54 208.916C425.245 209.081 424.95 209.247 424.674 209.45C424.121 209.837 423.586 210.261 423.051 210.667C422.922 211.404 422.258 211.57 421.742 211.883C421.595 211.975 421.466 212.067 421.337 212.178C419.991 213.413 418.774 214.758 417.557 216.141C417.336 216.399 417.133 216.675 417.004 216.988C416.93 217.154 417.022 217.375 417.022 217.578C416.986 217.578 416.949 217.597 416.93 217.597C416.912 217.597 416.912 217.633 416.912 217.652C416.967 217.67 417.004 217.633 417.022 217.597ZM482.528 232.157C482.528 232.175 482.547 232.212 482.547 232.231C482.528 232.212 482.51 232.175 482.51 232.157C482.841 231.991 483.173 231.807 483.524 231.696C483.8 231.622 484.058 231.549 484.335 231.383C485.699 230.535 487.174 229.908 488.668 229.319C488.852 229.245 489.055 229.153 489.221 229.042C489.626 228.729 490.013 228.416 490.401 228.084C490.769 227.77 490.769 227.678 490.456 226.959C490.216 226.978 489.977 226.978 489.718 227.033C489.552 227.07 489.331 227.125 489.276 227.217C489.018 227.844 488.391 227.992 487.912 228.25C486.474 229.024 484.98 229.724 483.524 230.461C483.229 230.609 482.934 230.793 482.639 230.977C482.473 231.088 482.307 231.235 482.159 231.383C481.993 231.567 482.049 231.77 482.233 231.936C482.325 232.01 482.436 232.083 482.528 232.157ZM479.025 92.6346L479.044 92.7084L479.007 92.6715C479.468 92.3029 479.928 91.9527 480.389 91.5656C480.555 91.4366 480.684 91.2339 480.869 91.1601C481.92 90.7362 482.657 89.9068 483.468 89.1696C483.745 88.9116 484.021 88.6167 484.372 88.4877C485.515 88.0637 486.308 87.1422 487.266 86.4787C487.856 86.0732 488.336 85.5203 488.833 85.0042C488.926 84.9121 488.944 84.6725 488.907 84.525C488.852 84.267 488.594 84.2117 488.409 84.267C487.764 84.4697 487.174 84.7277 486.658 85.2069C486.197 85.6309 485.681 86.0179 485.165 86.3681C484.648 86.6999 484.335 87.3081 483.671 87.4924C483.413 87.5661 483.155 87.8241 483.007 88.0637C482.694 88.5798 482.215 88.801 481.698 89.0037C481.385 89.1327 481.053 89.2618 480.813 89.4829C480.168 90.0174 479.56 90.6257 478.933 91.1786C478.749 91.3445 478.546 91.5103 478.325 91.6209C477.31 92.2107 476.278 92.7821 475.246 93.3719C474.508 93.7958 473.771 94.2197 473.07 94.6805C472.499 95.0491 471.872 95.3808 471.466 95.8969C470.987 96.4867 470.36 96.8185 469.807 97.2608C468.885 97.998 467.908 98.68 466.949 99.3804C466.304 99.8411 465.64 100.302 464.958 100.707C464.626 100.91 464.313 101.076 464.165 101.481C464.073 101.74 463.796 101.776 463.575 101.887C462.469 102.458 461.215 102.809 460.367 103.841C460.257 103.97 460.109 104.062 459.98 104.154C459.077 104.781 458.173 105.389 457.27 106.016C457.03 106.181 456.846 106.403 456.643 106.605C456.772 106.863 456.938 106.955 457.178 106.9C458.044 106.679 458.818 106.292 459.574 105.794C460.828 104.947 462.026 104.062 463.428 103.417C464.442 102.938 465.4 102.256 466.138 101.352C466.746 100.615 467.502 100.265 468.387 100.062C468.737 99.9886 469.161 99.8596 469.401 99.6015C469.678 99.3066 469.991 99.1592 470.323 98.9933C471.042 98.6247 471.816 98.3298 472.425 97.8137C473.052 97.2792 473.623 96.6894 474.268 96.1549C475.061 95.5099 475.909 94.9754 476.702 94.3487C477.403 93.7221 478.232 93.206 479.025 92.6346ZM420.286 123.193C420.415 123.672 420.71 123.801 421.005 123.765C422.019 123.599 423.014 123.322 423.715 122.53C424.176 122.014 424.711 121.7 425.319 121.627C426.167 121.534 426.665 121 427.199 120.502C427.31 120.392 427.384 120.207 427.421 120.06C427.458 119.949 427.439 119.765 427.384 119.71C427.273 119.636 427.052 119.544 426.941 119.599C425.835 120.134 424.766 120.687 423.66 121.239C423.475 121.332 423.291 121.424 423.088 121.498C422.056 121.848 421.152 122.474 420.286 123.193ZM427.458 127.174C428.048 127.69 428.066 127.672 428.324 127.69C429.688 127.746 430.832 127.101 431.975 126.474C432.214 126.345 432.38 126.05 432.546 125.81C432.657 125.626 432.657 125.405 432.454 125.239C432.325 125.128 432.196 125.036 431.993 124.907C431.256 125.184 430.5 125.405 429.799 125.755C429.025 126.142 428.306 126.64 427.458 127.174ZM482.086 228.36C482.694 229.226 482.676 229.208 483.487 228.968C484.058 228.803 484.593 228.563 485.091 228.25C485.699 227.863 486.326 227.512 486.934 227.144C487.285 226.941 487.432 226.609 487.303 226.314C487.193 226.056 486.769 225.927 486.4 226.075C486.289 226.112 486.179 226.204 486.068 226.259C485.662 226.48 485.238 226.683 484.851 226.941C484.28 227.328 483.708 227.66 482.989 227.476C482.676 227.789 482.381 228.084 482.086 228.36ZM429.154 118.567C429.357 118.696 429.486 118.825 429.615 118.862C430.315 119.028 430.942 118.77 431.532 118.438C431.79 118.291 432.03 118.014 432.288 117.996C432.841 117.959 433.21 117.609 433.671 117.406C433.745 117.369 433.781 117.277 433.818 117.24C433.818 116.982 433.818 116.742 433.818 116.429C433.56 116.429 433.339 116.374 433.173 116.447C432.472 116.742 431.79 117.056 431.108 117.369C430.647 117.572 430.186 117.774 429.744 118.014C429.541 118.143 429.393 118.346 429.154 118.567ZM424.25 222.831C424.618 223.163 424.987 223.476 425.3 223.752C426.02 223.55 426.315 223.071 426.407 222.444C426.48 222.002 426.351 221.67 425.964 221.522C425.614 221.393 425.264 221.191 424.784 221.393C424.618 221.836 424.434 222.333 424.25 222.831ZM430.85 209.948C430.094 210.243 429.578 210.353 429.191 210.796C428.877 211.127 428.508 211.459 428.011 211.477C427.089 211.496 426.444 212.049 425.817 212.62C425.743 212.694 425.761 212.823 425.725 212.97C425.89 212.989 426.038 213.044 426.13 213.007C426.775 212.694 427.421 212.381 428.048 212.049C428.416 211.846 428.748 211.551 429.135 211.441C429.707 211.275 430.112 210.888 430.573 210.574C430.666 210.501 430.684 210.353 430.85 209.948ZM484.556 85.8336C483.745 85.723 483.21 85.7414 482.768 86.0916C482.417 86.3865 482.141 86.7551 482.307 87.3634C482.547 87.3449 482.841 87.3818 482.989 87.2712C483.468 86.8842 483.911 86.4418 484.556 85.8336ZM539.129 73.8166C538.52 73.6507 538.078 73.835 537.709 74.2037C537.617 74.2958 537.635 74.517 537.635 74.6829C537.635 74.8856 537.764 74.9962 537.967 74.9409C538.52 74.7935 538.871 74.4248 539.129 73.8166ZM542.964 74.7382C542.945 74.5354 542.54 74.3142 542.355 74.4433C542.152 74.5723 541.968 74.7566 541.821 74.9409C541.655 75.1436 541.821 75.4385 542.079 75.5123C542.54 75.6228 543.019 75.2174 542.964 74.7382ZM438.335 113.683C437.782 113.554 437.395 113.959 436.934 114.07C436.694 114.125 436.363 114.236 436.455 114.512C436.584 114.881 436.842 114.512 437.045 114.512C437.635 114.512 438.022 114.199 438.335 113.683ZM555.427 121.221C555.04 121.368 554.8 121.424 554.616 121.553C554.523 121.608 554.523 121.848 554.56 121.977C554.579 122.05 554.763 122.106 554.874 122.106C555.298 122.106 555.298 121.719 555.427 121.221ZM599.14 139.928C599.362 140.131 599.472 140.297 599.638 140.352C599.749 140.389 599.97 140.297 600.044 140.205C600.117 140.094 600.081 139.892 600.025 139.763C599.988 139.689 599.823 139.615 599.73 139.634C599.564 139.67 599.398 139.781 599.14 139.928ZM429.191 117.093C428.785 117.111 428.361 117.129 428.14 117.609C428.803 117.516 428.803 117.516 429.191 117.093ZM435.92 115.765C435.459 115.434 435.219 115.544 435.035 115.821C434.98 115.895 434.961 116.079 435.017 116.134C435.072 116.208 435.256 116.3 435.33 116.263C435.533 116.134 435.699 115.968 435.92 115.765ZM456.477 101.574C456.422 101.481 456.403 101.371 456.366 101.371C456.293 101.352 456.2 101.389 456.164 101.445C456.127 101.481 456.164 101.574 456.182 101.629C456.274 101.611 456.385 101.592 456.477 101.574ZM485.625 234.092C485.552 234.184 485.478 234.258 485.423 234.35C485.46 234.369 485.496 234.424 485.533 234.406C485.625 234.369 485.718 234.313 485.81 234.258C485.755 234.221 485.718 234.184 485.625 234.092ZM554.689 64.9698C554.597 65.025 554.505 65.0619 554.505 65.0988C554.505 65.1725 554.523 65.2646 554.579 65.3015C554.616 65.3384 554.708 65.2831 554.782 65.2646C554.745 65.1725 554.708 65.0803 554.689 64.9698ZM541.415 75.328C541.36 75.3648 541.304 75.4017 541.249 75.457C541.231 75.4754 541.249 75.5676 541.267 75.5676C541.323 75.5676 541.397 75.5676 541.452 75.5491C541.452 75.4938 541.433 75.4201 541.415 75.328ZM430.444 116.374H430.371L430.407 116.466L430.444 116.374ZM427.421 181.767C427.347 181.748 427.273 181.711 427.199 181.693C427.181 181.693 427.144 181.748 427.107 181.767C427.163 181.804 427.218 181.877 427.273 181.877C427.31 181.896 427.365 181.822 427.421 181.767ZM567.853 103.619L567.89 103.693L567.927 103.619H567.853Z" fill="#EBDBFD"/>
<path d="M396.466 134.196C395.728 134.768 395.101 135.21 394.308 135.376C393.995 135.431 393.7 135.671 393.405 135.837C392.446 136.371 391.506 136.943 390.529 137.459C390.234 137.624 389.92 137.938 389.496 137.753C389.496 137.661 389.441 137.551 389.478 137.514C390.566 136.629 391.635 135.763 392.815 134.841C393.202 134.897 393.663 134.934 394.161 134.694C394.843 134.381 395.599 134.307 396.466 134.196Z" fill="#EBDBFD"/>
<path d="M555.943 56.8601C556.146 56.8417 556.275 56.8417 556.385 56.8232C556.92 57.4315 556.533 58.3714 557.197 58.9244C556.92 59.6247 556.791 60.3988 556.219 61.0255C556.109 60.8965 555.98 60.8043 555.98 60.7306C556.293 59.4773 555.998 58.224 555.943 56.8601Z" fill="#EBDBFD"/>
<path d="M547.555 59.4404C548.458 59.5142 549.122 59.5694 549.749 59.6063C550.099 59.9196 550.081 60.2145 549.767 60.5647C549.288 60.5647 548.753 60.5647 548.089 60.5647C547.96 60.2883 547.794 59.9381 547.555 59.4404Z" fill="#EBDBFD"/>
<path d="M571.135 98.0532C571.172 98.7905 571.043 99.2697 570.803 99.8226C570.361 99.4724 569.974 99.1775 569.605 98.8826C569.845 98.1085 570.564 98.4771 571.135 98.0532Z" fill="#EBDBFD"/>
<path d="M418.184 223.679C418.129 223.642 418.11 223.532 418.074 223.458C417.981 223.218 417.908 222.942 418.184 222.794C418.295 222.739 418.516 222.739 418.627 222.813C418.959 223.034 418.977 223.255 418.811 223.568C418.664 223.882 418.424 223.79 418.184 223.679Z" fill="#EBDBFD"/>
<path d="M544.9 61.062C545.195 61.3016 545.398 61.4675 545.748 61.7624C545.195 61.7624 544.844 61.7624 544.476 61.7624C544.291 61.2832 544.771 61.3569 544.9 61.062Z" fill="#EBDBFD"/>
<path d="M421.41 227.42C421.539 227.771 421.613 227.955 421.668 228.121C421.484 228.379 421.244 228.526 421.042 228.287C420.802 227.992 421.078 227.789 421.41 227.42Z" fill="#EBDBFD"/>
<path d="M451.444 103.915C451.739 103.565 452.144 103.38 452.513 103.214C452.587 103.27 452.66 103.307 452.66 103.325C452.587 103.528 452.513 103.749 452.421 103.97C452.052 103.933 451.739 103.915 451.407 103.878L451.444 103.915Z" fill="#EBDBFD"/>
<path d="M488.889 81.207C488.741 81.7047 488.317 81.8153 487.709 82.0917C488.115 81.4835 488.52 81.3729 488.926 81.2255L488.889 81.207Z" fill="#EBDBFD"/>
<path d="M454.283 102.606C454.025 102.716 453.748 102.845 453.361 102.79C453.638 102.532 453.841 102.348 454.136 102.071C454.191 102.329 454.228 102.477 454.265 102.624L454.283 102.606Z" fill="#EBDBFD"/>
<path d="M572.518 114.641C572.905 114.586 573.09 114.733 573.071 115.102C573.071 115.176 572.997 115.286 572.961 115.286C572.868 115.268 572.739 115.231 572.702 115.157C572.629 115.01 572.592 114.825 572.518 114.641Z" fill="#EBDBFD"/>
<path d="M451.352 247.86C451.223 248.044 451.094 248.229 450.854 248.044C450.817 248.008 450.78 247.842 450.817 247.823C451.001 247.657 451.186 247.657 451.352 247.86Z" fill="#EBDBFD"/>
<path d="M569.955 100.56C570.01 100.91 569.918 101.224 569.66 101.482C569.365 101.113 569.826 100.892 569.826 100.597H569.789C569.844 100.652 569.918 100.652 569.974 100.578L569.955 100.56Z" fill="#EBDBFD"/>
<path d="M586.917 128.649C586.954 128.428 586.862 128.151 587.175 128.004C587.193 128.28 587.009 128.428 586.898 128.631L586.917 128.649Z" fill="#EBDBFD"/>
<path d="M413.04 219.218C413.188 219.237 413.298 219.218 413.39 219.255C413.446 219.274 413.446 219.403 413.483 219.458C413.39 219.458 413.298 219.476 413.206 219.439C413.151 219.421 413.114 219.329 413.04 219.218Z" fill="#EBDBFD"/>
<path d="M569.77 96.7631C569.789 96.7999 569.826 96.8184 569.844 96.8552C569.863 96.9658 569.936 97.1317 569.899 97.1501C569.733 97.2607 569.604 97.2054 569.531 97.0211L569.512 97.0395C569.604 96.9474 569.715 96.8368 569.807 96.7446L569.77 96.7631Z" fill="#EBDBFD"/>
<path d="M407.435 133.256C407.362 132.925 407.546 132.777 407.822 132.703L407.786 132.667C407.822 132.98 407.509 133.054 407.398 133.256H407.435Z" fill="#EBDBFD"/>
<path d="M475.965 88.3589C475.946 88.5801 476.057 88.8934 475.651 88.8381L475.67 88.875C475.78 88.7091 475.873 88.5248 475.983 88.3589H475.965Z" fill="#EBDBFD"/>
<path d="M407.823 132.703C408.007 132.63 408.21 132.537 408.394 132.464L408.357 132.427C408.228 132.666 408.025 132.703 407.786 132.666L407.823 132.703Z" fill="#EBDBFD"/>
<path d="M407.398 133.257C407.343 133.275 407.288 133.294 407.232 133.312C407.306 133.294 407.361 133.275 407.435 133.257H407.398Z" fill="#EBDBFD"/>
<path d="M401.72 135.173L401.646 135.136L401.72 135.118V135.173Z" fill="#EBDBFD"/>
<path d="M601.961 138.104C601.98 138.03 602.017 137.975 602.053 137.901C602.053 137.883 602.127 137.92 602.164 137.92C602.09 137.975 602.017 138.03 601.943 138.067L601.961 138.104Z" fill="#EBDBFD"/>
<path d="M601.943 138.085C601.74 138.159 601.537 138.251 601.353 138.325L601.371 138.343C601.574 138.269 601.777 138.177 601.961 138.103L601.943 138.085Z" fill="#EBDBFD"/>
<path d="M548.513 66.2596C548.495 66.2412 548.458 66.2412 548.439 66.2228C548.476 66.2043 548.513 66.1859 548.55 66.1675C548.532 66.1859 548.513 66.2228 548.513 66.2596Z" fill="#EBDBFD"/>
<path d="M426.978 189.803C426.941 189.858 426.923 189.95 426.868 189.969C426.831 189.987 426.757 189.932 426.702 189.895C426.739 189.876 426.757 189.84 426.794 189.821C426.868 189.803 426.941 189.821 427.015 189.803H426.978Z" fill="#EBDBFD"/>
<path d="M500.947 76.1393C500.983 76.0471 501.039 75.9549 501.076 75.8628C501.112 75.9549 501.149 76.0471 501.186 76.1208L501.205 76.1024C501.112 76.1024 501.02 76.1024 500.91 76.1024L500.947 76.1393Z" fill="#EBDBFD"/>
<path d="M418.737 222.278C418.718 222.278 418.7 222.297 418.663 222.297C418.682 222.26 418.7 222.223 418.7 222.186C418.718 222.223 418.737 222.241 418.737 222.278Z" fill="#EBDBFD"/>
<path d="M489.202 80.9313C489.257 80.8944 489.313 80.8391 489.386 80.8022C489.405 80.8022 489.442 80.8391 489.46 80.8391C489.368 80.8575 489.276 80.876 489.165 80.8944L489.202 80.9313Z" fill="#EBDBFD"/>
<path d="M478.804 86.5708C478.84 86.5155 478.877 86.4602 478.914 86.4233C478.877 86.4602 478.822 86.5155 478.785 86.5524L478.804 86.5708Z" fill="#EBDBFD"/>
<path d="M475.983 88.3589C475.909 88.3405 475.854 88.3036 475.78 88.2852H475.799C475.817 88.322 475.817 88.3773 475.854 88.3957C475.872 88.4142 475.928 88.3957 475.965 88.3773L475.983 88.3589Z" fill="#EBDBFD"/>
<path d="M477.679 237.336C477.716 237.318 477.735 237.318 477.771 237.299C477.771 237.336 477.79 237.373 477.79 237.428C477.753 237.428 477.716 237.428 477.698 237.41C477.679 237.391 477.679 237.355 477.679 237.336Z" fill="#EBDBFD"/>
<path d="M569.992 100.578C570.047 100.542 570.103 100.523 570.158 100.486C570.121 100.505 570.084 100.505 570.047 100.523C570.01 100.542 569.974 100.542 569.955 100.56L569.992 100.578Z" fill="#EBDBFD"/>
<path d="M569.033 102.68C569.107 102.514 569.181 102.348 569.255 102.182L569.236 102.164C569.144 102.329 569.07 102.495 568.978 102.661L569.033 102.68Z" fill="#EBDBFD"/>
<path d="M557.141 56.1775L557.123 56.1045H557.196L557.141 56.1775Z" fill="#EBDBFD"/>
<path d="M546.3 60.8775L546.282 60.8228V60.9141L546.3 60.8775Z" fill="#EBDBFD"/>
<path d="M534.833 72.065L534.869 72.0103L534.796 72.0468L534.833 72.065Z" fill="#EBDBFD"/>
<path d="M513.133 72.5448L513.188 72.5083L513.096 72.5448H513.133Z" fill="#EBDBFD"/>
<path d="M517.779 72.8581C517.871 72.7475 517.963 72.6554 518.056 72.5448L518 72.5264C517.908 72.6185 517.834 72.7107 517.742 72.8028L517.779 72.8581Z" fill="#EBDBFD"/>
<path d="M492.521 78.6633L492.575 78.627L492.521 78.6633Z" fill="#EBDBFD"/>
<path d="M492.52 78.6641C492.484 78.6641 492.465 78.6641 492.429 78.6641C492.465 78.7006 492.484 78.7371 492.52 78.7554C492.52 78.7189 492.52 78.7006 492.52 78.6641Z" fill="#EBDBFD"/>
<path d="M490.493 80.1932L490.547 80.1201L490.493 80.1932Z" fill="#EBDBFD"/>
<path d="M490.492 80.1938C490.455 80.2121 490.437 80.2304 490.4 80.2486C490.437 80.2304 490.455 80.2121 490.492 80.1938Z" fill="#EBDBFD"/>
<path d="M489.184 80.894C489.091 81.0046 488.999 81.0968 488.889 81.2074L488.926 81.2442C489.018 81.1336 489.11 81.0415 489.221 80.9309L489.184 80.894Z" fill="#EBDBFD"/>
<path d="M487.211 82.4969L487.247 82.4238L487.192 82.4786L487.211 82.4969Z" fill="#EBDBFD"/>
<path d="M486.916 82.7556C487.008 82.6819 487.119 82.5897 487.211 82.516L487.193 82.4976C487.1 82.5713 487.008 82.645 486.916 82.7556Z" fill="#EBDBFD"/>
<path d="M486.915 82.7373C486.879 82.7556 486.86 82.7738 486.824 82.7921C486.86 82.7738 486.879 82.7556 486.915 82.7373Z" fill="#EBDBFD"/>
<path d="M486.178 83.2528C486.196 83.2346 486.215 83.2346 486.233 83.2163C486.196 83.2163 486.178 83.2163 486.142 83.2163L486.178 83.2528Z" fill="#EBDBFD"/>
<path d="M485.902 83.5849C485.994 83.4743 486.086 83.3638 486.197 83.2532L486.179 83.2163C486.087 83.3269 485.994 83.4375 485.902 83.5481C485.865 83.5481 485.902 83.5849 485.902 83.5849Z" fill="#EBDBFD"/>
<path d="M481.883 84.1379L481.956 84.1196L481.938 84.1744L481.883 84.1379Z" fill="#EBDBFD"/>
<path d="M481.274 86.0361C481.256 86.0914 481.237 86.1652 481.219 86.2204C481.035 86.0546 481.237 86.0914 481.311 86.0546L481.274 86.0361Z" fill="#EBDBFD"/>
<path d="M478.766 86.5522L478.711 86.6253L478.803 86.5705L478.766 86.5522Z" fill="#EBDBFD"/>
<path d="M477.477 87.5842L477.531 87.5479L477.477 87.5842Z" fill="#EBDBFD"/>
<path d="M477.476 87.5847C477.439 87.5847 477.421 87.5847 477.384 87.5664C477.421 87.6029 477.439 87.6395 477.476 87.6577C477.476 87.6395 477.476 87.6212 477.476 87.5847Z" fill="#EBDBFD"/>
<path d="M466.507 94.6985C466.617 94.6985 466.728 94.6985 466.82 94.6801L466.857 94.6616C466.728 94.6616 466.599 94.6616 466.47 94.6616L466.507 94.6985Z" fill="#EBDBFD"/>
<path d="M466.47 94.6807V94.7537L466.506 94.6989L466.47 94.6807Z" fill="#EBDBFD"/>
<path d="M563.907 96.7631C563.815 96.8552 563.723 96.9474 563.649 97.0211L563.668 97.0395C563.668 96.9474 563.668 96.8368 563.668 96.7446L563.631 96.7815C563.723 96.7815 563.834 96.7815 563.926 96.7815L563.907 96.7631Z" fill="#EBDBFD"/>
<path d="M569.844 100.596C569.826 100.578 569.807 100.559 569.789 100.523C569.807 100.541 569.807 100.559 569.826 100.578L569.844 100.596Z" fill="#EBDBFD"/>
<path d="M454.78 101.85C454.743 101.85 454.725 101.85 454.688 101.85C454.725 101.887 454.762 101.923 454.78 101.941C454.78 101.923 454.78 101.887 454.78 101.85Z" fill="#EBDBFD"/>
<path d="M569.254 102.163L569.291 102.071L569.254 102.144V102.163Z" fill="#EBDBFD"/>
<path d="M443.534 102.661C443.534 102.679 443.552 102.679 443.552 102.697L443.534 102.661Z" fill="#EBDBFD"/>
<path d="M567.503 110.31C567.521 110.273 567.521 110.236 567.54 110.199C567.521 110.236 567.503 110.255 567.484 110.291L567.503 110.31Z" fill="#EBDBFD"/>
<path d="M417.04 122.751C417.004 122.751 416.985 122.751 416.949 122.751C416.985 122.788 417.004 122.806 417.04 122.842C417.04 122.824 417.04 122.788 417.04 122.751Z" fill="#EBDBFD"/>
<path d="M586.622 128.962C586.714 128.852 586.825 128.759 586.917 128.649L586.899 128.63C586.806 128.741 586.696 128.833 586.604 128.944C586.604 128.925 586.622 128.962 586.622 128.962Z" fill="#EBDBFD"/>
<path d="M406.55 174.689L406.532 174.781L406.55 174.726V174.689Z" fill="#EBDBFD"/>
<path d="M412.708 183.647C412.616 183.739 412.524 183.813 412.432 183.905L412.469 183.942C412.561 183.85 412.634 183.776 412.727 183.684L412.708 183.647Z" fill="#EBDBFD"/>
<path d="M412.432 183.905C412.34 183.979 412.247 184.052 412.155 184.126V184.163C412.266 184.089 412.358 184.015 412.469 183.942L412.432 183.905Z" fill="#EBDBFD"/>
<path d="M412.174 184.126L412.137 184.237L412.155 184.163L412.174 184.126Z" fill="#EBDBFD"/>
<path d="M396.392 197.986C396.429 197.931 396.447 197.875 396.484 197.802C396.632 197.986 396.466 197.949 396.374 197.968L396.392 197.986Z" fill="#EBDBFD"/>
<path d="M396.134 198.207C396.226 198.134 396.3 198.06 396.392 197.986L396.373 197.968C396.3 198.041 396.208 198.115 396.134 198.189V198.207Z" fill="#EBDBFD"/>
<path d="M396.133 198.188L396.097 198.262L396.133 198.207V198.188Z" fill="#EBDBFD"/>
<path d="M536.64 229.558C536.548 229.65 536.437 229.761 536.345 229.853L536.382 229.871C536.382 229.761 536.382 229.65 536.363 229.558L536.345 229.595C536.455 229.595 536.548 229.595 536.658 229.595L536.64 229.558Z" fill="#EBDBFD"/>
<path d="M454.264 245.575C454.246 245.593 454.227 245.611 454.191 245.629C454.209 245.629 454.227 245.611 454.246 245.611L454.264 245.575Z" fill="#EBDBFD"/>
<path d="M443.571 102.697L443.607 102.606L443.534 102.661L443.571 102.697Z" fill="#EBDBFD"/>
<path d="M517.466 74.7568C517.448 74.7384 517.411 74.6831 517.411 74.6831C517.466 74.6278 517.521 74.5725 517.558 74.5356C517.595 74.5725 517.613 74.6278 517.65 74.6647C517.595 74.7015 517.521 74.7384 517.466 74.7568Z" fill="#EBDBFD"/>
<defs>
<linearGradient id="paint0_linear_351_6131" x1="8.30077" y1="19.5273" x2="637.579" y2="63.2718" gradientUnits="userSpaceOnUse">
<stop stop-color="#EBDBFD"/>
<stop offset="1" stop-color="#FFEEEB"/>
</linearGradient>
</defs>
</svg>
