<svg width="625" height="329" viewBox="0 0 625 329" fill="none" xmlns="http://www.w3.org/2000/svg">
<rect y="0.00341797" width="625" height="328" rx="20" fill="url(#paint0_linear_351_6043)"/>
<path d="M425.022 122.769C425.17 122.511 425.299 122.253 425.502 121.921C425.133 121.94 424.838 121.958 424.432 121.995C424.617 121.627 424.746 121.368 424.856 121.166C425.336 120.834 426.036 121.147 426.331 120.521C426.258 120.097 425.797 120.318 425.631 120.097C425.483 119.894 425.391 119.654 425.244 119.36C425.52 119.231 425.815 118.991 426.11 118.991C426.571 118.991 426.921 118.733 427.272 118.53C427.991 118.106 428.654 117.572 429.392 117.056C429.281 116.798 429.171 116.54 429.06 116.282C429.373 116.134 429.705 115.968 430.037 115.802C430.148 115.747 430.277 115.618 430.369 115.636C431.291 115.784 431.604 115.139 431.973 114.512C432.084 114.328 432.213 114.162 432.25 114.107C433.393 113.498 434.517 113.849 435.587 113.683C435.771 113.646 435.974 113.775 436.177 113.849C437.025 114.162 437.836 114.033 438.573 113.535C439.348 113.019 440.159 112.614 441.136 112.54C441.671 112.503 442.205 112.3 442.574 111.821C442.814 111.877 443.017 111.913 443.219 111.95C443.717 111.121 444.399 110.55 445.358 110.328C445.856 110.218 446.335 110.033 446.833 109.941C447.884 109.72 448.806 109.186 449.746 108.725C451.092 108.043 452.438 107.324 453.821 106.697C454.687 106.31 455.48 105.702 456.31 105.223C457.287 104.652 458.319 104.154 459.444 103.951L459.407 103.914C459.407 104.449 458.946 104.633 458.614 104.836C457.6 105.444 456.549 105.979 455.517 106.55C455.037 106.808 454.595 107.121 454.134 107.435C453.433 107.951 452.604 108.301 451.793 108.67C450.465 109.259 449.285 110.07 448.087 110.863C447.976 110.937 447.921 111.047 447.829 111.139C447.829 111.434 448.013 111.545 448.234 111.508C448.732 111.453 449.248 111.582 449.691 111.25C449.728 111.231 449.764 111.195 449.801 111.195C450.852 111.231 451.571 110.513 452.438 110.089C453.728 109.462 455.001 108.817 456.162 107.951C456.328 107.822 456.531 107.748 456.734 107.674C458.043 107.214 459.038 106.292 460.071 105.426C460.495 105.076 460.863 104.67 461.287 104.338C461.877 103.914 462.172 103.343 462.283 102.643L462.265 102.68C462.467 102.698 462.67 102.735 462.855 102.698C463.131 102.661 463.279 102.495 463.279 102.219C463.279 101.869 463.02 101.887 462.762 101.887L462.744 101.905C462.891 101.758 463.02 101.574 463.186 101.463C464.182 100.836 465.085 100.044 466.21 99.6568C467.058 99.3804 467.685 98.68 468.588 98.4957C468.699 98.4772 468.773 98.3298 468.865 98.2376C469.381 97.611 470.026 97.2792 470.893 97.2977C471.262 96.2655 472.313 96.413 473.032 95.9891C473.29 96.1918 473.124 96.3024 473.013 96.4314C472.976 96.4683 472.939 96.4867 472.921 96.5051C472.313 97.6294 471.262 98.2192 470.174 98.7721C469.953 98.8827 469.805 99.1039 469.602 99.2698C469.307 99.4909 469.049 99.749 468.662 99.8964C468.293 100.025 467.998 100.394 467.703 100.671C467.427 100.929 467.15 101.187 467.187 101.703C467.298 101.758 467.445 101.85 467.593 101.85C468.349 101.85 469.012 101.537 469.547 101.039C470.487 100.173 471.63 99.6015 472.626 98.809C473.29 98.2929 474.046 97.9059 474.802 97.5557C474.82 97.6294 474.82 97.7584 474.875 97.7769C474.967 97.8137 475.078 97.8137 475.189 97.8137L475.207 97.7216C475.152 97.6663 475.097 97.6294 475.023 97.611C474.949 97.5926 474.857 97.611 474.783 97.611C474.931 97.4635 475.06 97.2424 475.226 97.2055C475.981 97.0212 476.479 96.5051 476.866 95.8969C477.18 95.3993 477.585 95.0491 478.065 94.7173C478.434 94.4593 478.765 94.146 479.097 93.8326C479.171 93.7589 479.171 93.6115 479.226 93.3903C479.024 93.3903 478.858 93.3534 478.729 93.3903C478.028 93.6852 477.327 93.9801 476.664 94.2934C476.406 94.4224 476.203 94.6436 475.981 94.8279C475.392 95.3071 474.746 95.6942 474.009 95.9153C473.953 95.9338 473.861 95.86 473.788 95.8232C473.935 95.2334 474.654 95.215 474.912 94.7173L474.875 94.7358C475.023 94.6252 475.336 94.4593 475.318 94.3856C475.17 93.8879 475.484 93.593 475.834 93.5009C476.701 93.2981 477.309 92.7268 477.973 92.2476C478.212 92.0817 478.489 91.9711 478.747 91.8052C478.876 91.7131 479.042 91.6209 479.134 91.4919C479.687 90.6994 480.425 90.2017 481.328 89.8884C481.752 89.741 482.102 89.4092 482.471 89.1327C482.711 88.9484 482.858 89.0775 483.024 89.188L482.951 89.2249L483.006 89.1696C483.264 89.0959 483.504 89.0037 483.762 88.93L483.743 88.8931C483.43 89.2249 483.135 89.5567 482.84 89.87C483.117 90.4598 483.301 90.5888 483.651 90.4045C484.131 90.1464 484.591 89.8515 485.052 89.5382C485.384 89.2986 485.661 88.93 486.122 88.8931C486.195 88.8931 486.288 88.8378 486.343 88.7826C486.878 88.1559 487.486 87.6583 488.223 87.3081C488.537 86.5893 489.201 86.6077 489.809 86.5708C489.957 86.1101 489.606 86.1654 489.403 86.0916L489.44 86.1101C489.92 85.7783 490.399 85.4466 490.897 85.1332C491.21 84.9305 491.561 84.7462 491.966 84.8936C492.187 84.9673 492.372 84.9305 492.519 84.7277C492.759 84.396 493.183 84.2301 493.367 83.8246C493.478 83.585 493.773 83.5297 494.031 83.6219L494.013 83.585C493.92 83.714 493.791 83.8431 493.718 83.9905C493.441 84.4881 493.607 84.8752 494.068 85.2254C494.695 84.7277 495.34 84.2854 495.93 83.7693C496.668 83.1058 497.46 82.7741 498.456 83.0505C498.843 83.1611 499.12 82.9952 499.304 82.6819C499.378 82.5529 499.322 82.3686 499.341 82.2211C499.156 82.2027 499.027 82.1843 498.898 82.1843C498.898 82.1105 498.861 82.0184 498.898 81.9815C499.101 81.8157 499.304 81.6866 499.507 81.5392C499.82 81.318 500.152 81.1337 500.429 80.9125C500.89 80.5439 501.332 80.2122 501.904 80.0278C502.401 79.8804 502.899 79.6592 503.378 79.4381C503.839 79.2169 504.134 78.6824 504.558 78.3322C504.872 78.0742 505.259 77.853 505.628 77.6871C506.31 77.4107 506.9 77.042 507.361 76.4707C508.025 77.1526 508.338 77.1342 508.836 76.3969C508.891 76.3048 508.983 76.2311 509.057 76.1389L509.039 76.1205C509.075 76.1758 509.112 76.2495 509.149 76.3048C509.204 76.2495 509.278 76.1758 509.334 76.1205L509.315 76.1389C509.665 75.844 510.034 75.5491 510.403 75.2911C510.901 74.9225 511.509 75.0146 512.081 74.9409C512.191 74.9225 512.376 75.1068 512.468 75.2174C512.671 75.4938 512.837 75.7887 513.021 76.0652C512.892 76.4522 512.744 76.8393 512.652 77.2448C512.597 77.5028 512.855 77.7424 513.132 77.6871C513.261 77.6687 513.39 77.6503 513.482 77.5765C513.998 77.2079 514.551 76.8762 514.975 76.4338C515.436 75.9546 515.879 75.6966 516.505 75.9362C517.206 75.4017 517.796 74.7566 518.663 74.5723C519.474 73.835 520.561 73.448 521.244 72.5633L521.207 72.5449C521.281 72.7292 521.317 72.9688 521.465 73.0609C521.649 73.2084 521.907 73.2637 522.129 73.3558C522.682 73.1162 523.198 72.8766 523.806 72.6186C523.899 72.7845 523.991 72.9504 524.12 73.0978C524.341 73.3743 524.599 73.4296 524.894 73.2821C525.226 73.1162 525.484 72.7845 525.908 72.8582L525.89 72.8213C525.318 73.6323 524.507 74.0746 523.604 74.3142C522.719 74.5539 521.981 75.0146 521.225 75.4938C520.986 75.6413 520.672 75.8809 520.635 76.1205C520.525 76.7656 520.064 76.9867 519.566 77.2448C518.755 77.6687 518.109 78.24 517.907 79.1985C517.833 79.5486 518.017 79.7514 518.386 79.6961C518.884 79.6224 519.363 79.5486 519.935 79.4565C520.101 79.2353 520.303 78.9589 520.506 78.6824C521.133 77.7608 522.073 77.4475 523.106 77.3554C523.364 77.3369 523.622 77.4107 523.788 77.171C523.935 76.9683 524.046 76.7471 524.138 76.526C524.194 76.4154 524.194 76.3048 524.212 76.1942C524.341 76.1758 524.433 76.1389 524.507 76.1758C525.318 76.5813 525.871 76.1573 526.369 75.5676C526.498 75.4017 526.609 75.2174 526.719 75.0331C526.812 74.904 526.885 74.7013 527.033 74.646C528.047 74.2405 528.231 73.0425 529.098 72.4896C529.171 72.4343 529.171 72.1394 529.098 72.0657C529.006 71.9735 528.784 71.9551 528.655 72.0104C528.25 72.1578 527.936 72.4343 527.697 72.8029C527.567 73.0057 527.383 73.1715 527.18 73.3927C526.812 73.0794 526.498 72.8213 526.185 72.5449L526.222 72.5633C526.996 72.0657 527.862 71.6971 528.489 70.9782C528.655 70.7939 528.932 70.7386 529.153 70.6096C529.688 70.2779 530.241 69.9461 530.775 69.6144C531.107 69.4116 531.365 68.9877 531.882 69.1904C531.974 69.2273 532.195 69.0614 532.269 68.9324C532.49 68.5269 532.656 68.103 532.859 67.6607C533.117 67.5685 533.486 67.5501 533.633 67.3473C533.91 66.9972 534.057 66.5548 534.26 66.1678C534.573 66.0756 534.924 65.9835 535.256 65.8913C535.292 66.2415 535.403 66.6285 535.329 66.9787C535.182 67.7897 535.569 68.361 536.03 68.914C536.436 69.3932 536.823 69.8908 537.21 70.3516C537.615 70.4069 537.874 70.2594 538.095 69.9645C538.482 69.4116 538.906 68.8955 539.312 68.3795C539.883 68.4532 539.809 69.0614 540.252 69.3195C540.621 69.3195 541.082 69.3195 541.598 69.3195C541.874 70.0198 542.151 70.6465 541.579 71.3284C541.469 71.4575 541.506 71.7155 541.469 71.9182C542.003 72.1947 542.52 72.0472 542.999 72.0841L542.981 72.0657C543.165 72.25 543.405 72.3974 543.515 72.6002C543.958 73.4664 544.732 73.5033 545.47 73.2821C546.096 73.0978 546.705 73.0425 547.35 73.0794C547.811 73.0978 548.18 72.9688 548.493 72.6555C548.991 72.1394 549.544 71.6971 549.821 70.9782C550.06 70.3516 550.65 69.9461 551.13 69.5406C552.144 69.5222 552.457 70.4069 553.121 70.9045C552.789 71.181 552.457 71.439 552.144 71.6971C552.125 72.0657 552.236 72.4527 551.849 72.7292C551.609 72.8951 551.664 73.19 551.812 73.4111C551.978 73.6876 552.217 73.835 552.549 73.7798C552.844 73.7245 553.139 73.6692 553.416 73.6139C554.098 73.4849 554.577 73.0978 554.817 72.4527C554.946 72.121 555.112 71.8998 555.352 71.6418C555.647 71.3284 555.794 70.8492 556.015 70.4069C556.384 70.2963 556.79 70.1673 557.251 70.0198C557.324 69.2457 557.767 68.7481 558.56 68.5638C558.855 68.4901 559.113 68.3795 559.408 68.2873C560.33 67.974 560.514 67.7344 560.661 66.6654C560.256 66.3889 559.85 66.094 559.426 65.7991C559.555 65.2646 559.666 64.7854 559.776 64.2878C559.463 63.9008 559.021 63.7349 558.596 63.569C558.172 63.4031 557.748 63.1819 557.287 63.0714C556.808 62.9423 556.31 62.8871 555.72 62.7765C555.61 62.6843 555.444 62.5 555.241 62.3526C555.038 62.2051 554.817 62.0945 554.596 61.9655C554.559 61.5969 554.522 61.2651 554.504 60.9334L554.485 60.9702C555.204 60.8596 555.923 60.8044 556.513 61.3757C556.605 61.4494 556.771 61.5232 556.863 61.4863C557.453 61.3204 557.785 61.6337 558.154 62.0392C558.32 62.242 558.67 62.3157 558.947 62.3526C559.481 62.4447 560.035 62.4631 560.588 62.5184C560.754 62.5369 560.938 62.5553 561.085 62.5C561.62 62.2788 562.173 62.4447 562.726 62.4078C563.113 62.3894 563.353 62.6106 563.611 62.8686C563.574 63.1819 563.427 63.5321 563.519 63.8086C563.593 64.0482 563.925 64.1957 564.127 64.3984C564.183 64.6196 563.98 64.6749 563.851 64.767C563.187 65.1356 563.113 65.3199 563.445 65.7807C563.703 66.1309 563.777 66.4442 563.722 66.8497C563.648 67.5132 563.574 68.1767 563.501 68.8955C563.74 69.1536 564.164 69.3379 564.257 69.8171C564.293 69.983 564.496 70.2226 564.662 70.2594C565.215 70.3885 565.547 70.7386 565.805 71.1994C565.934 71.4206 566.1 71.5127 566.321 71.4575C566.616 71.3837 566.69 71.1073 566.672 70.8492C566.653 70.5912 566.58 70.3516 566.543 70.0936C566.506 69.8908 566.469 69.6881 566.432 69.4485C567.28 69.1167 567.962 69.3932 568.589 69.8724C568.921 70.112 569.216 70.4253 569.548 70.7386C569.622 71.3653 569.622 71.3653 570.285 71.9551C571.373 71.3837 572.498 70.8124 573.678 70.2041C573.881 70.2594 574.157 70.3516 574.452 70.4069C575.134 70.5543 575.3 70.4806 575.65 69.8171C575.724 69.6696 575.798 69.5222 575.89 69.3379C576.499 69.2642 577.199 69.3563 577.476 68.3426C577.642 68.7481 577.734 68.8587 577.715 68.9508C577.531 69.7618 577.476 70.6281 577.033 71.3653C576.923 71.5496 576.867 71.7523 576.775 71.9367C576.314 72.8029 576.48 73.6876 576.72 74.5354C576.812 74.8856 577.107 75.1805 577.347 75.5307C577.144 76.3601 576.701 77.1526 576.277 77.9083C575.927 78.5349 575.577 79.1063 575.374 79.8251C575.189 80.4886 574.931 81.1706 574.452 81.7604C574.249 82.0184 574.065 82.3501 574.028 82.6635C573.936 83.4376 574.36 84.1195 574.452 84.8752C574.507 85.336 574.895 85.6862 575.319 85.9258C575.392 85.9626 575.429 86.0548 575.484 86.1101C575.761 86.9948 575.392 87.8426 575.319 88.6904C575.282 89.1143 574.987 89.4461 574.563 89.6304C574.139 89.8147 573.733 90.0543 573.327 90.2939C572.424 90.81 571.852 91.5472 571.816 92.6346C571.816 92.7636 571.76 92.8742 571.76 93.0032C571.76 93.0401 571.779 93.077 571.816 93.206C572.129 93.4456 572.479 93.7036 572.903 94.0169C572.553 94.4962 572.221 94.9385 571.926 95.3255C571.908 95.9522 572.442 95.9522 572.756 96.2102C572.701 96.3208 572.664 96.4498 572.608 96.5604L572.627 96.4498V96.5236C572.442 96.8 572.147 96.7263 571.871 96.7447L571.889 96.7632C571.797 96.7632 571.687 96.7632 571.594 96.7632L571.631 96.7263C571.631 96.8185 571.631 96.929 571.631 97.0212L571.613 97.0028C571.502 97.482 570.912 97.4451 570.728 97.869C570.746 98.1271 570.746 98.4957 571.078 98.5694C571.576 98.68 572.092 98.6431 572.516 98.2929C572.645 98.1823 572.756 98.0349 572.811 97.8875C573.125 97.1133 573.678 96.4867 574.102 95.7863C574.47 95.1781 574.968 94.791 575.521 94.404C575.909 94.146 576.314 94.1644 576.701 94.4409L576.757 94.4777L576.664 94.4593C576.775 94.404 576.867 94.3487 576.978 94.2934C577.052 94.3671 577.144 94.4409 577.144 94.4777C576.978 95.3255 577.439 96.0075 577.752 96.7079L577.789 96.6894C577.697 96.7816 577.586 96.8922 577.494 96.9843L577.513 96.9659C577.07 97.1871 577.402 97.5373 577.365 97.8506C577.052 98.0165 576.628 98.0902 576.517 98.5141C576.443 98.551 576.369 98.6063 576.296 98.6431C576.333 98.6431 576.388 98.68 576.388 98.6615C576.425 98.6063 576.462 98.5325 576.48 98.4772C576.628 98.551 576.757 98.6247 576.941 98.7168C576.757 98.938 576.609 99.1408 576.462 99.3066C576.259 99.5278 576.222 99.749 576.222 100.062C576.222 100.431 576.167 100.91 575.743 101.187C575.54 101.334 575.448 101.647 575.337 101.813C575.595 102.2 575.779 102.514 575.982 102.827C575.909 102.845 575.706 102.79 575.872 102.993C575.909 102.938 575.927 102.864 575.964 102.809C576.074 102.845 576.204 102.882 576.296 102.938C576.554 103.085 576.738 103.048 576.83 102.735C576.849 102.679 576.941 102.643 576.996 102.606L576.959 102.587C576.886 102.827 576.849 103.085 576.72 103.288C576.609 103.509 576.406 103.675 576.277 103.859C576.683 104.615 576.72 104.633 576.333 105.223C576.074 105.592 576.093 106.089 575.706 106.421C575.521 106.587 575.835 107.103 576.111 107.048C576.572 106.955 576.941 107.029 577.31 107.287C577.31 107.545 577.31 107.803 577.31 108.098C577.181 108.098 577.052 108.135 576.941 108.098C576.535 107.951 576.13 107.803 575.816 108.283C575.872 108.412 575.945 108.559 576.038 108.762C575.614 108.928 575.208 109.093 574.821 109.259C574.895 109.757 575.19 110.015 575.466 110.273L575.448 110.255C575.466 110.531 575.466 110.808 575.521 111.084C575.558 111.287 575.392 111.268 575.3 111.324C574.692 111.784 574.6 112.448 574.544 113.13C574.526 113.443 575.042 113.757 575.3 113.554C575.927 113.056 576.701 112.982 577.42 112.761C577.863 112.485 577.844 111.692 578.637 111.711C578.674 112.466 578.416 113.056 577.715 113.406C577.973 114.07 578.969 113.591 579.098 114.383C578.563 114.567 578.066 114.604 577.568 114.254C577.383 114.125 577.07 114.051 576.923 114.42C577.107 114.641 577.273 114.862 577.476 115.065C577.586 115.194 577.734 115.378 577.863 115.36C578.84 115.323 579.393 116.208 580.26 116.411C580.481 116.466 580.555 116.853 580.37 116.927C579.965 117.074 579.817 117.369 579.725 117.774C579.67 118.032 579.448 118.272 579.282 118.567C580.296 119.157 581.274 119.599 582.398 119.636C582.601 119.636 582.841 119.618 583.007 119.507C583.578 119.083 584.224 118.788 584.887 118.512C585.108 118.42 585.311 118.254 585.477 118.069C586.049 117.498 586.547 117.48 587.063 118.032C587.321 118.309 587.579 118.567 587.911 118.917C587.874 119.157 587.819 119.489 587.763 119.894C587.929 119.986 588.151 120.097 588.39 120.244C589.736 118.678 591.064 117.148 592.391 115.6C592.76 115.987 593.073 116.3 593.423 116.65C593.866 116.3 594.253 115.987 594.603 115.71C594.751 115.747 594.861 115.729 594.898 115.784C595.193 116.079 595.451 116.411 595.746 116.687C596.06 116.982 596.539 116.687 596.926 117C597.166 117.203 597.645 117.093 598.088 117.129C598.199 117.535 598.088 117.94 598.051 118.346C598.014 118.714 597.867 119.083 597.848 119.47C597.83 120.17 597.719 120.816 597.111 121.276C596.576 122.659 595.433 123.599 594.585 124.741C594.419 124.963 594.29 125.128 594.308 125.405C594.345 126.105 594.198 126.75 593.663 127.266C593.608 127.322 593.571 127.414 593.534 127.488C593.202 128.114 593.35 128.557 593.995 128.815C594.198 128.888 594.401 128.907 594.622 128.962L594.603 128.925C594.548 129.036 594.419 129.183 594.456 129.257C594.677 129.791 594.622 130.326 594.364 130.787C594.806 131.377 595.193 131.911 595.617 132.464C596.189 132.464 596.76 132.409 597.387 132.869C597.424 132.962 597.406 133.22 597.148 133.459C596.89 133.68 596.668 133.938 596.429 134.178C596.097 134.491 595.968 134.878 595.931 135.358C596.152 135.505 596.373 135.671 596.613 135.837C596.429 136.169 596.318 136.39 596.207 136.611C596.3 136.98 596.982 137.569 597.314 137.551C597.424 137.551 597.59 137.514 597.664 137.422C598.106 136.795 598.678 136.961 599.268 137.109C599.71 137.219 600.153 137.385 600.577 137.514C600.835 137.348 601.093 137.182 601.314 137.053C601.831 137.182 602.033 137.532 602.218 137.883C602.218 138.307 601.849 138.325 601.646 138.528C601.13 139.025 600.651 139.56 599.876 139.652C599.692 139.67 599.526 139.873 599.36 140.021C599.01 140.334 598.659 140.629 598.346 140.979C598.106 141.256 597.922 141.569 597.774 141.772C597.756 142.288 598.604 142.122 598.18 142.656C598.346 142.712 598.42 142.767 598.494 142.748C599.047 142.675 599.508 142.509 599.987 142.177C600.835 141.587 601.72 141.034 602.826 140.868C603.969 140.703 604.928 140.039 605.868 139.376C606.219 139.118 606.569 138.988 607.011 138.896C607.472 138.786 608.007 138.804 608.431 138.472C608.707 138.251 609.058 138.251 609.408 138.362L609.39 138.343C609.353 138.472 609.261 138.657 609.297 138.694C609.832 139.283 610.09 140.094 610.883 140.574C611.381 140.555 611.934 140.537 612.21 139.928C612.469 139.339 612.321 138.988 611.602 138.288C611.897 138.067 612.192 137.993 612.505 138.214C612.708 138.362 612.911 138.509 613.114 138.675C613.317 138.841 613.501 139.007 613.667 139.136C613.667 139.56 613.685 139.892 613.667 140.242C613.649 140.647 613.759 140.997 613.962 141.329C614.073 141.514 614.22 141.679 614.294 141.864C614.626 142.638 614.921 143.375 614.81 144.278C614.663 145.55 614.46 146.766 614.054 148.001C613.667 149.199 613.519 150.471 613.224 151.706C613.077 152.277 612.856 152.83 612.616 153.365C612.155 154.489 611.639 155.613 611.178 156.738C610.736 157.843 610.164 158.876 609.629 159.926C608.91 161.382 607.804 162.543 606.938 163.889C606.348 164.81 605.739 165.732 605.204 166.672C604.578 167.796 603.766 168.791 602.9 169.694C602.07 170.561 601.462 171.556 600.872 172.588C600.817 172.699 600.761 172.828 600.743 172.938C600.522 173.989 600.522 173.989 599.968 174.745C600.024 174.892 600.061 175.039 600.134 175.205C600.319 175.592 600.263 175.943 599.987 176.274C599.637 176.698 599.342 177.159 599.139 177.675C599.01 178.007 598.918 178.265 599.102 178.633C599.268 178.947 599.176 179.297 598.936 179.592C598.623 179.979 598.328 180.403 597.959 180.753C597.166 181.509 596.373 182.283 595.322 182.688C595.212 182.744 595.101 182.854 594.991 182.873C594.179 182.965 593.663 183.536 593.073 184.034C592.483 184.531 591.856 184.955 591.266 185.435C590.418 186.116 589.496 186.725 588.814 187.609C587.929 187.904 587.505 188.771 586.786 189.287C586.122 189.766 585.569 190.411 584.979 191.019C584.058 191.959 583.173 192.917 582.232 193.839C581.421 194.632 580.499 195.314 579.872 196.272C579.614 196.659 579.098 196.714 578.932 197.249C578.822 197.654 578.397 197.986 578.084 198.336C577.789 198.686 577.457 199.018 577.144 199.368C576.978 199.553 576.812 199.755 576.609 199.903C575.724 200.566 575.153 201.525 574.305 202.244C574.268 202.262 574.231 202.299 574.212 202.336C572.996 204.382 570.967 205.616 569.271 207.201C568.202 208.215 567.004 209.1 565.861 210.058C565.602 210.611 564.902 210.63 564.588 211.201C564.33 211.68 563.703 211.957 563.243 212.325C562.782 212.694 562.376 213.136 561.897 213.468C561.454 213.763 561.159 214.168 560.919 214.611C560.422 215.514 559.703 216.214 558.91 216.878C557.877 217.744 556.882 218.666 555.813 219.421C555.886 220.158 555.628 220.767 555.13 221.172C553.987 222.112 552.955 223.181 551.812 224.103C551.72 224.176 551.609 224.25 551.498 224.324L551.461 224.269L551.517 224.305C550.355 225.19 549.194 226.093 548.032 226.978C547.092 227.697 546.152 228.397 545.211 229.097C544.824 229.079 544.88 229.54 544.603 229.632L544.621 229.669C544.529 229.503 544.419 229.466 544.308 229.669L544.326 229.632C544.326 229.743 544.326 229.853 544.345 229.945L544.308 229.927C542.981 230.977 541.653 232.028 540.344 233.079C538.722 234.369 537.228 235.806 535.421 236.857C534.997 237.096 534.702 237.557 534.315 237.889C534.002 238.165 533.67 238.424 533.32 238.663C532.859 238.976 532.343 239.198 531.919 239.529C530.757 240.469 529.522 241.262 528.286 242.091C527.125 242.865 526.037 243.732 524.894 244.524C524.138 245.059 523.345 245.556 522.534 246.017C522.129 246.238 521.649 246.312 521.244 246.496C521.022 246.588 520.727 246.773 520.672 246.957C520.543 247.492 520.082 247.528 519.732 247.731C519.031 248.137 518.921 248.063 518.626 247.123C518.884 246.828 519.142 246.515 519.418 246.201C519.861 245.704 520.359 245.372 521.096 245.483C521.317 245.519 521.631 245.446 521.815 245.317C522.645 244.672 523.438 243.971 524.249 243.289C524.286 243.271 524.304 243.216 524.341 243.142C524.304 242.847 524.286 242.534 524.249 242.183C524.157 242.183 524.009 242.128 523.917 242.165C522.534 242.865 521.133 243.584 519.75 244.303C518.828 244.782 517.833 245.132 516.911 245.612C516.192 245.98 515.491 246.367 514.772 246.717C514.477 246.865 514.146 246.92 513.832 247.012C513.795 246.865 513.795 246.773 513.777 246.699C513.74 246.533 513.74 246.312 513.629 246.238C513.482 246.128 513.242 246.054 513.039 246.054C512.855 246.072 512.652 246.201 512.468 246.294C511.62 246.699 510.753 247.031 509.721 246.717C509.647 246.975 509.555 247.215 509.481 247.492C508.172 248.081 506.845 248.69 505.48 249.261C505.222 249.372 504.909 249.408 504.614 249.39C504.282 249.353 503.968 249.169 503.655 249.15C503.378 249.132 503.102 249.279 502.715 249.39C502.844 249.113 502.881 248.948 502.991 248.837C503.249 248.561 503.323 248.247 503.157 247.897C503.047 247.657 502.954 247.363 503.139 247.178C503.6 246.699 503.508 246.183 503.378 245.648C503.342 245.483 503.286 245.335 503.249 245.169C503.268 245.169 503.305 245.151 503.323 245.151C503.286 245.169 503.268 245.169 503.231 245.188C502.881 244.745 502.291 244.893 501.83 244.672C501.682 244.598 501.424 244.727 501.24 244.819C500.779 245.022 500.336 245.28 499.875 245.464C499.654 245.556 499.396 245.575 499.138 245.593C498.788 245.593 498.751 245.538 498.474 244.893C498.972 244.395 499.433 243.824 499.064 243.031C498.732 242.331 498.382 241.631 497.147 241.778C497.608 241.372 497.921 241.151 498.161 240.875C498.566 240.414 498.327 239.806 497.7 239.787C497.073 239.769 496.409 239.751 495.838 240.082C495.377 240.34 494.934 240.691 494.381 241.078C494.252 241.059 493.957 241.022 493.681 240.985C493.625 240.875 493.57 240.801 493.57 240.746C493.681 240.101 493.81 239.456 493.957 238.755C493.201 238.516 492.814 237.981 492.648 237.299C492.611 237.115 492.63 236.82 492.74 236.709C493.183 236.304 493.109 235.806 493.109 235.327C492.888 235.106 492.704 234.903 492.501 234.7C492.519 234.7 492.556 234.682 492.575 234.682C492.556 234.7 492.519 234.719 492.501 234.719C490.915 235.124 489.348 235.64 487.873 236.396C487.431 236.617 486.988 236.875 486.527 237.096C486.343 236.949 486.38 236.802 486.546 236.691C486.822 236.507 487.136 236.359 487.412 236.175C487.892 235.88 488.297 235.511 488.334 234.829C488.168 234.608 487.965 234.332 487.763 234.037C487.836 233.816 487.855 233.521 488.002 233.355C488.371 233.005 488.389 232.655 488.223 232.212C488.168 232.065 488.223 231.881 488.223 231.715C488.574 231.457 488.924 231.217 489.238 230.941C489.532 230.683 489.698 230.369 489.717 229.945C489.717 229.558 489.532 229.319 489.238 229.042C488.74 229.226 488.205 229.411 487.965 229.945C487.707 230.535 487.283 230.812 486.712 230.83C485.956 230.885 485.587 231.309 485.421 231.973C485.108 232.083 484.831 232.212 484.555 232.268C484.204 232.341 483.965 232.526 483.688 232.747C483.301 233.06 482.877 233.337 482.434 233.558C481.125 234.221 479.816 234.903 478.544 235.677C478.212 235.88 477.936 236.157 477.604 236.322C477.272 236.488 477.032 236.82 476.59 236.783C476.461 236.765 476.258 236.875 476.184 237.004C475.576 237.889 474.58 238.202 473.732 238.755C472.46 239.585 471.17 240.359 469.897 241.207C469.51 241.465 469.215 241.833 468.883 242.147C468.644 242.368 468.404 242.626 468.146 242.829C467.943 242.976 467.722 243.068 467.814 243.418C467.832 243.51 467.556 243.75 467.372 243.805C466.726 244.027 466.099 244.266 465.436 244.377C464.754 244.487 464.145 244.69 463.555 245.059C463.15 245.317 462.744 245.704 462.172 245.556V245.593C462.191 245.39 462.228 245.188 462.265 244.911C461.232 244.579 460.255 244.192 459.167 244.856C458.928 244.672 458.669 244.487 458.393 244.285C458.024 244.229 457.729 244.395 457.471 244.616C457.25 244.801 456.973 244.856 456.77 244.672C456.457 244.432 456.144 244.469 455.812 244.598C455.332 244.819 454.853 244.893 454.355 244.838C454.042 244.487 453.968 244.119 454.116 243.75C454.392 243.068 454.245 242.423 453.986 241.796C453.802 241.372 453.839 241.022 453.986 240.58C454.281 239.751 454.152 239.493 453.47 238.94C453.212 238.718 452.936 238.663 452.641 238.7C452.309 238.755 451.995 238.884 451.682 239.013C451.479 239.087 451.313 239.234 451.129 239.327C450.115 239.787 449.912 239.511 449.525 238.921C449.433 238.774 449.322 238.645 449.23 238.516C448.197 238.202 447.22 238.239 446.298 238.811C446.132 238.921 445.893 238.995 445.708 238.976C445.008 238.94 444.363 239.124 443.736 239.364C442.869 239.695 442.095 239.658 441.357 239.032C441.081 238.792 440.73 238.626 440.325 238.589C439.882 238.553 439.809 238.276 440.011 237.871C440.288 237.355 440.565 236.82 440.86 236.322C441.081 235.935 441.136 235.585 440.933 235.124C440.786 234.793 440.841 234.387 440.786 234C440.694 233.244 440.288 232.839 439.532 232.857C438.85 232.857 438.186 232.95 437.504 232.986C437.209 233.005 436.914 233.023 436.638 232.968C436.011 232.839 435.402 232.71 434.757 232.821C434.499 232.876 434.13 232.784 433.927 232.618C433.245 232.12 432.434 231.825 431.862 231.18C431.512 230.793 431.107 230.517 430.553 230.498C430.369 230.498 430.185 230.314 430 230.222C429.613 229.392 429.89 228.637 430.295 227.918C430.498 227.549 430.701 227.199 430.904 226.83C431.088 226.462 431.438 226.167 431.752 225.89C432.139 225.522 432.36 225.098 432.508 224.508C431.346 224.471 430.203 224.14 429.281 225.061C429.005 224.987 428.765 224.932 428.489 224.877C428.489 224.582 428.47 224.324 428.489 224.084C428.525 223.55 428.673 223.034 428.452 222.481C428.249 221.983 428.433 221.522 428.728 221.062C429.668 219.606 430.793 218.278 431.66 216.767C431.881 216.38 432.323 216.122 432.674 215.827C433.042 215.514 432.987 215.145 432.508 214.979C432.231 214.887 431.936 214.85 431.678 214.795C430.59 215.532 430.24 216.97 428.949 217.541C428.71 217.191 428.47 216.859 428.212 216.491C428.028 216.601 427.862 216.657 427.751 216.767C427.069 217.449 426.387 218.149 425.705 218.85C425.354 219.218 425.207 219.606 425.336 220.122C425.41 220.398 425.428 220.711 425.391 220.988C425.354 221.227 425.41 221.393 425.539 221.578C425.815 221.928 425.594 222.223 425.373 222.481C425.188 222.702 424.912 222.739 424.691 222.573C424.322 222.296 424.008 221.983 423.621 221.633C423.787 220.951 423.455 220.251 423.732 219.55C423.806 219.347 423.732 219.016 423.603 218.831C423.142 218.205 423.234 217.56 423.492 216.896C423.511 216.859 423.492 216.804 423.492 216.693C422.994 216.362 423.068 215.717 422.81 215.145C422.663 215.09 422.497 215.053 422.349 214.998C421.224 214.684 421.224 214.684 420.339 215.348C420.118 215.053 420.339 214.85 420.505 214.684C420.985 214.205 421.427 213.708 421.907 213.21C422.81 212.27 423.824 211.422 424.783 210.519C425.87 209.505 426.921 208.473 427.991 207.441C428.083 207.349 428.157 207.109 428.101 207.017C428.046 206.907 427.825 206.814 427.677 206.833C427.309 206.851 426.921 206.925 426.553 206.98C426.313 207.017 426.055 207.072 425.815 207.109C425.705 206.98 425.631 206.888 425.557 206.796C425.391 206.612 425.262 206.335 425.059 206.262C424.727 206.132 424.377 206.28 424.119 206.52C423.787 206.833 423.492 207.201 423.179 207.552C422.921 207.828 422.699 208.16 422.423 208.399C421.888 208.879 421.261 209.266 420.782 209.8C420.321 210.335 420.026 210.998 419.62 211.588C419.418 211.901 419.196 212.233 418.772 212.325C418.275 212.233 418.072 211.846 418.035 211.422C418.016 211.072 418.238 210.814 418.533 210.593C418.938 210.298 419.289 209.911 419.62 209.524C420.118 208.952 420.561 208.326 421.261 207.957C421.464 207.847 421.612 207.589 421.778 207.423C421.962 207.257 422.109 206.999 422.331 206.943C423.013 206.722 423.308 206.132 423.658 205.635C423.953 205.229 423.953 204.732 423.732 204.308C423.529 203.902 423.197 203.552 422.902 203.184C422.589 202.796 422.109 202.741 421.667 202.723C421.335 202.17 421.224 201.672 421.483 201.119C421.759 200.493 421.999 199.866 422.736 199.608C423.087 199.479 423.382 199.202 423.677 198.981C424.322 198.502 425.004 198.078 425.834 197.968C426.036 197.931 426.239 197.857 426.424 197.765C427.733 197.083 429.005 196.327 430.24 195.535C430.922 195.111 431.567 194.632 432.268 194.263C433.909 193.378 435.365 192.217 436.933 191.203C437.762 190.669 438.481 190.024 439.034 189.194C439.145 189.029 439.2 188.807 439.292 188.531C438.297 188.365 437.412 188.31 436.656 189.047C436.195 189.508 435.716 189.913 434.978 189.747L434.997 189.766C435.273 189.526 435.531 189.268 435.826 189.029C436.379 188.568 436.951 188.144 437.486 187.665C438.334 186.909 439.108 186.061 439.993 185.342C440.73 184.734 441.265 183.997 441.781 183.223C442.169 182.67 442.556 182.117 443.072 181.656C443.422 181.343 443.422 181.324 443.588 180.587C443.367 180.329 443.127 180.44 442.906 180.569C441.579 181.324 440.38 182.264 439.274 183.297C438.758 183.776 438.131 184.181 437.799 184.863C437.707 185.066 437.43 185.195 437.209 185.305C436.508 185.711 435.863 186.172 435.273 186.725C434.425 187.499 433.522 188.199 432.471 188.66C432.268 188.494 432.416 188.347 432.526 188.254C433.282 187.499 434.02 186.762 434.794 186.024C435.015 185.822 435.255 185.637 435.494 185.471C436.343 184.826 437.191 184.218 437.559 183.149C437.652 182.891 437.891 182.688 438.02 182.43C438.094 182.264 438.094 182.043 438.112 181.859C437.854 181.564 437.615 181.73 437.43 181.877C436.914 182.301 436.379 182.744 435.919 183.223C435.476 183.684 434.978 184.052 434.425 184.384C434.02 184.624 433.688 184.937 433.282 185.195C433.116 185.306 432.913 185.324 432.581 185.416C432.784 184.771 433.245 184.513 433.522 184.126C433.817 183.72 434.204 183.389 434.204 182.873C434.02 182.633 433.854 182.744 433.725 182.836C433.448 183.02 433.19 183.26 432.932 183.462C432.379 183.923 431.844 184.402 431.18 184.697C430.848 184.845 430.553 185.121 430.277 185.379C429.632 185.932 429.023 186.522 428.341 187.038C427.124 187.96 426.055 189.047 424.875 190.005C424.617 190.227 424.414 190.521 424.027 190.54C423.879 190.54 423.64 190.54 423.566 190.448C423.455 190.3 423.4 190.061 423.437 189.876C423.474 189.692 423.621 189.471 423.769 189.342C424.912 188.457 425.668 187.204 426.663 186.172C427.032 185.785 427.419 185.398 427.659 184.882C427.843 184.513 428.175 184.2 428.47 183.905C428.913 183.462 429.373 183.002 429.871 182.615C430.369 182.209 430.553 181.675 430.646 181.048C430.387 180.882 430.148 180.716 429.945 180.587C429.798 180.642 429.705 180.642 429.632 180.679C427.972 182.062 426.313 183.462 424.654 184.845C424.488 184.974 424.322 185.103 424.137 185.213C423.603 185.545 423.455 185.508 422.81 184.826C423.824 183.684 424.912 182.559 425.299 180.9C425.133 180.9 424.986 180.864 424.856 180.9C423.806 181.214 423.05 181.969 422.183 182.578C421.704 182.909 421.206 183.241 420.708 183.555L420.727 183.573C420.819 182.965 421.372 182.725 421.741 182.338C422.552 181.472 423.382 180.642 423.916 179.573C424.101 179.205 424.377 178.873 424.672 178.597C425.281 178.025 425.723 177.417 425.631 176.514C425.594 176.145 425.686 175.777 425.723 175.408C425.188 174.671 424.469 174.689 423.787 174.984C423.087 175.279 422.368 175.5 421.612 175.592C421.243 175.648 420.874 175.795 420.542 175.979C419.915 176.33 419.325 176.274 418.772 175.832C418.44 175.574 418.127 175.297 417.814 175.021C417.463 174.708 417.131 174.394 416.763 174.026C416.468 174.155 416.191 174.247 415.97 174.413C415.509 174.745 415.048 174.8 414.55 174.579V174.616C414.643 174.284 414.735 173.97 414.864 173.583C414.458 173.086 414.126 172.533 414.182 171.796C414.2 171.501 413.923 171.187 413.813 170.874C413.61 170.34 413.573 169.823 414.016 169.344C414.255 169.068 414.403 168.699 414.532 168.349C414.698 167.907 414.384 167.446 413.923 167.464C413.592 167.483 413.26 167.593 412.965 167.741C412.467 167.98 411.988 168.257 411.527 168.57C411.01 168.92 410.457 169.031 409.849 169.086C409.296 169.123 408.817 169.105 408.522 168.607C408.282 168.202 407.803 168.404 407.471 168.128C407.6 167.575 407.839 167.059 408.245 166.635C408.706 166.137 409.093 165.584 409.056 164.755C408.724 164.534 408.356 164.276 408.005 164.036C407.194 163.926 406.862 164.681 406.051 164.995C406.364 164.552 406.567 164.257 406.807 163.926C406.807 163.889 406.844 163.815 406.825 163.741C406.641 162.783 406.475 162.654 405.609 162.691C405.443 162.691 405.277 162.691 405.092 162.728C404.834 162.764 404.595 162.801 404.318 162.857C404.041 162.58 403.912 162.267 403.986 161.843C404.041 161.511 404.152 161.143 404.041 160.866C403.875 160.405 403.931 160.092 404.3 159.76C404.429 159.65 404.41 159.373 404.465 159.17C404.613 158.654 404.797 158.23 405.35 157.917C406.033 157.53 406.586 156.903 407.176 156.369C407.213 156.387 407.231 156.406 407.268 156.424C407.231 156.406 407.194 156.406 407.157 156.387C407.766 156.092 408.337 155.779 408.817 155.281C409.296 154.784 409.923 154.434 410.457 153.991C410.826 153.678 411.195 153.346 411.305 152.775C411.398 152.277 411.951 152.001 412.375 151.78C412.633 151.651 412.873 151.522 413.094 151.337C413.426 151.079 413.739 150.803 414.218 150.803C414.329 150.803 414.458 150.729 414.569 150.674C415.583 150.066 416.597 149.476 417.592 148.849C417.851 148.683 418.053 148.499 418.367 148.48C418.477 148.48 418.606 148.407 418.717 148.333C420.266 147.098 422.073 146.232 423.584 144.96C423.787 144.794 423.953 144.592 424.193 144.499C424.727 144.278 425.096 143.891 425.391 143.412C425.705 142.896 426.165 142.564 426.774 142.38C427.235 142.251 427.64 141.956 428.028 141.587C428.636 140.961 429.41 140.481 430.129 139.947C430.59 139.597 430.922 139.21 430.959 138.638C430.738 138.399 430.535 138.491 430.351 138.583C429.613 139.007 428.876 139.412 428.157 139.873C427.567 140.26 426.903 140.537 426.368 141.053C426.129 141.292 425.668 141.458 425.336 141.421C424.801 141.366 424.432 141.569 424.045 141.827C423.769 142.011 423.474 142.214 423.179 142.343C422.994 142.417 422.755 142.454 422.57 142.417C422.146 142.325 421.87 142.509 421.778 142.841C421.556 143.559 420.911 143.725 420.376 144.039C419.491 143.707 418.957 144.647 418.164 144.665C418.053 144.665 417.924 144.757 417.832 144.85C416.431 146.158 414.753 147.08 413.241 148.241C413.075 148.37 412.873 148.48 412.67 148.48C411.195 148.499 410.162 149.384 409.13 150.25C409.001 150.36 408.872 150.508 408.724 150.526C408.024 150.637 407.489 151.061 406.936 151.448C406.106 152.019 405.277 152.627 404.41 153.162C403.82 153.531 403.286 153.899 402.935 154.526C402.861 154.655 402.659 154.71 402.456 154.839C402.308 154.618 402.198 154.415 402.05 154.231C401.718 153.789 401.368 153.309 400.704 153.236C400.225 153.18 400.133 152.793 400.428 152.425C401.516 150.987 401.7 150.821 403.322 149.697C404.281 148.997 405.24 148.333 406.235 147.725C406.807 147.375 407.415 147.061 407.968 146.693C408.134 146.582 408.356 146.545 408.558 146.471C408.798 146.379 409.093 146.361 409.241 146.195C409.867 145.513 410.734 145.255 411.527 144.868C411.822 144.721 412.117 144.536 412.375 144.333C413.002 143.836 413.665 143.393 414.421 143.08C414.882 142.877 415.306 142.583 415.73 142.324C415.878 142.232 415.988 142.066 416.136 142.03C417.445 141.808 418.256 140.703 419.399 140.205C419.971 139.947 420.432 139.468 420.948 139.118C421.925 138.454 422.865 137.735 423.898 137.182C425.244 136.463 426.442 135.542 427.733 134.749C427.991 134.602 428.212 134.399 428.433 134.215C429.466 133.349 430.517 132.501 431.733 131.874C432.342 131.561 432.729 130.971 432.895 130.289C432.932 130.123 432.876 129.847 432.747 129.718C432.563 129.497 432.305 129.349 432.121 129.202C429.668 130.584 427.272 131.929 424.875 133.275C424.58 133.441 424.266 133.607 424.008 133.791C423.179 134.381 422.294 134.897 421.409 135.376C420.524 135.855 419.694 136.463 418.846 137.016C418.606 137.182 418.348 137.33 418.072 137.459C416.283 138.343 414.513 139.228 412.854 140.352C412.154 140.832 411.379 141.182 410.66 141.624C409.794 142.159 408.964 142.73 408.116 143.301C407.249 143.891 406.364 144.481 405.498 145.089C404.982 145.439 404.484 145.826 403.968 146.195C403.249 145.366 402.991 145.218 402.161 145.237C401.884 145.237 401.516 145.292 401.331 145.458C400.538 146.121 399.543 146.416 398.732 147.006C398.271 147.338 397.902 147.688 397.644 148.222C397.441 148.628 397.128 148.978 396.87 149.347C395.911 148.867 395.745 148.222 396.372 147.54C396.538 147.356 396.777 147.209 396.888 146.988C397.035 146.693 397.257 146.545 397.552 146.471C398.031 146.361 398.381 146.084 398.732 145.771C399.063 145.476 399.358 145.126 399.856 144.997C400.17 144.905 400.409 144.499 400.667 144.223C400.926 143.946 401.147 143.633 401.571 143.578C401.718 143.559 401.903 143.467 401.995 143.338C402.401 142.804 402.991 142.564 403.562 142.288C404.465 141.845 405.295 141.256 406.014 140.574C406.457 140.15 406.788 139.56 407.083 139.007C407.176 138.823 407.231 138.657 407.415 138.546C408.171 138.03 409.038 137.864 409.904 137.698C410.236 137.643 410.568 137.606 410.881 137.477C411.508 137.219 412.19 137.016 412.707 136.611C413.499 135.966 414.44 135.597 415.306 135.081C415.859 134.768 416.431 134.473 416.892 134.067C417.39 133.644 417.98 133.422 418.551 133.146C419.141 132.869 419.639 132.482 419.971 131.929C420.1 131.727 420.118 131.469 420.192 131.192C419.16 130.989 418.44 131.542 417.685 131.948C417.426 132.095 417.205 132.28 416.873 132.224C416.873 132.206 416.855 132.169 416.855 132.151C416.873 132.187 416.892 132.206 416.892 132.243C416.763 132.482 416.56 132.501 416.339 132.464L416.376 132.501C416.357 132.169 416.339 131.837 416.339 131.598C416.929 131.192 417.463 130.879 417.924 130.455C418.348 130.086 418.994 130.252 419.344 129.773C420.1 129.533 420.524 128.833 421.169 128.483C421.833 128.133 422.589 127.985 423.252 127.653C423.842 127.34 424.359 126.898 424.912 126.511C425.115 126.363 425.317 126.161 425.539 126.105C426.295 125.921 426.645 125.405 426.848 124.649C426.719 124.446 426.59 124.188 426.424 123.93C426.608 123.47 426.995 123.138 427.419 122.861C427.622 122.732 427.825 122.567 428.028 122.419C428.396 122.143 428.433 121.811 428.267 121.424C426.977 121.129 426.94 121.037 426.147 122.327C425.815 122.437 425.428 122.603 425.022 122.769ZM437.025 209.929L437.08 209.911L437.062 209.966C437.043 209.985 437.006 209.985 436.988 210.003C437.006 209.966 437.006 209.948 437.025 209.929ZM440.601 115.102C440.62 115.065 440.638 115.047 440.657 115.01C440.638 115.047 440.638 115.084 440.601 115.102C440.583 115.12 440.565 115.139 440.528 115.139C440.565 115.12 440.583 115.12 440.601 115.102ZM593.331 134.252C593.313 134.307 593.294 134.381 593.276 134.436C593.294 134.362 593.294 134.289 593.313 134.215C593.387 134.196 593.442 134.196 593.516 134.178C593.497 134.141 593.46 134.086 593.442 134.049C593.405 134.123 593.368 134.196 593.331 134.252ZM557.343 70.7386C557.048 70.7386 556.753 70.7018 556.476 70.7386C556.347 70.7571 556.2 70.923 556.163 71.052C556.107 71.2731 556.329 71.31 556.476 71.31C556.863 71.31 557.214 71.181 557.417 70.8124C557.472 70.7386 557.509 70.6834 557.564 70.6096C557.49 70.6465 557.417 70.6834 557.343 70.7386ZM425.022 217.597C425.188 217.486 425.391 217.412 425.539 217.265C426.202 216.601 426.829 215.919 427.493 215.274C428.433 214.371 429.226 213.302 430.443 212.694C430.885 212.473 431.199 212.03 431.457 211.57C431.586 211.33 431.807 211.109 432.01 210.906C432.969 210.058 433.927 209.247 434.886 208.399C435.052 208.252 435.126 207.994 435.31 207.662C435.034 207.662 434.849 207.607 434.739 207.681C434.536 207.81 434.315 207.994 434.222 208.197C434.075 208.547 433.854 208.75 433.54 208.916C433.245 209.081 432.95 209.247 432.674 209.45C432.121 209.837 431.586 210.261 431.051 210.667C430.922 211.404 430.258 211.57 429.742 211.883C429.595 211.975 429.466 212.067 429.337 212.178C427.991 213.413 426.774 214.758 425.557 216.141C425.336 216.399 425.133 216.675 425.004 216.988C424.93 217.154 425.022 217.375 425.022 217.578C424.986 217.578 424.949 217.597 424.93 217.597C424.912 217.597 424.912 217.633 424.912 217.652C424.967 217.67 425.004 217.633 425.022 217.597ZM490.528 232.157C490.528 232.175 490.547 232.212 490.547 232.231C490.528 232.212 490.51 232.175 490.51 232.157C490.841 231.991 491.173 231.807 491.524 231.696C491.8 231.622 492.058 231.549 492.335 231.383C493.699 230.535 495.174 229.908 496.668 229.319C496.852 229.245 497.055 229.153 497.221 229.042C497.626 228.729 498.013 228.416 498.401 228.084C498.769 227.77 498.769 227.678 498.456 226.959C498.216 226.978 497.977 226.978 497.718 227.033C497.552 227.07 497.331 227.125 497.276 227.217C497.018 227.844 496.391 227.992 495.912 228.25C494.474 229.024 492.98 229.724 491.524 230.461C491.229 230.609 490.934 230.793 490.639 230.977C490.473 231.088 490.307 231.235 490.159 231.383C489.993 231.567 490.049 231.77 490.233 231.936C490.325 232.01 490.436 232.083 490.528 232.157ZM487.025 92.6346L487.044 92.7084L487.007 92.6715C487.468 92.3029 487.928 91.9527 488.389 91.5656C488.555 91.4366 488.684 91.2339 488.869 91.1601C489.92 90.7362 490.657 89.9068 491.468 89.1696C491.745 88.9116 492.021 88.6167 492.372 88.4877C493.515 88.0637 494.308 87.1422 495.266 86.4787C495.856 86.0732 496.336 85.5203 496.833 85.0042C496.926 84.9121 496.944 84.6725 496.907 84.525C496.852 84.267 496.594 84.2117 496.409 84.267C495.764 84.4697 495.174 84.7277 494.658 85.2069C494.197 85.6309 493.681 86.0179 493.165 86.3681C492.648 86.6999 492.335 87.3081 491.671 87.4924C491.413 87.5661 491.155 87.8241 491.007 88.0637C490.694 88.5798 490.215 88.801 489.698 89.0037C489.385 89.1327 489.053 89.2618 488.813 89.4829C488.168 90.0174 487.56 90.6257 486.933 91.1786C486.749 91.3445 486.546 91.5103 486.325 91.6209C485.31 92.2107 484.278 92.7821 483.246 93.3719C482.508 93.7958 481.771 94.2197 481.07 94.6805C480.499 95.0491 479.872 95.3808 479.466 95.8969C478.987 96.4867 478.36 96.8185 477.807 97.2608C476.885 97.998 475.908 98.68 474.949 99.3804C474.304 99.8411 473.64 100.302 472.958 100.707C472.626 100.91 472.313 101.076 472.165 101.481C472.073 101.74 471.796 101.776 471.575 101.887C470.469 102.458 469.215 102.809 468.367 103.841C468.257 103.97 468.109 104.062 467.98 104.154C467.077 104.781 466.173 105.389 465.27 106.016C465.03 106.181 464.846 106.403 464.643 106.605C464.772 106.863 464.938 106.955 465.178 106.9C466.044 106.679 466.818 106.292 467.574 105.794C468.828 104.947 470.026 104.062 471.428 103.417C472.442 102.938 473.4 102.256 474.138 101.352C474.746 100.615 475.502 100.265 476.387 100.062C476.737 99.9886 477.161 99.8596 477.401 99.6015C477.678 99.3066 477.991 99.1592 478.323 98.9933C479.042 98.6247 479.816 98.3298 480.425 97.8137C481.052 97.2792 481.623 96.6894 482.268 96.1549C483.061 95.5099 483.909 94.9754 484.702 94.3487C485.403 93.7221 486.232 93.206 487.025 92.6346ZM428.286 123.193C428.415 123.672 428.71 123.801 429.005 123.765C430.019 123.599 431.014 123.322 431.715 122.53C432.176 122.014 432.711 121.7 433.319 121.627C434.167 121.534 434.665 121 435.199 120.502C435.31 120.392 435.384 120.207 435.421 120.06C435.458 119.949 435.439 119.765 435.384 119.71C435.273 119.636 435.052 119.544 434.941 119.599C433.835 120.134 432.766 120.687 431.66 121.239C431.475 121.332 431.291 121.424 431.088 121.498C430.056 121.848 429.152 122.474 428.286 123.193ZM435.458 127.174C436.048 127.69 436.066 127.672 436.324 127.69C437.688 127.746 438.832 127.101 439.975 126.474C440.214 126.345 440.38 126.05 440.546 125.81C440.657 125.626 440.657 125.405 440.454 125.239C440.325 125.128 440.196 125.036 439.993 124.907C439.256 125.184 438.5 125.405 437.799 125.755C437.025 126.142 436.306 126.64 435.458 127.174ZM490.086 228.36C490.694 229.226 490.676 229.208 491.487 228.968C492.058 228.803 492.593 228.563 493.091 228.25C493.699 227.863 494.326 227.512 494.934 227.144C495.285 226.941 495.432 226.609 495.303 226.314C495.193 226.056 494.769 225.927 494.4 226.075C494.289 226.112 494.179 226.204 494.068 226.259C493.662 226.48 493.238 226.683 492.851 226.941C492.28 227.328 491.708 227.66 490.989 227.476C490.676 227.789 490.381 228.084 490.086 228.36ZM437.154 118.567C437.357 118.696 437.486 118.825 437.615 118.862C438.315 119.028 438.942 118.77 439.532 118.438C439.79 118.291 440.03 118.014 440.288 117.996C440.841 117.959 441.21 117.609 441.671 117.406C441.745 117.369 441.781 117.277 441.818 117.24C441.818 116.982 441.818 116.742 441.818 116.429C441.56 116.429 441.339 116.374 441.173 116.447C440.472 116.742 439.79 117.056 439.108 117.369C438.647 117.572 438.186 117.774 437.744 118.014C437.541 118.143 437.393 118.346 437.154 118.567ZM432.25 222.831C432.618 223.163 432.987 223.476 433.3 223.752C434.02 223.55 434.315 223.071 434.407 222.444C434.48 222.002 434.351 221.67 433.964 221.522C433.614 221.393 433.264 221.191 432.784 221.393C432.618 221.836 432.434 222.333 432.25 222.831ZM438.85 209.948C438.094 210.243 437.578 210.353 437.191 210.796C436.877 211.127 436.508 211.459 436.011 211.477C435.089 211.496 434.444 212.049 433.817 212.62C433.743 212.694 433.761 212.823 433.725 212.97C433.89 212.989 434.038 213.044 434.13 213.007C434.775 212.694 435.421 212.381 436.048 212.049C436.416 211.846 436.748 211.551 437.135 211.441C437.707 211.275 438.112 210.888 438.573 210.574C438.666 210.501 438.684 210.353 438.85 209.948ZM492.556 85.8336C491.745 85.723 491.21 85.7414 490.768 86.0916C490.417 86.3865 490.141 86.7551 490.307 87.3634C490.547 87.3449 490.841 87.3818 490.989 87.2712C491.468 86.8842 491.911 86.4418 492.556 85.8336ZM547.129 73.8166C546.52 73.6507 546.078 73.835 545.709 74.2037C545.617 74.2958 545.635 74.517 545.635 74.6829C545.635 74.8856 545.764 74.9962 545.967 74.9409C546.52 74.7935 546.871 74.4248 547.129 73.8166ZM550.964 74.7382C550.945 74.5354 550.54 74.3142 550.355 74.4433C550.152 74.5723 549.968 74.7566 549.821 74.9409C549.655 75.1436 549.821 75.4385 550.079 75.5123C550.54 75.6228 551.019 75.2174 550.964 74.7382ZM446.335 113.683C445.782 113.554 445.395 113.959 444.934 114.07C444.694 114.125 444.363 114.236 444.455 114.512C444.584 114.881 444.842 114.512 445.045 114.512C445.635 114.512 446.022 114.199 446.335 113.683ZM563.427 121.221C563.04 121.368 562.8 121.424 562.616 121.553C562.523 121.608 562.523 121.848 562.56 121.977C562.579 122.05 562.763 122.106 562.874 122.106C563.298 122.106 563.298 121.719 563.427 121.221ZM607.14 139.928C607.362 140.131 607.472 140.297 607.638 140.352C607.749 140.389 607.97 140.297 608.044 140.205C608.117 140.094 608.081 139.892 608.025 139.763C607.988 139.689 607.823 139.615 607.73 139.634C607.564 139.67 607.398 139.781 607.14 139.928ZM437.191 117.093C436.785 117.111 436.361 117.129 436.14 117.609C436.803 117.516 436.803 117.516 437.191 117.093ZM443.92 115.765C443.459 115.434 443.219 115.544 443.035 115.821C442.98 115.895 442.961 116.079 443.017 116.134C443.072 116.208 443.256 116.3 443.33 116.263C443.533 116.134 443.699 115.968 443.92 115.765ZM464.477 101.574C464.422 101.481 464.403 101.371 464.366 101.371C464.293 101.352 464.2 101.389 464.164 101.445C464.127 101.481 464.164 101.574 464.182 101.629C464.274 101.611 464.385 101.592 464.477 101.574ZM493.625 234.092C493.552 234.184 493.478 234.258 493.423 234.35C493.46 234.369 493.496 234.424 493.533 234.406C493.625 234.369 493.718 234.313 493.81 234.258C493.755 234.221 493.718 234.184 493.625 234.092ZM562.689 64.9698C562.597 65.025 562.505 65.0619 562.505 65.0988C562.505 65.1725 562.523 65.2646 562.579 65.3015C562.616 65.3384 562.708 65.2831 562.782 65.2646C562.745 65.1725 562.708 65.0803 562.689 64.9698ZM549.415 75.328C549.36 75.3648 549.304 75.4017 549.249 75.457C549.231 75.4754 549.249 75.5676 549.267 75.5676C549.323 75.5676 549.397 75.5676 549.452 75.5491C549.452 75.4938 549.433 75.4201 549.415 75.328ZM438.444 116.374H438.371L438.407 116.466L438.444 116.374ZM435.421 181.767C435.347 181.748 435.273 181.711 435.199 181.693C435.181 181.693 435.144 181.748 435.107 181.767C435.163 181.804 435.218 181.877 435.273 181.877C435.31 181.896 435.365 181.822 435.421 181.767ZM575.853 103.619L575.89 103.693L575.927 103.619H575.853Z" fill="#FACACE"/>
<path d="M404.465 134.196C403.728 134.768 403.101 135.21 402.308 135.376C401.995 135.431 401.7 135.671 401.405 135.837C400.446 136.371 399.506 136.943 398.529 137.459C398.234 137.624 397.92 137.938 397.496 137.753C397.496 137.661 397.441 137.551 397.478 137.514C398.566 136.629 399.635 135.763 400.815 134.841C401.202 134.897 401.663 134.934 402.161 134.694C402.843 134.381 403.599 134.307 404.465 134.196Z" fill="#FACACE"/>
<path d="M563.943 56.8601C564.146 56.8417 564.275 56.8417 564.385 56.8232C564.92 57.4315 564.533 58.3714 565.197 58.9244C564.92 59.6247 564.791 60.3988 564.219 61.0255C564.109 60.8965 563.98 60.8043 563.98 60.7306C564.293 59.4773 563.998 58.224 563.943 56.8601Z" fill="#FACACE"/>
<path d="M555.554 59.4404C556.458 59.5142 557.122 59.5694 557.748 59.6063C558.099 59.9196 558.08 60.2145 557.767 60.5647C557.288 60.5647 556.753 60.5647 556.089 60.5647C555.96 60.2883 555.794 59.9381 555.554 59.4404Z" fill="#FACACE"/>
<path d="M579.135 98.0532C579.172 98.7905 579.043 99.2697 578.803 99.8226C578.361 99.4724 577.973 99.1775 577.605 98.8826C577.844 98.1085 578.563 98.4771 579.135 98.0532Z" fill="#FACACE"/>
<path d="M426.184 223.679C426.129 223.642 426.11 223.532 426.073 223.458C425.981 223.218 425.907 222.942 426.184 222.794C426.295 222.739 426.516 222.739 426.626 222.813C426.958 223.034 426.977 223.255 426.811 223.568C426.663 223.882 426.424 223.79 426.184 223.679Z" fill="#FACACE"/>
<path d="M552.9 61.062C553.195 61.3016 553.397 61.4675 553.748 61.7624C553.195 61.7624 552.844 61.7624 552.476 61.7624C552.291 61.2832 552.771 61.3569 552.9 61.062Z" fill="#FACACE"/>
<path d="M429.41 227.42C429.539 227.771 429.613 227.955 429.668 228.121C429.484 228.379 429.244 228.526 429.042 228.287C428.802 227.992 429.078 227.789 429.41 227.42Z" fill="#FACACE"/>
<path d="M459.444 103.915C459.739 103.565 460.144 103.38 460.513 103.214C460.587 103.27 460.66 103.307 460.66 103.325C460.587 103.528 460.513 103.749 460.421 103.97C460.052 103.933 459.739 103.915 459.407 103.878L459.444 103.915Z" fill="#FACACE"/>
<path d="M496.889 81.207C496.741 81.7047 496.317 81.8153 495.709 82.0917C496.115 81.4835 496.52 81.3729 496.926 81.2255L496.889 81.207Z" fill="#FACACE"/>
<path d="M462.283 102.606C462.025 102.716 461.748 102.845 461.361 102.79C461.638 102.532 461.84 102.348 462.135 102.071C462.191 102.329 462.228 102.477 462.264 102.624L462.283 102.606Z" fill="#FACACE"/>
<path d="M580.518 114.641C580.905 114.586 581.089 114.733 581.071 115.102C581.071 115.176 580.997 115.286 580.96 115.286C580.868 115.268 580.739 115.231 580.702 115.157C580.628 115.01 580.592 114.825 580.518 114.641Z" fill="#FACACE"/>
<path d="M459.351 247.86C459.222 248.044 459.093 248.229 458.854 248.044C458.817 248.008 458.78 247.842 458.817 247.823C459.001 247.657 459.186 247.657 459.351 247.86Z" fill="#FACACE"/>
<path d="M577.955 100.56C578.01 100.91 577.918 101.224 577.66 101.482C577.365 101.113 577.826 100.892 577.826 100.597H577.789C577.844 100.652 577.918 100.652 577.974 100.578L577.955 100.56Z" fill="#FACACE"/>
<path d="M594.917 128.649C594.954 128.428 594.862 128.151 595.175 128.004C595.193 128.28 595.009 128.428 594.898 128.631L594.917 128.649Z" fill="#FACACE"/>
<path d="M421.04 219.218C421.188 219.237 421.298 219.218 421.39 219.255C421.446 219.274 421.446 219.403 421.483 219.458C421.39 219.458 421.298 219.476 421.206 219.439C421.151 219.421 421.114 219.329 421.04 219.218Z" fill="#FACACE"/>
<path d="M577.771 96.7631C577.789 96.7999 577.826 96.8184 577.844 96.8552C577.863 96.9658 577.936 97.1317 577.9 97.1501C577.734 97.2607 577.605 97.2054 577.531 97.0211L577.512 97.0395C577.605 96.9474 577.715 96.8368 577.807 96.7446L577.771 96.7631Z" fill="#FACACE"/>
<path d="M415.435 133.256C415.362 132.925 415.546 132.777 415.822 132.703L415.786 132.667C415.822 132.98 415.509 133.054 415.398 133.256H415.435Z" fill="#FACACE"/>
<path d="M483.965 88.3589C483.946 88.5801 484.057 88.8934 483.651 88.8381L483.67 88.875C483.78 88.7091 483.873 88.5248 483.983 88.3589H483.965Z" fill="#FACACE"/>
<path d="M415.823 132.703C416.007 132.63 416.21 132.537 416.394 132.464L416.357 132.427C416.228 132.666 416.025 132.703 415.786 132.666L415.823 132.703Z" fill="#FACACE"/>
<path d="M415.398 133.257C415.343 133.275 415.288 133.294 415.232 133.312C415.306 133.294 415.361 133.275 415.435 133.257H415.398Z" fill="#FACACE"/>
<path d="M409.719 135.173L409.646 135.136L409.719 135.118V135.173Z" fill="#FACACE"/>
<path d="M609.961 138.104C609.98 138.03 610.016 137.975 610.053 137.901C610.053 137.883 610.127 137.92 610.164 137.92C610.09 137.975 610.016 138.03 609.943 138.067L609.961 138.104Z" fill="#FACACE"/>
<path d="M609.943 138.085C609.74 138.159 609.537 138.251 609.353 138.325L609.371 138.343C609.574 138.269 609.777 138.177 609.961 138.103L609.943 138.085Z" fill="#FACACE"/>
<path d="M556.513 66.2596C556.495 66.2412 556.458 66.2412 556.439 66.2228C556.476 66.2043 556.513 66.1859 556.55 66.1675C556.531 66.1859 556.513 66.2228 556.513 66.2596Z" fill="#FACACE"/>
<path d="M434.978 189.803C434.941 189.858 434.923 189.95 434.868 189.969C434.831 189.987 434.757 189.932 434.702 189.895C434.739 189.876 434.757 189.84 434.794 189.821C434.868 189.803 434.941 189.821 435.015 189.803H434.978Z" fill="#FACACE"/>
<path d="M508.946 76.1393C508.983 76.0471 509.038 75.9549 509.075 75.8628C509.112 75.9549 509.149 76.0471 509.186 76.1208L509.204 76.1024C509.112 76.1024 509.02 76.1024 508.909 76.1024L508.946 76.1393Z" fill="#FACACE"/>
<path d="M426.737 222.278C426.719 222.278 426.7 222.297 426.663 222.297C426.682 222.26 426.7 222.223 426.7 222.186C426.719 222.223 426.737 222.241 426.737 222.278Z" fill="#FACACE"/>
<path d="M497.202 80.9313C497.257 80.8944 497.313 80.8391 497.387 80.8022C497.405 80.8022 497.442 80.8391 497.46 80.8391C497.368 80.8575 497.276 80.876 497.165 80.8944L497.202 80.9313Z" fill="#FACACE"/>
<path d="M486.804 86.5708C486.841 86.5155 486.878 86.4602 486.914 86.4233C486.878 86.4602 486.822 86.5155 486.785 86.5524L486.804 86.5708Z" fill="#FACACE"/>
<path d="M483.983 88.3589C483.909 88.3405 483.854 88.3036 483.78 88.2852H483.799C483.817 88.322 483.817 88.3773 483.854 88.3957C483.872 88.4142 483.928 88.3957 483.965 88.3773L483.983 88.3589Z" fill="#FACACE"/>
<path d="M485.679 237.336C485.716 237.318 485.735 237.318 485.771 237.299C485.771 237.336 485.79 237.373 485.79 237.428C485.753 237.428 485.716 237.428 485.698 237.41C485.679 237.391 485.679 237.355 485.679 237.336Z" fill="#FACACE"/>
<path d="M577.992 100.578C578.047 100.542 578.103 100.523 578.158 100.486C578.121 100.505 578.084 100.505 578.047 100.523C578.01 100.542 577.974 100.542 577.955 100.56L577.992 100.578Z" fill="#FACACE"/>
<path d="M577.033 102.68C577.107 102.514 577.181 102.348 577.255 102.182L577.236 102.164C577.144 102.329 577.07 102.495 576.978 102.661L577.033 102.68Z" fill="#FACACE"/>
<path d="M565.141 56.1775L565.123 56.1045H565.196L565.141 56.1775Z" fill="#FACACE"/>
<path d="M554.3 60.8775L554.282 60.8228V60.9141L554.3 60.8775Z" fill="#FACACE"/>
<path d="M542.833 72.065L542.869 72.0103L542.796 72.0468L542.833 72.065Z" fill="#FACACE"/>
<path d="M521.133 72.5448L521.188 72.5083L521.096 72.5448H521.133Z" fill="#FACACE"/>
<path d="M525.779 72.8581C525.871 72.7475 525.963 72.6554 526.056 72.5448L526 72.5264C525.908 72.6185 525.834 72.7107 525.742 72.8028L525.779 72.8581Z" fill="#FACACE"/>
<path d="M500.521 78.6633L500.575 78.627L500.521 78.6633Z" fill="#FACACE"/>
<path d="M500.52 78.6641C500.484 78.6641 500.465 78.6641 500.429 78.6641C500.465 78.7006 500.484 78.7371 500.52 78.7554C500.52 78.7189 500.52 78.7006 500.52 78.6641Z" fill="#FACACE"/>
<path d="M498.493 80.1932L498.547 80.1201L498.493 80.1932Z" fill="#FACACE"/>
<path d="M498.492 80.1938C498.455 80.2121 498.437 80.2304 498.4 80.2486C498.437 80.2304 498.455 80.2121 498.492 80.1938Z" fill="#FACACE"/>
<path d="M497.184 80.894C497.092 81.0046 497 81.0968 496.889 81.2074L496.926 81.2442C497.018 81.1336 497.11 81.0415 497.221 80.9309L497.184 80.894Z" fill="#FACACE"/>
<path d="M495.211 82.4969L495.247 82.4238L495.193 82.4786L495.211 82.4969Z" fill="#FACACE"/>
<path d="M494.916 82.7556C495.008 82.6819 495.119 82.5897 495.211 82.516L495.193 82.4976C495.1 82.5713 495.008 82.645 494.916 82.7556Z" fill="#FACACE"/>
<path d="M494.915 82.7373C494.879 82.7556 494.86 82.7738 494.824 82.7921C494.86 82.7738 494.879 82.7556 494.915 82.7373Z" fill="#FACACE"/>
<path d="M494.178 83.2528C494.197 83.2346 494.215 83.2346 494.233 83.2163C494.197 83.2163 494.178 83.2163 494.142 83.2163L494.178 83.2528Z" fill="#FACACE"/>
<path d="M493.902 83.5849C493.994 83.4743 494.086 83.3638 494.197 83.2532L494.179 83.2163C494.087 83.3269 493.994 83.4375 493.902 83.5481C493.865 83.5481 493.902 83.5849 493.902 83.5849Z" fill="#FACACE"/>
<path d="M489.883 84.1379L489.956 84.1196L489.938 84.1744L489.883 84.1379Z" fill="#FACACE"/>
<path d="M489.274 86.0361C489.256 86.0914 489.238 86.1652 489.219 86.2204C489.035 86.0546 489.238 86.0914 489.311 86.0546L489.274 86.0361Z" fill="#FACACE"/>
<path d="M486.766 86.5522L486.712 86.6253L486.803 86.5705L486.766 86.5522Z" fill="#FACACE"/>
<path d="M485.477 87.5842L485.531 87.5479L485.477 87.5842Z" fill="#FACACE"/>
<path d="M485.475 87.5847C485.439 87.5847 485.421 87.5847 485.384 87.5664C485.421 87.6029 485.439 87.6395 485.475 87.6577C485.475 87.6395 485.475 87.6212 485.475 87.5847Z" fill="#FACACE"/>
<path d="M474.507 94.6985C474.617 94.6985 474.728 94.6985 474.82 94.6801L474.857 94.6616C474.728 94.6616 474.599 94.6616 474.47 94.6616L474.507 94.6985Z" fill="#FACACE"/>
<path d="M474.47 94.6807V94.7537L474.506 94.6989L474.47 94.6807Z" fill="#FACACE"/>
<path d="M571.908 96.7631C571.815 96.8552 571.723 96.9474 571.65 97.0211L571.668 97.0395C571.668 96.9474 571.668 96.8368 571.668 96.7446L571.631 96.7815C571.723 96.7815 571.834 96.7815 571.926 96.7815L571.908 96.7631Z" fill="#FACACE"/>
<path d="M577.844 100.596C577.826 100.578 577.807 100.559 577.789 100.523C577.807 100.541 577.807 100.559 577.826 100.578L577.844 100.596Z" fill="#FACACE"/>
<path d="M462.78 101.85C462.744 101.85 462.725 101.85 462.689 101.85C462.725 101.887 462.762 101.923 462.78 101.941C462.78 101.923 462.78 101.887 462.78 101.85Z" fill="#FACACE"/>
<path d="M577.254 102.163L577.291 102.071L577.254 102.144V102.163Z" fill="#FACACE"/>
<path d="M451.534 102.661C451.534 102.679 451.552 102.679 451.552 102.697L451.534 102.661Z" fill="#FACACE"/>
<path d="M575.503 110.31C575.521 110.273 575.521 110.236 575.54 110.199C575.521 110.236 575.503 110.255 575.484 110.291L575.503 110.31Z" fill="#FACACE"/>
<path d="M425.04 122.751C425.003 122.751 424.985 122.751 424.948 122.751C424.985 122.788 425.003 122.806 425.04 122.842C425.04 122.824 425.04 122.788 425.04 122.751Z" fill="#FACACE"/>
<path d="M594.622 128.962C594.714 128.852 594.825 128.759 594.917 128.649L594.898 128.63C594.806 128.741 594.695 128.833 594.603 128.944C594.603 128.925 594.622 128.962 594.622 128.962Z" fill="#FACACE"/>
<path d="M414.55 174.689L414.532 174.781L414.55 174.726V174.689Z" fill="#FACACE"/>
<path d="M420.708 183.647C420.616 183.739 420.524 183.813 420.432 183.905L420.469 183.942C420.561 183.85 420.634 183.776 420.727 183.684L420.708 183.647Z" fill="#FACACE"/>
<path d="M420.432 183.905C420.339 183.979 420.247 184.052 420.155 184.126V184.163C420.266 184.089 420.358 184.015 420.468 183.942L420.432 183.905Z" fill="#FACACE"/>
<path d="M420.174 184.126L420.137 184.237L420.155 184.163L420.174 184.126Z" fill="#FACACE"/>
<path d="M404.392 197.986C404.429 197.931 404.447 197.875 404.484 197.802C404.631 197.986 404.465 197.949 404.373 197.968L404.392 197.986Z" fill="#FACACE"/>
<path d="M404.134 198.207C404.226 198.134 404.3 198.06 404.392 197.986L404.373 197.968C404.3 198.041 404.208 198.115 404.134 198.189V198.207Z" fill="#FACACE"/>
<path d="M404.133 198.188L404.097 198.262L404.133 198.207V198.188Z" fill="#FACACE"/>
<path d="M544.64 229.558C544.548 229.65 544.437 229.761 544.345 229.853L544.382 229.871C544.382 229.761 544.382 229.65 544.363 229.558L544.345 229.595C544.456 229.595 544.548 229.595 544.658 229.595L544.64 229.558Z" fill="#FACACE"/>
<path d="M462.264 245.575C462.245 245.593 462.227 245.611 462.191 245.629C462.209 245.629 462.227 245.611 462.245 245.611L462.264 245.575Z" fill="#FACACE"/>
<path d="M451.571 102.697L451.607 102.606L451.534 102.661L451.571 102.697Z" fill="#FACACE"/>
<path d="M525.466 74.7568C525.447 74.7384 525.41 74.6831 525.41 74.6831C525.466 74.6278 525.521 74.5725 525.558 74.5356C525.595 74.5725 525.613 74.6278 525.65 74.6647C525.595 74.7015 525.521 74.7384 525.466 74.7568Z" fill="#FACACE"/>
<defs>
<linearGradient id="paint0_linear_351_6043" x1="8.30077" y1="19.5273" x2="637.579" y2="63.2718" gradientUnits="userSpaceOnUse">
<stop stop-color="#FFEEEB"/>
<stop offset="1" stop-color="#EBDBFD"/>
</linearGradient>
</defs>
</svg>
