<svg width="188" height="57" viewBox="0 0 188 57" fill="none" xmlns="http://www.w3.org/2000/svg">
<path d="M42.5886 19.0748V32.5116C42.5886 38.0705 38.063 42.5886 32.5019 42.5886H26.8981V32.5089C26.8981 29.4233 24.3831 26.9144 21.2943 26.9144C18.2055 26.9144 15.6906 29.4233 15.6906 32.5089V42.5886H10.0868C4.5256 42.5886 0 38.0682 0 32.5116V19.0748C0 16.0095 1.37179 13.1461 3.76124 11.2221L14.9688 2.20987C18.6314 -0.736623 23.9505 -0.736623 27.6176 2.20987L38.8252 11.2221C41.2168 13.1461 42.5886 16.0072 42.5886 19.0748Z" fill="url(#paint0_linear_582_5533)"/>
<g clip-path="url(#clip0_582_5533)">
<path d="M21.5802 43.9943C19.0523 43.9943 16.5811 43.2447 14.4793 41.8403C12.3774 40.4359 10.7391 38.4397 9.77176 36.1042C8.80437 33.7687 8.55125 31.1988 9.04442 28.7195C9.5376 26.2401 10.7549 23.9627 12.5424 22.1752C14.3299 20.3877 16.6073 19.1704 19.0867 18.6772C21.566 18.1841 24.1359 18.4372 26.4714 19.4046C28.8069 20.372 30.8031 22.0102 32.2075 24.1121C33.6119 26.2139 34.3616 28.6851 34.3616 31.213C34.3578 34.6017 33.0099 37.8504 30.6138 40.2466C28.2176 42.6427 24.9689 43.9905 21.5802 43.9943ZM21.5802 47.1897C18.1187 47.1881 14.7525 46.0554 11.9942 43.964V52.7815C11.9942 53.5339 12.2067 54.2711 12.6073 54.908C13.0078 55.5449 13.5802 56.0557 14.2583 56.3816C14.9365 56.7075 15.6929 56.8353 16.4405 56.7501C17.1881 56.6649 17.8964 56.3703 18.4839 55.9002L21.0817 53.8232C21.2233 53.7102 21.399 53.6486 21.5802 53.6486C21.7613 53.6486 21.9371 53.7102 22.0787 53.8232L24.6765 55.9002C25.264 56.3703 25.9723 56.6649 26.7199 56.7501C27.4674 56.8353 28.2239 56.7075 28.9021 56.3816C29.5802 56.0557 30.1526 55.5449 30.5531 54.908C30.9537 54.2711 31.1662 53.5339 31.1662 52.7815V43.964C28.4078 46.0552 25.0417 47.1879 21.5802 47.1897Z" fill="url(#paint1_linear_582_5533)"/>
</g>
<rect x="19.0054" y="27.5889" width="4.5784" height="13.1629" rx="2.2892" fill="white"/>
<circle cx="21.2946" cy="24.1544" r="2.2892" fill="white"/>
<path d="M56.1765 42.4696C55.093 42.4696 54.2146 41.5912 54.2146 40.5077V27.7827C54.2146 26.6992 55.093 25.8209 56.1765 25.8209C57.26 25.8209 58.1383 26.6992 58.1383 27.7827V40.5077C58.1383 41.5912 57.26 42.4696 56.1765 42.4696ZM56.1873 23.458C55.5659 23.458 55.0312 23.252 54.5832 22.8402C54.1351 22.421 53.9111 21.9188 53.9111 21.3335C53.9111 20.741 54.1351 20.2388 54.5832 19.8269C55.0312 19.4078 55.5659 19.1982 56.1873 19.1982C56.816 19.1982 57.3507 19.4078 57.7915 19.8269C58.2395 20.2388 58.4635 20.741 58.4635 21.3335C58.4635 21.9188 58.2395 22.421 57.7915 22.8402C57.3507 23.252 56.816 23.458 56.1873 23.458Z" fill="#0A033C"/>
<path d="M62.3466 42.4696V31.3705V22.2819C62.3466 21.1715 63.2468 20.2713 64.3572 20.2713C65.4677 20.2713 66.3679 21.1715 66.3679 22.2819V39.0987H76.1447V42.4696H62.3466Z" fill="#0A033C"/>
<path d="M86.8319 42.7948C85.1627 42.7948 83.7211 42.4479 82.5072 41.7542C81.3004 41.0533 80.3719 40.0633 79.7215 38.7843C79.0712 37.4981 78.746 35.9843 78.746 34.2428C78.746 32.5302 79.0712 31.0272 79.7215 29.7338C80.3791 28.4331 81.2968 27.4214 82.4746 26.6988C83.6525 25.969 85.0363 25.6041 86.626 25.6041C87.6521 25.6041 88.6204 25.7703 89.5308 26.1027C90.4485 26.4279 91.2579 26.9337 91.9588 27.6202C92.6669 28.3066 93.2233 29.181 93.628 30.2432C94.0326 31.2982 94.235 32.5555 94.235 34.0152V35.2183H80.5886V32.5736H90.4738C90.4666 31.8221 90.304 31.1537 89.9861 30.5684C89.6681 29.9758 89.2237 29.5098 88.6529 29.1701C88.0892 28.8305 87.4317 28.6607 86.6802 28.6607C85.8781 28.6607 85.1736 28.8558 84.5666 29.246C83.9596 29.629 83.4863 30.1348 83.1467 30.7635C82.8143 31.3849 82.6444 32.0678 82.6372 32.812V35.1208C82.6372 36.089 82.8143 36.92 83.1683 37.6137C83.5224 38.3002 84.0174 38.8277 84.6533 39.1962C85.2892 39.5575 86.0334 39.7382 86.8861 39.7382C87.457 39.7382 87.9736 39.6587 88.4361 39.4997C88.8986 39.3335 89.2996 39.0914 89.6392 38.7735C89.9788 38.4556 90.2354 38.0617 90.4088 37.592L94.0724 38.0039C93.8411 38.9722 93.4004 39.8177 92.75 40.5403C92.1069 41.2556 91.2831 41.812 90.2787 42.2095C89.2743 42.5997 88.1254 42.7948 86.8319 42.7948Z" fill="#0A033C"/>
<path d="M102.345 42.8056C101.29 42.8056 100.34 42.6177 99.4946 42.242C98.6564 41.859 97.9916 41.2954 97.5002 40.5511C97.0161 39.8068 96.774 38.8891 96.774 37.798C96.774 36.8586 96.9474 36.0818 97.2943 35.4676C97.6411 34.8534 98.1144 34.362 98.7142 33.9935C99.3139 33.625 99.9896 33.3468 100.741 33.1589C101.5 32.9638 102.284 32.8229 103.093 32.7362C104.069 32.635 104.86 32.5447 105.467 32.4652C106.074 32.3785 106.515 32.2484 106.789 32.075C107.071 31.8943 107.212 31.6161 107.212 31.2404V31.1754C107.212 30.3588 106.97 29.7265 106.486 29.2785C106.002 28.8305 105.304 28.6065 104.394 28.6065C103.433 28.6065 102.67 28.8161 102.107 29.2352C102.013 29.3055 101.925 29.378 101.842 29.4526C101.172 30.0531 100.335 30.6286 99.4446 30.5021C98.3193 30.3423 97.5679 29.1884 98.2357 28.2687C98.3915 28.0541 98.5619 27.8524 98.7467 27.6635C99.4115 26.977 100.224 26.464 101.185 26.1244C102.147 25.7775 103.209 25.6041 104.372 25.6041C105.174 25.6041 105.973 25.698 106.768 25.8859C107.562 26.0738 108.289 26.3845 108.946 26.8181C109.604 27.2444 110.131 27.8261 110.529 28.5631C110.933 29.3002 111.136 30.2215 111.136 31.3271V42.4696H107.364V40.1826H107.234C106.995 40.645 106.659 41.0786 106.226 41.4833C105.799 41.8807 105.261 42.2022 104.611 42.4479C103.967 42.6864 103.212 42.8056 102.345 42.8056ZM103.364 39.9224C104.152 39.9224 104.835 39.7671 105.413 39.4564C105.991 39.1384 106.435 38.7193 106.746 38.199C107.064 37.6788 107.223 37.1115 107.223 36.4973V34.5354C107.1 34.6366 106.89 34.7305 106.594 34.8173C106.305 34.904 105.98 34.9798 105.619 35.0449C105.257 35.1099 104.9 35.1677 104.546 35.2183C104.192 35.2689 103.884 35.3122 103.624 35.3484C103.039 35.4279 102.515 35.5579 102.053 35.7386C101.59 35.9192 101.225 36.1721 100.958 36.4973C100.691 36.8152 100.557 37.2271 100.557 37.733C100.557 38.4556 100.821 39.0011 101.348 39.3696C101.876 39.7382 102.548 39.9224 103.364 39.9224Z" fill="#0A033C"/>
<path d="M115.081 42.4696V27.7231C115.081 26.6725 115.933 25.8209 116.983 25.8209C118.034 25.8209 118.886 26.6725 118.886 27.7231V28.5957H119.059C119.363 27.6346 119.883 26.8939 120.62 26.3737C121.364 25.8462 122.213 25.5824 123.167 25.5824C123.384 25.5824 123.626 25.5933 123.893 25.6149C124.168 25.6294 124.395 25.6547 124.576 25.6908V29.3002C124.41 29.2424 124.146 29.1918 123.785 29.1485C123.431 29.0979 123.088 29.0726 122.755 29.0726C122.04 29.0726 121.397 29.2279 120.826 29.5387C120.262 29.8422 119.818 30.2649 119.493 30.8068C119.167 31.3488 119.005 31.9738 119.005 32.682V42.4696H115.081Z" fill="#0A033C"/>
<path d="M131.107 32.7145V42.4696H127.183V27.696C127.183 26.6604 128.022 25.8209 129.058 25.8209C130.094 25.8209 130.933 26.6604 130.933 27.696V28.6499H131.128C131.511 27.7177 132.122 26.977 132.96 26.4279C133.805 25.8787 134.85 25.6041 136.093 25.6041C137.241 25.6041 138.242 25.8498 139.095 26.3412C139.955 26.8325 140.62 27.5443 141.089 28.4764C141.566 29.4086 141.801 30.5395 141.794 31.869V42.4696H137.87V32.476C137.87 31.3632 137.581 30.4925 137.003 29.8638C136.432 29.2352 135.641 28.9208 134.629 28.9208C133.943 28.9208 133.332 29.0726 132.797 29.3761C132.27 29.6723 131.854 30.1023 131.551 30.6659C131.255 31.2295 131.107 31.9124 131.107 32.7145Z" fill="#0A033C"/>
<path d="M147.744 42.4696C146.661 42.4696 145.783 41.5912 145.783 40.5077V27.7827C145.783 26.6992 146.661 25.8209 147.744 25.8209C148.828 25.8209 149.706 26.6992 149.706 27.7827V40.5077C149.706 41.5912 148.828 42.4696 147.744 42.4696ZM147.755 23.458C147.134 23.458 146.599 23.252 146.151 22.8402C145.703 22.421 145.479 21.9188 145.479 21.3335C145.479 20.741 145.703 20.2388 146.151 19.8269C146.599 19.4078 147.134 19.1982 147.755 19.1982C148.384 19.1982 148.919 19.4078 149.359 19.8269C149.807 20.2388 150.031 20.741 150.031 21.3335C150.031 21.9188 149.807 22.421 149.359 22.8402C148.919 23.252 148.384 23.458 147.755 23.458Z" fill="#0A033C"/>
<path d="M157.665 32.7145V42.4696H153.741V27.696C153.741 26.6604 154.581 25.8209 155.616 25.8209C156.652 25.8209 157.491 26.6604 157.491 27.696V28.6499H157.687C158.07 27.7177 158.68 26.977 159.518 26.4279C160.364 25.8787 161.408 25.6041 162.651 25.6041C163.8 25.6041 164.801 25.8498 165.653 26.3412C166.513 26.8325 167.178 27.5443 167.648 28.4764C168.125 29.4086 168.359 30.5395 168.352 31.869V42.4696H164.428V32.476C164.428 31.3632 164.139 30.4925 163.561 29.8638C162.99 29.2352 162.199 28.9208 161.188 28.9208C160.501 28.9208 159.89 29.0726 159.356 29.3761C158.828 29.6723 158.413 30.1023 158.109 30.6659C157.813 31.2295 157.665 31.9124 157.665 32.7145Z" fill="#0A033C"/>
<path d="M179.581 49.0597C178.172 49.0597 176.962 48.8682 175.95 48.4853C174.939 48.1095 174.126 47.6037 173.511 46.9678C172.897 46.3319 172.471 45.6274 172.232 44.8542L175.766 43.9979C175.925 44.3231 176.156 44.6446 176.46 44.9626C176.763 45.2877 177.171 45.5551 177.685 45.7647C178.205 45.9814 178.859 46.0898 179.646 46.0898C180.759 46.0898 181.681 45.8189 182.41 45.2769C183.14 44.7422 183.505 43.8606 183.505 42.6322V39.478H183.31C183.108 39.8827 182.811 40.2982 182.421 40.7245C182.038 41.1509 181.529 41.5085 180.893 41.7976C180.264 42.0866 179.473 42.2311 178.519 42.2311C177.24 42.2311 176.08 41.9313 175.04 41.3315C174.006 40.7245 173.183 39.8213 172.569 38.6218C171.962 37.415 171.658 35.9048 171.658 34.091C171.658 32.2629 171.962 30.7201 172.569 29.4628C173.183 28.1982 174.01 27.2408 175.051 26.5904C176.091 25.9329 177.251 25.6041 178.53 25.6041C179.505 25.6041 180.308 25.7703 180.936 26.1027C181.572 26.4279 182.078 26.8217 182.454 27.2841C182.829 27.7394 183.115 28.1693 183.31 28.574H183.527V25.8209H187.396V42.7406C187.396 44.1641 187.057 45.3419 186.377 46.2741C185.698 47.2063 184.77 47.9036 183.592 48.366C182.414 48.8285 181.077 49.0597 179.581 49.0597ZM179.614 39.1529C180.445 39.1529 181.153 38.9505 181.738 38.5459C182.324 38.1412 182.768 37.5595 183.072 36.8008C183.375 36.0421 183.527 35.1316 183.527 34.0694C183.527 33.0216 183.375 32.1039 183.072 31.3163C182.775 30.5286 182.334 29.918 181.749 29.4845C181.171 29.0437 180.459 28.8233 179.614 28.8233C178.74 28.8233 178.01 29.0509 177.424 29.5061C176.839 29.9614 176.398 30.5864 176.102 31.3813C175.806 32.1689 175.658 33.065 175.658 34.0694C175.658 35.0882 175.806 35.9806 176.102 36.7466C176.406 37.5053 176.85 38.0979 177.435 38.5242C178.028 38.9433 178.754 39.1529 179.614 39.1529Z" fill="#0A033C"/>
<ellipse cx="180" cy="34" rx="2" ry="3" fill="#0A033C"/>
<defs>
<linearGradient id="paint0_linear_582_5533" x1="0" y1="0" x2="49.0307" y2="9.56438" gradientUnits="userSpaceOnUse">
<stop stop-color="#9C4DF4"/>
<stop offset="1" stop-color="#B071F6"/>
</linearGradient>
<linearGradient id="paint1_linear_582_5533" x1="16.3053" y1="18.4316" x2="38.0325" y2="49.8985" gradientUnits="userSpaceOnUse">
<stop stop-color="#FFA093"/>
<stop offset="1" stop-color="#FF6652"/>
</linearGradient>
<clipPath id="clip0_582_5533">
<rect width="38.3441" height="38.3441" fill="white" transform="translate(2.40869 18.4316)"/>
</clipPath>
</defs>
</svg>
