<svg width="32" height="32" viewBox="0 0 32 32" fill="none" xmlns="http://www.w3.org/2000/svg">
<path d="M14.9365 15.8288V19.5305H13.7617V10.3894H16.876C17.6653 10.3894 18.3383 10.6525 18.889 11.1787C19.452 11.7049 19.7334 12.3473 19.7334 13.106C19.7334 13.8831 19.452 14.5255 18.889 15.0456C18.3445 15.5657 17.6715 15.8227 16.876 15.8227H14.9365V15.8288ZM14.9365 11.5152V14.703H16.9005C17.3655 14.703 17.7572 14.5439 18.063 14.2318C18.3751 13.9198 18.5342 13.5405 18.5342 13.1122C18.5342 12.69 18.3751 12.3167 18.063 12.0047C17.7571 11.6804 17.3717 11.5213 16.9005 11.5213H14.9365V11.5152Z" fill="#383E41"/>
<path d="M22.8031 13.0693C23.6719 13.0693 24.3572 13.3018 24.8589 13.7668C25.3607 14.2318 25.6115 14.8681 25.6115 15.6758V19.5305H24.4918V18.6617H24.4428C23.9595 19.3776 23.3109 19.7325 22.5033 19.7325C21.8119 19.7325 21.2367 19.5305 20.7717 19.1206C20.3067 18.7106 20.0742 18.2028 20.0742 17.591C20.0742 16.9424 20.319 16.4285 20.8085 16.0491C21.298 15.6636 21.9527 15.474 22.7664 15.474C23.4639 15.474 24.0391 15.6025 24.4857 15.8594V15.5902C24.4857 15.1803 24.3267 14.8376 24.0023 14.5501C23.678 14.2625 23.2987 14.1218 22.8643 14.1218C22.2096 14.1218 21.6895 14.3971 21.3102 14.9539L20.2761 14.3053C20.8452 13.4793 21.6895 13.0693 22.8031 13.0693ZM21.2857 17.6093C21.2857 17.9152 21.4142 18.1722 21.6773 18.3741C21.9343 18.576 22.2402 18.68 22.589 18.68C23.0846 18.68 23.5251 18.4965 23.9106 18.1293C24.2961 17.7622 24.4918 17.3339 24.4918 16.8383C24.1247 16.5508 23.6169 16.4039 22.9622 16.4039C22.485 16.4039 22.0873 16.5201 21.7691 16.7465C21.4448 16.9851 21.2857 17.2728 21.2857 17.6093Z" fill="#383E41"/>
<path d="M31.9993 13.2712L28.0834 22.2777H26.8719L28.3281 19.1267L25.7461 13.2712H27.0248L28.8849 17.7622H28.9094L30.7205 13.2712H31.9993Z" fill="#383E41"/>
<path d="M10.1664 13.9803H5.24219V15.9995L8.07812 16.0001C7.96312 16.6719 7.59294 17.2446 7.02575 17.6264V17.6268C7.02594 17.6267 7.02619 17.6265 7.02638 17.6264L6.97531 18.8332L8.7145 18.9358C8.71425 18.936 8.714 18.9362 8.71381 18.9364H8.71387C9.69956 18.0242 10.2643 16.6756 10.2643 15.0823C10.2643 14.6993 10.23 14.3328 10.1664 13.9803Z" fill="#0085F7"/>
<path d="M7.02559 17.6263C7.02541 17.6265 7.02516 17.6266 7.02497 17.6267C6.55516 17.9434 5.95022 18.1287 5.24266 18.1287C3.87516 18.1287 2.71509 17.2072 2.29966 15.9652H2.29947C2.29953 15.9653 2.29959 15.9656 2.29966 15.9658L0.847719 15.7358L0.558594 17.3165C1.42141 19.0283 3.19441 20.2028 5.24272 20.2028C6.65816 20.2028 7.84734 19.7375 8.71309 18.9363C8.71334 18.9361 8.71359 18.9359 8.71378 18.9357L7.02559 17.6263Z" fill="#00A94B"/>
<path d="M2.13475 14.9629C2.13475 14.6142 2.19287 14.2771 2.29875 13.9601L1.84537 12.6091H0.557375C0.200688 13.3171 0 14.1161 0 14.9629C0 15.8098 0.201313 16.6088 0.557375 17.3168L0.557625 17.3166L2.29875 15.9658C2.29869 15.9656 2.29862 15.9654 2.29856 15.9651C2.19281 15.6484 2.13475 15.3115 2.13475 14.9629Z" fill="#FFBB00"/>
<path d="M5.24297 9.72241C3.19509 9.72241 1.42134 10.8972 0.558594 12.6092L2.29991 13.9602C2.71534 12.7181 3.87541 11.7967 5.24291 11.7967C6.01566 11.7967 6.70772 12.0628 7.25409 12.5829L8.75009 11.0882C7.84153 10.2418 6.65697 9.72241 5.24297 9.72241Z" fill="#FF4031"/>
</svg>
