<svg width="32" height="32" viewBox="0 0 32 32" fill="none" xmlns="http://www.w3.org/2000/svg">
<g clip-path="url(#clip0_345_5155)">
<path d="M16 11.3125C13.9318 11.3125 12.25 12.9943 12.25 15.0625C12.25 17.1307 13.9318 18.8125 16 18.8125C18.0682 18.8125 19.75 17.1307 19.75 15.0625C19.75 12.9943 18.0682 11.3125 16 11.3125Z" fill="url(#paint0_linear_345_5155)"/>
<path d="M31.2163 13.2003L28.7258 12.7956C28.4136 11.5523 27.9229 10.3713 27.2628 9.26994L28.6947 7.264C28.9611 6.89138 28.919 6.3805 28.5949 6.05644L25.9435 3.40506C25.6176 3.08006 25.1076 3.037 24.7359 3.30525L22.73 4.73712C21.6286 4.077 20.4476 3.58631 19.2043 3.27413L18.7996 0.783625C18.7246 0.331437 18.3337 0 17.875 0H14.125C13.6663 0 13.2754 0.331437 13.2003 0.783687L12.7956 3.27419C11.5523 3.58637 10.3713 4.07713 9.26994 4.73719L7.264 3.30531C6.89138 3.03706 6.37962 3.08006 6.05644 3.40512L3.40506 6.05644C3.08094 6.38056 3.03887 6.89138 3.30525 7.264L4.73712 9.26994C4.077 10.3713 3.58631 11.5524 3.27413 12.7956L0.783625 13.2003C0.331437 13.2754 0 13.6663 0 14.125V17.875C0 18.3337 0.331437 18.7246 0.783687 18.7997L3.27419 19.2044C3.58637 20.4477 4.07713 21.6287 4.73719 22.7301L3.30531 24.736C3.03887 25.1086 3.081 25.6195 3.40512 25.9436L6.0565 28.5949C6.37969 28.9181 6.89144 28.9593 7.26406 28.6947L9.27 27.2629C10.3714 27.923 11.5524 28.4137 12.7957 28.7259L13.2004 31.2164C13.2754 31.6686 13.6663 32 14.125 32H17.875C18.3337 32 18.7246 31.6686 18.7997 31.2163L19.2044 28.7258C20.4477 28.4136 21.6287 27.9229 22.7301 27.2628L24.736 28.6947C25.1077 28.9592 25.6176 28.9181 25.9436 28.5949L28.5949 25.9435C28.9191 25.6194 28.9611 25.1086 28.6947 24.7359L27.2629 22.73C27.923 21.6286 28.4137 20.4476 28.7259 19.2043L31.2164 18.7996C31.6686 18.7246 32 18.3337 32 17.875V14.125C32 13.6663 31.6686 13.2754 31.2163 13.2003ZM16 26.3125C10.3137 26.3125 5.6875 21.6863 5.6875 16C5.6875 10.3137 10.3137 5.6875 16 5.6875C21.6863 5.6875 26.3125 10.3137 26.3125 16C26.3125 21.6863 21.6863 26.3125 16 26.3125Z" fill="url(#paint1_linear_345_5155)"/>
<path d="M20.3306 18.6084C19.2983 19.8668 17.751 20.6876 16 20.6876C14.2489 20.6876 12.7017 19.8668 11.6693 18.6084C10.7706 19.4049 10.115 20.4491 9.75342 21.6207C11.299 23.3368 13.514 24.4376 16 24.4376C18.486 24.4376 20.701 23.3368 22.2465 21.6207C21.8849 20.4491 21.2294 19.4049 20.3306 18.6084Z" fill="url(#paint2_linear_345_5155)"/>
</g>
<defs>
<linearGradient id="paint0_linear_345_5155" x1="14.4524" y1="11.3125" x2="17.9048" y2="18.8125" gradientUnits="userSpaceOnUse">
<stop stop-color="#FFA093"/>
<stop offset="1" stop-color="#FF6652"/>
</linearGradient>
<linearGradient id="paint1_linear_345_5155" x1="9.39683" y1="-6.42331e-07" x2="24.127" y2="32" gradientUnits="userSpaceOnUse">
<stop stop-color="#FFA093"/>
<stop offset="1" stop-color="#FF6652"/>
</linearGradient>
<linearGradient id="paint2_linear_345_5155" x1="13.422" y1="18.6084" x2="14.8724" y2="25.3613" gradientUnits="userSpaceOnUse">
<stop stop-color="#FFA093"/>
<stop offset="1" stop-color="#FF6652"/>
</linearGradient>
<clipPath id="clip0_345_5155">
<rect width="32" height="32" fill="white"/>
</clipPath>
</defs>
</svg>
