<svg width="23" height="23" viewBox="0 0 23 23" fill="none" xmlns="http://www.w3.org/2000/svg">
<path d="M13.3332 2.58032V6.36665C13.3332 6.88003 13.3332 7.13672 13.4331 7.33281C13.521 7.50529 13.6612 7.64552 13.8337 7.73341C14.0298 7.83332 14.2865 7.83332 14.7998 7.83332H18.5862M13.3332 16.0833H7.83317M15.1665 12.4166H7.83317M18.8332 9.65579V16.2666C18.8332 17.8067 18.8332 18.5768 18.5334 19.1651C18.2698 19.6825 17.8491 20.1032 17.3316 20.3669C16.7434 20.6666 15.9733 20.6666 14.4332 20.6666H8.5665C7.02636 20.6666 6.25629 20.6666 5.66803 20.3669C5.15058 20.1032 4.72989 19.6825 4.46624 19.1651C4.1665 18.5768 4.1665 17.8067 4.1665 16.2666V6.73325C4.1665 5.19311 4.1665 4.42304 4.46624 3.83478C4.72989 3.31733 5.15058 2.89664 5.66803 2.63298C6.25629 2.33325 7.02636 2.33325 8.5665 2.33325H11.5106C12.1833 2.33325 12.5196 2.33325 12.8361 2.40923C13.1167 2.4766 13.3849 2.58771 13.631 2.73849C13.9085 2.90856 14.1463 3.14636 14.6219 3.62198L17.5444 6.54452C18.0201 7.02014 18.2579 7.25795 18.4279 7.53547C18.5787 7.78152 18.6898 8.04976 18.7572 8.33036C18.8332 8.64685 18.8332 8.98317 18.8332 9.65579Z" stroke="#6C688A" stroke-width="1.5" stroke-linecap="round" stroke-linejoin="round"/>
</svg>
