<svg width="84" height="72" viewBox="0 0 84 72" fill="none" xmlns="http://www.w3.org/2000/svg">
<path d="M50.2484 11.5912C47.3051 9.88777 43.8039 9.43706 40.5252 10.3156L16.3715 16.7875C9.52316 18.6226 5.48058 25.6281 7.30838 32.4495L12.4839 51.7647C14.3117 58.5861 21.3398 62.6252 28.1637 60.7968L52.3174 54.3248C59.1413 52.4963 63.2108 45.4836 61.383 38.6622L56.2075 19.347C55.3296 16.0708 53.1928 13.2891 50.2484 11.5912Z" fill="url(#paint0_linear_220_18650)"/>
<g filter="url(#filter0_f_220_18650)">
<path d="M43.5575 17.9438C41.7005 16.8051 39.5042 16.4817 37.4581 17.03L22.3846 21.0689C18.1109 22.2141 15.6362 26.7656 16.8362 31.2443L20.2343 43.926C21.4344 48.4047 25.8685 51.105 30.127 49.9639L45.2005 45.925C49.459 44.7839 51.9505 40.2279 50.7504 35.7492L47.3524 23.0675C46.776 20.9164 45.4152 19.0788 43.5575 17.9438Z" fill="#EF5641"/>
</g>
<g filter="url(#filter1_b_220_18650)">
<mask id="path-3-outside-1_220_18650" maskUnits="userSpaceOnUse" x="19.6055" y="19.1459" width="59" height="53" fill="black">
<rect fill="white" x="19.6055" y="19.1459" width="59" height="53"/>
<path d="M72.9258 24.3301C70.2447 21.6433 66.6001 20.1459 62.8115 20.1459H34.9011C26.9877 20.1459 20.6055 26.5309 20.6055 34.4133V56.7326C20.6055 64.615 27.0159 71 34.9011 71H62.8115C70.6967 71 77.11 64.615 77.11 56.7326V34.4133C77.11 30.6275 75.6098 27.0112 72.9258 24.3301Z"/>
</mask>
<path d="M72.9258 24.3301C70.2447 21.6433 66.6001 20.1459 62.8115 20.1459H34.9011C26.9877 20.1459 20.6055 26.5309 20.6055 34.4133V56.7326C20.6055 64.615 27.0159 71 34.9011 71H62.8115C70.6967 71 77.11 64.615 77.11 56.7326V34.4133C77.11 30.6275 75.6098 27.0112 72.9258 24.3301Z" fill="#FFAC95" fill-opacity="0.4"/>
<path d="M72.218 25.0365C72.6081 25.4274 73.2412 25.4281 73.6322 25.0379C74.0231 24.6478 74.0238 24.0147 73.6337 23.6237L72.218 25.0365ZM73.6325 23.6226C73.2418 23.2323 72.6087 23.2326 72.2183 23.6234C71.828 24.0141 71.8284 24.6473 72.2191 25.0376L73.6325 23.6226ZM73.6337 23.6237C70.7633 20.7473 66.8634 19.1459 62.8115 19.1459V21.1459C66.3369 21.1459 69.7261 22.5393 72.218 25.0365L73.6337 23.6237ZM62.8115 19.1459H34.9011V21.1459H62.8115V19.1459ZM34.9011 19.1459C26.4365 19.1459 19.6055 25.9775 19.6055 34.4133H21.6055C21.6055 27.0844 27.5388 21.1459 34.9011 21.1459V19.1459ZM19.6055 34.4133V56.7326H21.6055V34.4133H19.6055ZM19.6055 56.7326C19.6055 65.1697 26.4661 72 34.9011 72V70C27.5657 70 21.6055 64.0602 21.6055 56.7326H19.6055ZM34.9011 72H62.8115V70H34.9011V72ZM62.8115 72C71.2463 72 78.11 65.17 78.11 56.7326H76.11C76.11 64.06 70.1471 70 62.8115 70V72ZM78.11 56.7326V34.4133H76.11V56.7326H78.11ZM78.11 34.4133C78.11 30.3616 76.5039 26.491 73.6325 23.6226L72.2191 25.0376C74.7156 27.5315 76.11 30.8934 76.11 34.4133H78.11Z" fill="url(#paint1_linear_220_18650)" mask="url(#path-3-outside-1_220_18650)"/>
</g>
<g filter="url(#filter2_bd_220_18650)">
<mask id="path-5-inside-2_220_18650" fill="white">
<path d="M67.5325 38.3967L67.3064 38.6227L54.5618 48.8218C52.9825 50.0649 51.0303 50.743 49.0272 50.743C47.0185 50.743 45.1002 50.0649 43.518 48.8218L30.6633 38.7923L30.2932 38.425C29.6462 37.5774 29.7309 36.3626 30.4937 35.5997C31.2255 34.8369 32.4403 34.7522 33.319 35.402L46.0325 45.5728C47.6965 46.9317 50.0443 46.9317 51.6829 45.5728L64.4219 35.402C64.8485 35.0065 65.4135 34.8059 66.0068 34.8369C66.5691 34.8934 67.1087 35.1505 67.5014 35.5715C68.2077 36.3908 68.2077 37.5774 67.5325 38.3967Z"/>
</mask>
<path d="M67.5325 38.3967L67.3064 38.6227L54.5618 48.8218C52.9825 50.0649 51.0303 50.743 49.0272 50.743C47.0185 50.743 45.1002 50.0649 43.518 48.8218L30.6633 38.7923L30.2932 38.425C29.6462 37.5774 29.7309 36.3626 30.4937 35.5997C31.2255 34.8369 32.4403 34.7522 33.319 35.402L46.0325 45.5728C47.6965 46.9317 50.0443 46.9317 51.6829 45.5728L64.4219 35.402C64.8485 35.0065 65.4135 34.8059 66.0068 34.8369C66.5691 34.8934 67.1087 35.1505 67.5014 35.5715C68.2077 36.3908 68.2077 37.5774 67.5325 38.3967Z" fill="url(#paint2_linear_220_18650)"/>
<path d="M67.3064 38.6227L67.4314 38.7789L67.44 38.772L67.4479 38.7642L67.3064 38.6227ZM54.5618 48.8218L54.6855 48.979L54.6868 48.978L54.5618 48.8218ZM43.518 48.8218L43.6416 48.6645L43.6411 48.6641L43.518 48.8218ZM30.6633 38.7923L30.5224 38.9342L30.5308 38.9426L30.5402 38.9499L30.6633 38.7923ZM30.2932 38.425L30.1342 38.5463L30.1425 38.5573L30.1523 38.5669L30.2932 38.425ZM30.4937 35.5997L30.6352 35.7412L30.6381 35.7382L30.4937 35.5997ZM33.319 35.402L33.444 35.2457L33.4379 35.2412L33.319 35.402ZM46.0325 45.5728L46.159 45.4179L46.1574 45.4166L46.0325 45.5728ZM51.6829 45.5728L51.5581 45.4165L51.5553 45.4188L51.6829 45.5728ZM64.4219 35.402L64.5467 35.5583L64.5524 35.5537L64.5579 35.5486L64.4219 35.402ZM66.0068 34.8369L66.0269 34.6377L66.0173 34.6372L66.0068 34.8369ZM67.5014 35.5715L67.653 35.4408L67.6476 35.4351L67.5014 35.5715ZM67.391 38.2553L67.165 38.4813L67.4479 38.7642L67.6739 38.5381L67.391 38.2553ZM67.1815 38.4666L54.4369 48.6657L54.6868 48.978L67.4314 38.7789L67.1815 38.4666ZM54.4381 48.6646C52.8939 49.8801 50.9852 50.543 49.0272 50.543V50.943C51.0754 50.943 53.0711 50.2497 54.6855 48.979L54.4381 48.6646ZM49.0272 50.543C47.0643 50.543 45.1893 49.8806 43.6416 48.6645L43.3945 48.9791C45.011 50.2492 46.9727 50.943 49.0272 50.943V50.543ZM43.6411 48.6641L30.7863 38.6346L30.5402 38.9499L43.395 48.9795L43.6411 48.6641ZM30.8041 38.6503L30.434 38.283L30.1523 38.5669L30.5224 38.9342L30.8041 38.6503ZM30.4521 38.3036C29.8668 37.5368 29.9422 36.4341 30.6352 35.7412L30.3523 35.4583C29.5196 36.291 29.4256 37.6181 30.1342 38.5463L30.4521 38.3036ZM30.6381 35.7382C31.2965 35.0518 32.398 34.9696 33.2001 35.5628L33.4379 35.2412C32.4827 34.5347 31.1544 34.6221 30.3494 35.4613L30.6381 35.7382ZM33.194 35.5582L45.9075 45.729L46.1574 45.4166L33.4439 35.2458L33.194 35.5582ZM45.906 45.7277C47.6431 47.1463 50.0974 47.1475 51.8106 45.7267L51.5553 45.4188C49.9912 46.7159 47.75 46.7172 46.159 45.4179L45.906 45.7277ZM51.8077 45.7291L64.5467 35.5583L64.2971 35.2457L51.5582 45.4165L51.8077 45.7291ZM64.5579 35.5486C64.9437 35.1909 65.4554 35.0083 65.9964 35.0367L66.0173 34.6372C65.3716 34.6034 64.7533 34.822 64.2859 35.2553L64.5579 35.5486ZM65.9868 35.0359C66.5026 35.0878 66.9968 35.3238 67.3551 35.7079L67.6476 35.4351C67.2206 34.9773 66.6355 34.6991 66.0268 34.6379L65.9868 35.0359ZM67.3499 35.7021C67.9918 36.4468 67.9921 37.5245 67.3781 38.2695L67.6868 38.5239C68.4232 37.6303 68.4235 36.3349 67.6529 35.4409L67.3499 35.7021Z" fill="url(#paint3_linear_220_18650)" fill-opacity="0.5" mask="url(#path-5-inside-2_220_18650)"/>
</g>
<defs>
<filter id="filter0_f_220_18650" x="0.535156" y="0.769592" width="66.5156" height="65.4557" filterUnits="userSpaceOnUse" color-interpolation-filters="sRGB">
<feFlood flood-opacity="0" result="BackgroundImageFix"/>
<feBlend mode="normal" in="SourceGraphic" in2="BackgroundImageFix" result="shape"/>
<feGaussianBlur stdDeviation="8" result="effect1_foregroundBlur_220_18650"/>
</filter>
<filter id="filter1_b_220_18650" x="4.60547" y="4.14594" width="88.5039" height="82.8541" filterUnits="userSpaceOnUse" color-interpolation-filters="sRGB">
<feFlood flood-opacity="0" result="BackgroundImageFix"/>
<feGaussianBlur in="BackgroundImageFix" stdDeviation="7.5"/>
<feComposite in2="SourceAlpha" operator="in" result="effect1_backgroundBlur_220_18650"/>
<feBlend mode="normal" in="SourceGraphic" in2="effect1_backgroundBlur_220_18650" result="shape"/>
</filter>
<filter id="filter2_bd_220_18650" x="14.8594" y="19.8338" width="68.1758" height="45.9092" filterUnits="userSpaceOnUse" color-interpolation-filters="sRGB">
<feFlood flood-opacity="0" result="BackgroundImageFix"/>
<feGaussianBlur in="BackgroundImageFix" stdDeviation="7.5"/>
<feComposite in2="SourceAlpha" operator="in" result="effect1_backgroundBlur_220_18650"/>
<feColorMatrix in="SourceAlpha" type="matrix" values="0 0 0 0 0 0 0 0 0 0 0 0 0 0 0 0 0 0 127 0" result="hardAlpha"/>
<feOffset dx="5" dy="5"/>
<feGaussianBlur stdDeviation="5"/>
<feColorMatrix type="matrix" values="0 0 0 0 1 0 0 0 0 0.447059 0 0 0 0 0.368627 0 0 0 0.5 0"/>
<feBlend mode="normal" in2="effect1_backgroundBlur_220_18650" result="effect2_dropShadow_220_18650"/>
<feBlend mode="normal" in="SourceGraphic" in2="effect2_dropShadow_220_18650" result="shape"/>
</filter>
<linearGradient id="paint0_linear_220_18650" x1="38.7353" y1="37.5383" x2="3.5654" y2="70.7735" gradientUnits="userSpaceOnUse">
<stop stop-color="#FFA78F"/>
<stop offset="1" stop-color="#F23E2C"/>
</linearGradient>
<linearGradient id="paint1_linear_220_18650" x1="29.6001" y1="26.0705" x2="61.1622" y2="69.5043" gradientUnits="userSpaceOnUse">
<stop stop-color="white" stop-opacity="0.25"/>
<stop offset="1" stop-color="white" stop-opacity="0"/>
</linearGradient>
<linearGradient id="paint2_linear_220_18650" x1="65.3284" y1="37.7067" x2="23.0181" y2="41.0169" gradientUnits="userSpaceOnUse">
<stop stop-color="white"/>
<stop offset="1" stop-color="white" stop-opacity="0.2"/>
</linearGradient>
<linearGradient id="paint3_linear_220_18650" x1="66.3993" y1="43.1249" x2="29.5876" y2="46.8048" gradientUnits="userSpaceOnUse">
<stop stop-color="white"/>
<stop offset="1" stop-color="white" stop-opacity="0"/>
</linearGradient>
</defs>
</svg>
