<svg width="60" height="61" viewBox="0 0 60 61" fill="none" xmlns="http://www.w3.org/2000/svg">
<g clip-path="url(#clip0_283_6540)">
<path d="M0 23.3699V45.8699C0.00396964 49.1839 1.3222 52.361 3.66555 54.7043C6.00889 57.0477 9.18601 58.3659 12.5 58.3699H47.5C50.814 58.3659 53.9911 57.0477 56.3345 54.7043C58.6778 52.361 59.996 49.1839 60 45.8699V23.3699H0ZM35 48.3699H15C14.337 48.3699 13.7011 48.1065 13.2322 47.6376C12.7634 47.1688 12.5 46.5329 12.5 45.8699C12.5 45.2068 12.7634 44.5709 13.2322 44.1021C13.7011 43.6333 14.337 43.3699 15 43.3699H35C35.663 43.3699 36.2989 43.6333 36.7678 44.1021C37.2366 44.5709 37.5 45.2068 37.5 45.8699C37.5 46.5329 37.2366 47.1688 36.7678 47.6376C36.2989 48.1065 35.663 48.3699 35 48.3699ZM45 38.3699H15C14.337 38.3699 13.7011 38.1065 13.2322 37.6376C12.7634 37.1688 12.5 36.5329 12.5 35.8699C12.5 35.2068 12.7634 34.5709 13.2322 34.1021C13.7011 33.6333 14.337 33.3699 15 33.3699H45C45.663 33.3699 46.2989 33.6333 46.7678 34.1021C47.2366 34.5709 47.5 35.2068 47.5 35.8699C47.5 36.5329 47.2366 37.1688 46.7678 37.6376C46.2989 38.1065 45.663 38.3699 45 38.3699ZM60 18.3699V15.8699C59.996 12.5559 58.6778 9.37877 56.3345 7.03542C53.9911 4.69208 50.814 3.37384 47.5 3.36987H12.5C9.18601 3.37384 6.00889 4.69208 3.66555 7.03542C1.3222 9.37877 0.00396964 12.5559 0 15.8699L0 18.3699H60ZM25 8.36987C25.4945 8.36987 25.9778 8.5165 26.3889 8.7912C26.8 9.0659 27.1205 9.45635 27.3097 9.91316C27.4989 10.37 27.5484 10.8726 27.452 11.3576C27.3555 11.8426 27.1174 12.288 26.7678 12.6376C26.4181 12.9873 25.9727 13.2254 25.4877 13.3218C25.0028 13.4183 24.5001 13.3688 24.0433 13.1796C23.5865 12.9904 23.196 12.6699 22.9213 12.2588C22.6466 11.8477 22.5 11.3643 22.5 10.8699C22.5 10.2068 22.7634 9.57095 23.2322 9.10211C23.7011 8.63327 24.337 8.36987 25 8.36987ZM17.5 8.36987C17.9945 8.36987 18.4778 8.5165 18.8889 8.7912C19.3 9.0659 19.6205 9.45635 19.8097 9.91316C19.9989 10.37 20.0484 10.8726 19.952 11.3576C19.8555 11.8426 19.6174 12.288 19.2678 12.6376C18.9181 12.9873 18.4727 13.2254 17.9877 13.3218C17.5028 13.4183 17.0001 13.3688 16.5433 13.1796C16.0865 12.9904 15.696 12.6699 15.4213 12.2588C15.1466 11.8477 15 11.3643 15 10.8699C15 10.2068 15.2634 9.57095 15.7322 9.10211C16.2011 8.63327 16.837 8.36987 17.5 8.36987ZM10 8.36987C10.4945 8.36987 10.9778 8.5165 11.3889 8.7912C11.8 9.0659 12.1205 9.45635 12.3097 9.91316C12.4989 10.37 12.5484 10.8726 12.452 11.3576C12.3555 11.8426 12.1174 12.288 11.7678 12.6376C11.4181 12.9873 10.9727 13.2254 10.4877 13.3218C10.0028 13.4183 9.50011 13.3688 9.04329 13.1796C8.58648 12.9904 8.19603 12.6699 7.92133 12.2588C7.64662 11.8477 7.5 11.3643 7.5 10.8699C7.5 10.2068 7.76339 9.57095 8.23223 9.10211C8.70107 8.63327 9.33696 8.36987 10 8.36987Z" fill="url(#paint0_linear_283_6540)"/>
</g>
<defs>
<linearGradient id="paint0_linear_283_6540" x1="17.619" y1="3.36987" x2="41.4935" y2="59.95" gradientUnits="userSpaceOnUse">
<stop stop-color="#FFA093"/>
<stop offset="1" stop-color="#FF6652"/>
</linearGradient>
<clipPath id="clip0_283_6540">
<rect width="60" height="60" fill="white" transform="translate(0 0.869873)"/>
</clipPath>
</defs>
</svg>
