<svg width="60" height="61" viewBox="0 0 60 61" fill="none" xmlns="http://www.w3.org/2000/svg">
<g clip-path="url(#clip0_283_6551)">
<path d="M30.0004 20.7345C32.1032 20.7345 33.8079 19.0298 33.8079 16.9269C33.8079 14.8241 32.1032 13.1194 30.0004 13.1194C27.8976 13.1194 26.1929 14.8241 26.1929 16.9269C26.1929 19.0298 27.8976 20.7345 30.0004 20.7345Z" fill="url(#paint0_linear_283_6551)"/>
<path d="M49.9997 0.871582H9.99966C4.4404 0.915527 -0.033585 5.45221 -0.000303785 11.0116V41.4365C-0.033585 46.9962 4.44005 51.5336 9.99966 51.579H17.3071L26.6771 59.579C28.5331 61.2752 31.3691 61.3 33.2546 59.6365L42.8671 51.5765H49.9996C55.5592 51.5312 60.0329 46.9938 59.9996 41.434V11.0116C60.033 5.45221 55.559 0.915527 49.9997 0.871582ZM29.9997 8.47658C41.5372 8.78162 41.5347 25.9191 29.9997 26.2266C18.4622 25.919 18.4647 8.789 29.9997 8.47658ZM40.6222 43.8916C39.2843 44.2329 37.9231 43.4251 37.5817 42.0872C37.5802 42.0812 37.5787 42.0752 37.5772 42.0691C36.2976 37.8835 31.8671 35.5277 27.6815 36.8072C25.162 37.5775 23.1899 39.5495 22.4197 42.0691C22.0703 43.4056 20.7037 44.2059 19.3672 43.8565C18.0306 43.5072 17.2304 42.1406 17.5797 40.804C19.5128 33.944 26.6411 29.9499 33.5011 31.883C37.8248 33.1014 41.2038 36.4804 42.4222 40.804C42.7702 42.1526 41.9672 43.5299 40.6222 43.8916Z" fill="url(#paint1_linear_283_6551)"/>
</g>
<defs>
<linearGradient id="paint0_linear_283_6551" x1="28.429" y1="13.1194" x2="31.9344" y2="20.7345" gradientUnits="userSpaceOnUse">
<stop stop-color="#FFA093"/>
<stop offset="1" stop-color="#FF6652"/>
</linearGradient>
<linearGradient id="paint1_linear_283_6551" x1="17.6186" y1="0.871581" x2="45.2348" y2="60.8692" gradientUnits="userSpaceOnUse">
<stop stop-color="#FFA093"/>
<stop offset="1" stop-color="#FF6652"/>
</linearGradient>
<clipPath id="clip0_283_6551">
<rect width="60" height="60" fill="white" transform="translate(0 0.869873)"/>
</clipPath>
</defs>
</svg>
