<svg width="60" height="61" viewBox="0 0 60 61" fill="none" xmlns="http://www.w3.org/2000/svg">
<g clip-path="url(#clip0_283_6550)">
<path d="M47.5 10.8699H44.75C44.1698 8.0484 42.6346 5.51324 40.4031 3.69167C38.1717 1.8701 35.3805 0.873509 32.5 0.869873L27.5 0.869873C24.6195 0.873509 21.8283 1.8701 19.5969 3.69167C17.3654 5.51324 15.8302 8.0484 15.25 10.8699H12.5C9.18601 10.8738 6.00889 12.1921 3.66555 14.5354C1.3222 16.8788 0.00396964 20.0559 0 23.3699L0 30.8699H60V23.3699C59.996 20.0559 58.6778 16.8788 56.3345 14.5354C53.9911 12.1921 50.814 10.8738 47.5 10.8699ZM20.46 10.8699C20.9752 9.4126 21.9281 8.1501 23.1883 7.25509C24.4484 6.36008 25.9543 5.87628 27.5 5.86987H32.5C34.0457 5.87628 35.5516 6.36008 36.8117 7.25509C38.0719 8.1501 39.0248 9.4126 39.54 10.8699H20.46Z" fill="url(#paint0_linear_283_6550)"/>
<path d="M32.5 38.3696C32.5 39.0327 32.2366 39.6685 31.7678 40.1374C31.2989 40.6062 30.663 40.8696 30 40.8696C29.337 40.8696 28.7011 40.6062 28.2322 40.1374C27.7634 39.6685 27.5 39.0327 27.5 38.3696V35.8696H0V48.3696C0.00396964 51.6836 1.3222 54.8607 3.66555 57.204C6.00889 59.5474 9.18601 60.8656 12.5 60.8696H47.5C50.814 60.8656 53.9911 59.5474 56.3345 57.204C58.6778 54.8607 59.996 51.6836 60 48.3696V35.8696H32.5V38.3696Z" fill="url(#paint1_linear_283_6550)"/>
</g>
<defs>
<linearGradient id="paint0_linear_283_6550" x1="17.619" y1="0.869872" x2="25.5659" y2="35.3976" gradientUnits="userSpaceOnUse">
<stop stop-color="#FFA093"/>
<stop offset="1" stop-color="#FF6652"/>
</linearGradient>
<linearGradient id="paint1_linear_283_6550" x1="17.619" y1="35.8696" x2="23.2238" y2="65.0919" gradientUnits="userSpaceOnUse">
<stop stop-color="#FFA093"/>
<stop offset="1" stop-color="#FF6652"/>
</linearGradient>
<clipPath id="clip0_283_6550">
<rect width="60" height="60" fill="white" transform="translate(0 0.869873)"/>
</clipPath>
</defs>
</svg>
