<svg width="48" height="48" viewBox="0 0 48 48" fill="none" xmlns="http://www.w3.org/2000/svg">
<path d="M21.375 11.1562C21.8928 11.1562 22.3125 10.7364 22.3125 10.2188V7.21875C22.3125 4.63406 20.2097 2.53125 17.625 2.53125H4.6875C2.10281 2.53125 0 4.63406 0 7.21875V18.4676C0 21.0523 2.10281 23.1551 4.6875 23.1551H10.7524C10.539 30.1588 7.88166 33.7997 2.64684 34.2759C2.16394 34.3199 1.79428 34.7247 1.79428 35.2096V44.5312C1.79428 44.7891 1.90041 45.0354 2.08772 45.2125C2.26228 45.3774 2.49281 45.4688 2.73169 45.4688C2.74922 45.4688 2.76684 45.4683 2.78438 45.4673C9.2445 45.1039 14.176 42.8806 17.4421 38.8591C20.6738 34.8798 22.3125 29.0652 22.3125 21.5767V18.2187C22.3125 17.701 21.8928 17.2812 21.375 17.2812C20.8572 17.2812 20.4375 17.701 20.4375 18.2187V21.5767C20.4375 35.3246 14.9498 42.514 3.66937 43.5233V36.0387C6.52041 35.5953 8.72569 34.2682 10.2325 32.0861C11.8309 29.7713 12.6413 26.4512 12.6413 22.2176C12.6413 21.6999 12.2216 21.2801 11.7038 21.2801H4.6875C3.13669 21.2801 1.875 20.0184 1.875 18.4676V7.21875C1.875 5.66794 3.13669 4.40625 4.6875 4.40625H17.625C19.1758 4.40625 20.4375 5.66794 20.4375 7.21875V10.2188C20.4375 10.7364 20.8572 11.1562 21.375 11.1562Z" fill="#FFE0DC"/>
<path d="M43.3125 2.53125H30.375C27.7903 2.53125 25.6875 4.63406 25.6875 7.21875V18.4676C25.6875 21.0523 27.7903 23.1551 30.375 23.1551H36.4399C36.2265 30.1588 33.5692 33.7997 28.3343 34.2759C27.8515 34.3199 27.4818 34.7247 27.4818 35.2096V44.5312C27.4818 44.7891 27.5879 45.0354 27.7752 45.2125C27.9498 45.3775 28.1803 45.4688 28.4192 45.4688C28.4367 45.4688 28.4543 45.4683 28.4719 45.4673C34.932 45.1039 39.8635 42.8806 43.1296 38.8591C46.3613 34.8799 48 29.0652 48 21.5767V7.21875C48 4.63406 45.8972 2.53125 43.3125 2.53125ZM46.125 21.5767C46.125 35.3246 40.6373 42.514 29.3568 43.5233V36.0387C32.2079 35.5953 34.4132 34.2682 35.9199 32.0861C37.5183 29.7714 38.3287 26.4513 38.3287 22.2176C38.3287 21.6999 37.909 21.2801 37.3912 21.2801H30.375C28.8242 21.2801 27.5625 20.0184 27.5625 18.4676V7.21875C27.5625 5.66794 28.8242 4.40625 30.375 4.40625H41.625V11.3469C41.625 11.8646 42.0447 12.2844 42.5625 12.2844C43.0803 12.2844 43.5 11.8646 43.5 11.3469V4.41319C44.9636 4.51013 46.125 5.73103 46.125 7.21875V21.5767Z" fill="#FFE0DC"/>
<path d="M42.5625 13.6641C42.0447 13.6641 41.625 14.0885 41.625 14.6062C41.625 15.1238 42.0447 15.5437 42.5625 15.5437C43.0802 15.5437 43.5 15.1238 43.5 14.6062V14.5969C43.5 14.0792 43.0803 13.6641 42.5625 13.6641Z" fill="#FFE0DC"/>
<path d="M21.375 13.2812C20.8572 13.2812 20.4375 13.7011 20.4375 14.2188V14.2383C20.4375 14.756 20.8572 15.1758 21.375 15.1758C21.8928 15.1758 22.3125 14.756 22.3125 14.2383V14.2188C22.3125 13.7011 21.8928 13.2812 21.375 13.2812Z" fill="#FFE0DC"/>
</svg>
