<svg width="394" height="500" viewBox="0 0 394 500" fill="none" xmlns="http://www.w3.org/2000/svg">
<mask id="mask0_314_7027" style="mask-type:alpha" maskUnits="userSpaceOnUse" x="0" y="0" width="394" height="500">
<rect width="394" height="500" rx="20" fill="#0A033C"/>
</mask>
<g mask="url(#mask0_314_7027)">
<mask id="mask1_314_7027" style="mask-type:alpha" maskUnits="userSpaceOnUse" x="-21" y="-32" width="1108" height="640">
<rect x="-21" y="-32" width="1108" height="640" fill="#C4C4C4"/>
</mask>
<g mask="url(#mask1_314_7027)">
<path opacity="0.6" d="M464.343 -154.672C435.014 -140.414 377.17 -78.3142 380.423 56.0245C384.489 223.948 473.215 329.032 495.397 487.45C511.768 604.375 509.445 897.226 409.628 1020.26" stroke="#CDCDEB" stroke-width="3.29167"/>
<path opacity="0.55" d="M418.024 -163.664C388.695 -149.406 330.851 -87.3064 334.104 47.0323C338.171 214.956 426.897 320.04 449.078 478.458C465.45 595.383 463.126 888.234 363.31 1011.27" stroke="#CDCDEB" stroke-width="3.29167"/>
<path opacity="0.5" d="M372.903 -181.11C343.574 -166.853 285.73 -104.753 288.983 29.586C293.05 197.509 381.776 302.594 403.957 461.012C420.329 577.936 418.005 870.787 318.189 993.825" stroke="#CDCDEB" stroke-width="3.29167"/>
<path opacity="0.45" d="M322.335 -212.636C293.006 -198.378 235.162 -136.278 238.415 -1.93939C242.481 165.984 331.207 271.068 353.389 429.486C369.76 546.411 367.437 839.262 267.62 962.3" stroke="#CDCDEB" stroke-width="3.29167"/>
<path opacity="0.4" d="M279.009 -237.697C249.68 -223.44 191.835 -161.34 195.089 -27.0009C199.155 140.922 287.881 246.007 310.063 404.425C326.434 521.349 324.111 814.2 224.294 937.239" stroke="#CDCDEB" stroke-width="3.29167"/>
<path opacity="0.35" d="M234.382 -257.561C205.053 -243.303 147.208 -181.203 150.462 -46.8642C154.528 121.059 243.254 226.143 265.436 384.562C281.807 501.486 279.484 794.337 179.667 917.375" stroke="#CDCDEB" stroke-width="3.29167"/>
<path opacity="0.3" d="M188.76 -272.102C159.432 -257.844 101.587 -195.744 104.841 -61.4052C108.907 106.518 197.633 211.602 219.815 370.021C236.186 486.945 233.863 779.796 134.046 902.834" stroke="#CDCDEB" stroke-width="3.29167"/>
<path opacity="0.25" d="M142.466 -281.324C113.137 -267.067 55.2926 -204.967 58.5458 -70.6279C62.6124 97.2955 151.338 202.38 173.52 360.798C189.891 477.723 187.568 770.573 87.7514 893.612" stroke="#CDCDEB" stroke-width="3.29167"/>
<path opacity="0.2" d="M95.8055 -285.343C66.4767 -271.085 8.63235 -208.985 11.8856 -74.6464C15.9522 93.277 104.678 198.361 126.86 356.779C143.231 473.704 140.908 766.555 41.0912 889.593" stroke="#CDCDEB" stroke-width="3.29167"/>
<path opacity="0.15" d="M49.0671 -284.364C19.7383 -270.107 -38.106 -208.007 -34.8527 -73.6679C-30.7861 94.2555 57.9397 199.34 80.1212 357.758C96.4927 474.683 94.1694 767.533 -5.64711 890.572" stroke="#CDCDEB" stroke-width="3.29167"/>
<path opacity="0.1" d="M2.49485 -278.652C-26.834 -264.395 -84.6783 -202.295 -81.425 -67.956C-77.3584 99.9674 11.3675 205.052 33.5489 363.47C49.9205 480.394 47.5972 773.245 -52.2194 896.283" stroke="#CDCDEB" stroke-width="3.29167"/>
<path opacity="0.05" d="M-43.7063 -268.498C-73.0351 -254.24 -130.879 -192.14 -127.626 -57.8017C-123.56 110.122 -34.8337 215.206 -12.6523 373.624C3.71931 490.549 1.39599 783.4 -98.4205 906.438" stroke="#CDCDEB" stroke-width="3.29167"/>
</g>
</g>
</svg>
