<svg width="23" height="23" viewBox="0 0 23 23" fill="none" xmlns="http://www.w3.org/2000/svg">
<path d="M5.37343 18.3185C5.93106 17.0047 7.23301 16.0833 8.75016 16.0833H14.2502C15.7673 16.0833 17.0693 17.0047 17.6269 18.3185M15.1668 9.20825C15.1668 11.2333 13.5252 12.8749 11.5002 12.8749C9.47512 12.8749 7.8335 11.2333 7.8335 9.20825C7.8335 7.18321 9.47512 5.54159 11.5002 5.54159C13.5252 5.54159 15.1668 7.18321 15.1668 9.20825ZM20.6668 11.4999C20.6668 16.5625 16.5628 20.6666 11.5002 20.6666C6.43755 20.6666 2.3335 16.5625 2.3335 11.4999C2.3335 6.43731 6.43755 2.33325 11.5002 2.33325C16.5628 2.33325 20.6668 6.43731 20.6668 11.4999Z" stroke="#6C688A" stroke-width="1.5" stroke-linecap="round" stroke-linejoin="round"/>
</svg>
