<svg width="42" height="28" viewBox="0 0 42 28" fill="none" xmlns="http://www.w3.org/2000/svg">
<rect x="0.5" y="0.5" width="41" height="27" rx="4.5" fill="white" stroke="#E2E8F0"/>
<path fill-rule="evenodd" clip-rule="evenodd" d="M12.7507 18.9679H10.2063L8.29834 11.8911C8.20778 11.5655 8.01549 11.2777 7.73264 11.1421C7.02676 10.8012 6.24893 10.5299 5.40039 10.3931V10.1207H9.4992C10.0649 10.1207 10.4892 10.5299 10.5599 11.0053L11.5498 16.11L14.093 10.1207H16.5667L12.7507 18.9679ZM17.9809 18.9679H15.5779L17.5566 10.1207H19.9596L17.9809 18.9679ZM23.0684 12.5716C23.1391 12.0951 23.5634 11.8227 24.0584 11.8227C24.8362 11.7542 25.6835 11.8911 26.3906 12.2308L26.8149 10.3259C26.1078 10.0534 25.33 9.91663 24.6241 9.91663C22.2918 9.91663 20.5948 11.1421 20.5948 12.8429C20.5948 14.1368 21.7969 14.8162 22.6454 15.2254C23.5634 15.6335 23.917 15.906 23.8463 16.3141C23.8463 16.9262 23.1391 17.1987 22.4333 17.1987C21.5847 17.1987 20.7362 16.9947 19.9596 16.6538L19.5353 18.5598C20.3839 18.8995 21.3019 19.0363 22.1504 19.0363C24.7655 19.1036 26.3906 17.8793 26.3906 16.0416C26.3906 13.7275 23.0684 13.5919 23.0684 12.5716ZM34.8004 18.9679L32.8924 10.1207H30.843C30.4187 10.1207 29.9945 10.3931 29.853 10.8012L26.3199 18.9679H28.7936L29.2873 17.6752H32.3267L32.6096 18.9679H34.8004ZM31.1966 12.5032L31.9024 15.8376H29.9238L31.1966 12.5032Z" fill="#172B85"/>
</svg>
